<?xml version="1.0" encoding="UTF-8" standalone="no"?>
<svg xmlns:dc="http://purl.org/dc/elements/1.1/" xmlns:cc="http://creativecommons.org/ns#" xmlns:rdf="http://www.w3.org/1999/02/22-rdf-syntax-ns#" xmlns:svg="http://www.w3.org/2000/svg" xmlns="http://www.w3.org/2000/svg" version="1.1" id="svg2" viewBox="0 0 639.79964 164.46794" height="46.416508mm" width="180.56567mm">
  <defs id="defs4"/>
  <g transform="translate(-45.549675,-55.842515)" id="layer1">
    <g transform="matrix(0.82749643,0,0,0.82749643,-125.94962,-213.0908)" id="g4315">
      <g id="g4137">
        <path style="fill:#00000;" d="m 223.74,523.75 c -3.45,0 -6.93,-1.08 -9.9,-3.31 -7.29,-5.47 -8.75,-15.82 -3.28,-23.1 l 62.47,-83.13 c 3.12,-4.15 8,-6.59 13.19,-6.59 l 39.93,0 49.02,-75.14 c 4.98,-7.63 15.2,-9.78 22.83,-4.8 7.63,4.98 9.78,15.2 4.8,22.83 l -53.91,82.62 c -3.05,4.67 -8.24,7.48 -13.82,7.48 l -40.63,0 -57.52,76.54 c -3.22,4.33 -8.17,6.6 -13.18,6.6 z" id="path4139"/>
      </g>
      <g id="g4141">
        <path style="fill:#00000" d="m 222.31,437.5 c -1.88,0 -3.78,-0.59 -5.4,-1.81 -3.97,-2.99 -4.77,-8.63 -1.79,-12.6 l 33.9,-45.11 c 1.7,-2.26 4.37,-3.59 7.19,-3.59 l 21.65,0 26.59,-40.76 c 2.72,-4.16 8.29,-5.34 12.46,-2.62 4.16,2.72 5.34,8.29 2.62,12.46 l -29.26,44.84 c -1.66,2.55 -4.5,4.08 -7.54,4.08 l -22.03,0 -31.2,41.52 c -1.76,2.35 -4.46,3.59 -7.19,3.59 z" id="path4143"/>
      </g>
      <g id="g4145">
        <path style="fill:#00000" d="m 223.31,388.02 c -0.94,0 -1.89,-0.29 -2.7,-0.9 -1.99,-1.49 -2.39,-4.31 -0.89,-6.3 l 17.65,-23.48 c 0.85,-1.13 2.18,-1.8 3.6,-1.8 l 11.37,0 13.9,-21.3 c 1.36,-2.08 4.15,-2.67 6.23,-1.31 2.08,1.36 2.67,4.15 1.31,6.23 l -15.23,23.34 c -0.83,1.27 -2.25,2.04 -3.77,2.04 l -11.56,0 -16.3,21.69 c -0.89,1.17 -2.24,1.79 -3.61,1.79 z" id="path4147"/>
      </g>
      <g id="g4149">
        <path style="fill:#010202" d="m 317.19,474.04 -14.23,0 c -0.39,0 -0.77,0.16 -1.04,0.42 -0.27,0.28 -0.43,0.66 -0.43,1.04 l 0,29.55 c 0,0.81 0.66,1.46 1.47,1.46 0.8,0 1.46,-0.65 1.46,-1.46 l 0,-13.3 11.02,0 c 0.81,0 1.46,-0.67 1.46,-1.47 0,-0.82 -0.65,-1.47 -1.46,-1.47 l -11.02,0 0,-11.83 12.77,0 c 0.81,0 1.46,-0.66 1.46,-1.48 0,-0.8 -0.66,-1.46 -1.46,-1.46 z" id="path4151"/>
        <path style="fill:#010202" d="m 345.36,474.17 c -0.81,0 -1.47,0.66 -1.47,1.47 l 0,13.3 -19.21,0 0,-13.3 c 0,-0.81 -0.66,-1.47 -1.47,-1.47 -0.8,0 -1.47,0.66 -1.47,1.47 l 0,29.54 c 0,0.81 0.67,1.46 1.47,1.46 0.81,0 1.47,-0.65 1.47,-1.46 l 0,-13.3 19.21,0 0,13.3 c 0,0.81 0.66,1.46 1.47,1.46 0.81,0 1.47,-0.65 1.47,-1.46 l 0,-29.54 c 0.01,-0.81 -0.65,-1.47 -1.47,-1.47 z" id="path4153"/>
        <path style="fill:#010202" d="m 383.89,475.34 c -0.12,-0.63 -0.63,-1.11 -1.27,-1.19 -0.65,-0.08 -1.27,0.28 -1.52,0.88 L 369.61,501.41 359,475.19 c -0.25,-0.59 -0.85,-0.96 -1.49,-0.91 -0.65,0.05 -1.18,0.52 -1.31,1.15 l -6.22,29.44 c -0.16,0.8 0.34,1.58 1.14,1.75 0.79,0.16 1.57,-0.34 1.73,-1.13 l 5.23,-24.74 10.14,25.02 c 0.21,0.54 0.74,0.91 1.34,0.91 l 0.01,0 c 0.59,0 1.12,-0.34 1.35,-0.88 l 10.95,-25.18 4.54,24.7 c 0.14,0.81 0.91,1.33 1.71,1.19 0.8,-0.15 1.33,-0.92 1.18,-1.71 l -5.41,-29.46 z" id="path4155"/>
      </g>
      <path style="fill:#010202" d="m 294,504 -45.29,0 -2.25,3 47.54,0 c 0.83,0 1.5,-0.67 1.5,-1.5 0,-0.83 -0.67,-1.5 -1.5,-1.5 z" id="path4157"/>
      <path style="fill:#010202" d="m 387.5,376.74 0,90.26 c 0,0.83 0.67,1.5 1.5,1.5 0.83,0 1.5,-0.67 1.5,-1.5 l 0,-94.86 -3,4.6 z" id="path4159"/>
      <path style="fill:#010202" d="m 321.88,340 c -0.15,1.02 -0.46,2.04 -0.94,3 l 45.58,0 1.96,-3 -46.6,0 z" id="path4161"/>
      <path style="fill:#010202" d="m 225.25,438.05 0,37.25 3,-3.99 0,-34.77 c -0.91,0.67 -1.92,1.18 -3,1.51 z" id="path4163"/>
      <g id="g4165">
        <path style="fill:#010202" d="m 228.25,368.64 0,-25.64 31.67,0 1.96,-3 -35.13,0 c -0.83,0 -1.5,0.67 -1.5,1.5 l 0,31.13 3,-3.99 z" id="path4167"/>
        <path style="fill:#010202" d="m 227.31,386.53 c -0.55,0.73 -1.26,1.27 -2.06,1.6 l 0,19.82 3,-3.99 0,-18.68 -0.94,1.25 z" id="path4169"/>
        <polygon style="fill:#010202" points="273.82,340 271.86,343 297.15,343 299.11,340 " id="polygon4171"/>
      </g>
      <g id="g4173">
        <path style="fill:#010202" d="m 437.61,367.35 c 0.82,0.58 1.79,1.1 2.93,1.55 1.14,0.45 2.3,0.68 3.5,0.68 1.78,0 3.22,-0.5 4.32,-1.49 1.11,-0.99 1.66,-2.34 1.66,-4.02 0,-1.29 -0.33,-2.3 -0.98,-3.06 -0.65,-0.76 -1.48,-1.4 -2.47,-1.93 -0.99,-0.52 -2.06,-1.02 -3.21,-1.49 -1.15,-0.46 -2.22,-1.05 -3.21,-1.75 -0.99,-0.69 -1.82,-1.58 -2.47,-2.64 -0.66,-1.06 -0.98,-2.49 -0.98,-4.27 0,-1.16 0.23,-2.24 0.68,-3.21 0.45,-0.97 1.09,-1.82 1.9,-2.52 0.81,-0.69 1.78,-1.24 2.9,-1.64 1.12,-0.39 2.35,-0.59 3.7,-0.59 1.48,0 2.89,0.21 4.22,0.63 1.33,0.42 2.61,1 3.83,1.73 l -1.44,2.75 c -0.91,-0.59 -1.84,-1.1 -2.82,-1.55 -0.97,-0.45 -2.17,-0.68 -3.6,-0.68 -0.67,0 -1.33,0.1 -1.99,0.31 -0.65,0.2 -1.25,0.52 -1.79,0.96 -0.54,0.44 -0.97,0.99 -1.31,1.66 -0.33,0.67 -0.5,1.46 -0.5,2.37 0,1.1 0.34,2.02 1.01,2.72 0.68,0.72 1.51,1.35 2.52,1.9 1.01,0.56 2.1,1.09 3.28,1.6 1.18,0.51 2.27,1.12 3.28,1.83 1.01,0.71 1.84,1.59 2.51,2.62 0.67,1.04 1.01,2.34 1.01,3.91 0,1.14 -0.19,2.23 -0.59,3.26 -0.4,1.04 -1,1.97 -1.82,2.78 -0.82,0.82 -1.83,1.46 -3.07,1.95 -1.22,0.48 -2.66,0.71 -4.32,0.71 -1.66,0 -3.14,-0.2 -4.44,-0.6 -1.3,-0.41 -2.58,-1.01 -3.87,-1.79 l 1.63,-2.69 z" id="path4175"/>
        <path style="fill:#010202" d="m 460.64,350.08 0.09,-8.05 3.5,0 -0.09,8.05 5.94,0 0,2.62 -5.99,0 -0.09,8.92 c -0.03,1.22 -0.04,2.26 -0.04,3.1 l 0,2.06 c 0,0.91 0.14,1.59 0.44,2.08 0.29,0.48 0.82,0.72 1.57,0.72 0.59,0 1.21,-0.15 1.88,-0.44 0.66,-0.29 1.2,-0.57 1.61,-0.83 l 1.14,2.27 c -0.73,0.5 -1.58,0.94 -2.56,1.32 -0.98,0.38 -1.95,0.57 -2.91,0.57 -1.69,0 -2.89,-0.49 -3.61,-1.47 -0.71,-0.97 -1.07,-2.34 -1.07,-4.08 l 0,-2.54 c 0,-0.96 0.01,-2.2 0.05,-3.71 l 0.09,-7.96 -3.72,0 0,-2.62 3.77,0 z" id="path4177"/>
        <path style="fill:#010202" d="m 492.38,370.89 c -0.61,0.5 -1.26,0.88 -1.93,1.15 -0.67,0.28 -1.38,0.42 -2.14,0.42 -0.99,0 -1.75,-0.37 -2.29,-1.11 -0.54,-0.74 -0.85,-1.58 -0.94,-2.51 -0.84,1.02 -1.79,1.88 -2.86,2.57 -1.06,0.7 -2.3,1.05 -3.69,1.05 -1.92,0 -3.45,-0.59 -4.59,-1.77 -1.14,-1.17 -1.7,-2.69 -1.7,-4.52 0,-1.55 0.44,-2.81 1.31,-3.81 0.88,-0.99 1.96,-1.77 3.26,-2.34 1.3,-0.57 2.68,-0.96 4.15,-1.2 1.47,-0.23 2.8,-0.38 4,-0.44 0.03,-0.46 0.05,-0.92 0.07,-1.37 0.01,-0.46 0.02,-0.91 0.02,-1.38 0,-0.93 -0.27,-1.71 -0.78,-2.34 -0.53,-0.62 -1.37,-0.94 -2.54,-0.94 -0.44,0 -0.86,0.04 -1.27,0.13 -0.41,0.09 -0.85,0.25 -1.33,0.48 -0.48,0.23 -1.02,0.54 -1.62,0.92 -0.6,0.38 -1.29,0.88 -2.07,1.49 l -1.45,-2.27 c 1.08,-0.7 2.01,-1.28 2.78,-1.75 0.77,-0.47 1.48,-0.84 2.14,-1.12 0.66,-0.27 1.29,-0.47 1.91,-0.59 0.61,-0.12 1.31,-0.18 2.1,-0.18 1.83,0 3.2,0.49 4.11,1.49 0.91,0.99 1.35,2.33 1.35,4.02 0,2.07 -0.05,4.06 -0.17,5.99 -0.12,1.93 -0.18,3.85 -0.18,5.77 0,0.78 0.09,1.5 0.28,2.14 0.19,0.64 0.62,0.96 1.29,0.96 0.38,0 0.71,-0.07 0.99,-0.22 0.28,-0.15 0.55,-0.32 0.85,-0.53 l 0.94,1.81 z m -7.43,-10.41 c -1.51,0.21 -2.85,0.44 -4,0.7 -1.15,0.27 -2.11,0.61 -2.88,1.03 -0.78,0.42 -1.36,0.95 -1.75,1.57 -0.4,0.63 -0.6,1.41 -0.6,2.34 0,1.22 0.34,2.15 1.03,2.77 0.68,0.63 1.64,0.94 2.86,0.94 1.07,0 2.04,-0.32 2.89,-0.96 0.84,-0.64 1.6,-1.38 2.27,-2.23 l 0.18,-6.16 z" id="path4179"/>
        <path style="fill:#010202" d="m 514.24,370.89 c -0.61,0.5 -1.25,0.88 -1.92,1.15 -0.67,0.28 -1.38,0.42 -2.14,0.42 -0.99,0 -1.75,-0.37 -2.29,-1.11 -0.54,-0.74 -0.85,-1.58 -0.94,-2.51 -0.84,1.02 -1.79,1.88 -2.86,2.57 -1.06,0.7 -2.29,1.05 -3.69,1.05 -1.93,0 -3.45,-0.59 -4.59,-1.77 -1.14,-1.17 -1.7,-2.69 -1.7,-4.52 0,-1.55 0.44,-2.81 1.31,-3.81 0.88,-0.99 1.96,-1.77 3.26,-2.34 1.3,-0.57 2.68,-0.96 4.15,-1.2 1.47,-0.23 2.8,-0.38 4,-0.44 0.03,-0.46 0.05,-0.92 0.07,-1.37 0.01,-0.46 0.02,-0.91 0.02,-1.38 0,-0.93 -0.26,-1.71 -0.78,-2.34 -0.53,-0.62 -1.37,-0.94 -2.54,-0.94 -0.44,0 -0.86,0.04 -1.27,0.13 -0.41,0.09 -0.85,0.25 -1.33,0.48 -0.48,0.23 -1.02,0.54 -1.62,0.92 -0.6,0.38 -1.29,0.88 -2.07,1.49 l -1.45,-2.27 c 1.08,-0.7 2.01,-1.28 2.78,-1.75 0.77,-0.47 1.48,-0.84 2.14,-1.12 0.65,-0.27 1.29,-0.47 1.9,-0.59 0.61,-0.12 1.31,-0.18 2.1,-0.18 1.83,0 3.2,0.49 4.11,1.49 0.91,0.99 1.35,2.33 1.35,4.02 0,2.07 -0.05,4.06 -0.17,5.99 -0.12,1.93 -0.18,3.85 -0.18,5.77 0,0.78 0.09,1.5 0.28,2.14 0.19,0.64 0.62,0.96 1.29,0.96 0.37,0 0.71,-0.07 0.99,-0.22 0.28,-0.15 0.56,-0.32 0.85,-0.53 l 0.94,1.81 z m -7.43,-10.41 c -1.51,0.21 -2.85,0.44 -4,0.7 -1.15,0.27 -2.11,0.61 -2.88,1.03 -0.78,0.42 -1.36,0.95 -1.75,1.57 -0.4,0.63 -0.6,1.41 -0.6,2.34 0,1.22 0.34,2.15 1.03,2.77 0.68,0.63 1.64,0.94 2.86,0.94 1.07,0 2.04,-0.32 2.89,-0.96 0.84,-0.64 1.6,-1.38 2.27,-2.23 l 0.18,-6.16 z" id="path4181"/>
        <path style="fill:#010202" d="m 518.92,350.08 0.09,-8.05 3.5,0 -0.09,8.05 5.94,0 0,2.62 -5.99,0 -0.09,8.92 c -0.03,1.22 -0.04,2.26 -0.04,3.1 l 0,2.06 c 0,0.91 0.14,1.59 0.44,2.08 0.29,0.48 0.82,0.72 1.57,0.72 0.59,0 1.21,-0.15 1.88,-0.44 0.67,-0.29 1.21,-0.57 1.62,-0.83 l 1.14,2.27 c -0.73,0.5 -1.58,0.94 -2.56,1.32 -0.98,0.38 -1.94,0.57 -2.9,0.57 -1.69,0 -2.89,-0.49 -3.61,-1.47 -0.72,-0.97 -1.07,-2.34 -1.07,-4.08 l 0,-2.54 c 0,-0.96 0.01,-2.2 0.04,-3.71 l 0.09,-7.96 -3.72,0 0,-2.62 3.76,0 z" id="path4183"/>
        <polygon style="fill:#010202" points="531.99,339.06 535.49,339.06 535.23,371.85 531.73,371.85 " id="polygon4185"/>
        <path style="fill:#010202" d="m 541.43,341.6 3.76,0 0,3.94 -3.76,0 0,-3.94 z m 0.18,8.48 3.5,0 -0.18,21.77 -3.5,0 0.18,-21.77 z" id="path4187"/>
        <path style="fill:#010202" d="m 564.95,354.89 c -1.37,-1.7 -2.94,-2.54 -4.73,-2.54 -0.82,0 -1.61,0.19 -2.4,0.59 -0.78,0.4 -1.49,0.97 -2.1,1.75 -0.61,0.78 -1.11,1.74 -1.49,2.9 -0.38,1.16 -0.57,2.51 -0.57,4.02 0,1.23 0.18,2.33 0.55,3.3 0.37,0.98 0.85,1.82 1.45,2.52 0.59,0.7 1.29,1.23 2.07,1.6 0.79,0.37 1.61,0.55 2.45,0.55 0.93,0 1.86,-0.29 2.78,-0.88 0.92,-0.58 1.64,-1.22 2.16,-1.93 l 1.79,2.06 c -1.05,1.25 -2.16,2.17 -3.34,2.75 -1.18,0.58 -2.52,0.88 -4,0.88 -1.37,0 -2.64,-0.26 -3.81,-0.79 -1.16,-0.52 -2.18,-1.27 -3.06,-2.25 -0.88,-0.97 -1.56,-2.18 -2.06,-3.61 -0.5,-1.42 -0.74,-3.04 -0.74,-4.85 0,-1.49 0.25,-2.92 0.76,-4.31 0.5,-1.39 1.21,-2.61 2.1,-3.67 0.88,-1.07 1.96,-1.92 3.21,-2.56 1.25,-0.64 2.62,-0.96 4.11,-0.96 1.42,0 2.76,0.33 4,0.99 1.24,0.65 2.28,1.53 3.13,2.64 l -2.26,1.8 z" id="path4189"/>
        <path style="fill:#010202" d="m 571.07,339.06 3.67,0 -0.17,14.43 0.09,0 c 0.87,-1.29 1.98,-2.28 3.31,-2.98 1.33,-0.7 2.66,-1.06 3.96,-1.06 1.25,0 2.3,0.16 3.14,0.46 0.84,0.3 1.52,0.75 2.04,1.33 0.52,0.58 0.9,1.28 1.11,2.1 0.22,0.82 0.33,1.72 0.33,2.71 0,0.84 -0.01,1.67 -0.02,2.49 -0.01,0.82 -0.02,1.65 -0.02,2.49 l -0.09,10.8 -3.49,0 0.09,-9.8 c 0,-0.96 0,-1.93 0.02,-2.9 0.02,-0.98 0.02,-2.01 0.02,-3.08 0,-1.19 -0.36,-2.07 -1.07,-2.62 -0.71,-0.55 -1.68,-0.83 -2.89,-0.83 -1.13,0 -2.22,0.33 -3.26,0.98 -1.04,0.66 -2.12,1.67 -3.22,3.03 l -0.18,15.22 -3.54,0 0.17,-32.77 z" id="path4191"/>
        <path style="fill:#010202" d="m 625.94,370.89 c -0.61,0.5 -1.25,0.88 -1.93,1.15 -0.67,0.28 -1.38,0.42 -2.15,0.42 -0.99,0 -1.75,-0.37 -2.29,-1.11 -0.54,-0.74 -0.85,-1.58 -0.93,-2.51 -0.85,1.02 -1.8,1.88 -2.87,2.57 -1.06,0.7 -2.29,1.05 -3.69,1.05 -1.93,0 -3.45,-0.59 -4.59,-1.77 -1.14,-1.17 -1.71,-2.69 -1.71,-4.52 0,-1.55 0.44,-2.81 1.31,-3.81 0.88,-0.99 1.96,-1.77 3.26,-2.34 1.3,-0.57 2.67,-0.96 4.15,-1.2 1.47,-0.23 2.81,-0.38 4,-0.44 0.03,-0.46 0.05,-0.92 0.07,-1.37 0.01,-0.46 0.02,-0.91 0.02,-1.38 0,-0.93 -0.26,-1.71 -0.79,-2.34 -0.53,-0.62 -1.37,-0.94 -2.54,-0.94 -0.44,0 -0.86,0.04 -1.27,0.13 -0.42,0.09 -0.86,0.25 -1.33,0.48 -0.48,0.23 -1.02,0.54 -1.62,0.92 -0.6,0.38 -1.29,0.88 -2.08,1.49 l -1.44,-2.27 c 1.08,-0.7 2.01,-1.28 2.78,-1.75 0.78,-0.47 1.49,-0.84 2.14,-1.12 0.66,-0.27 1.29,-0.47 1.91,-0.59 0.61,-0.12 1.31,-0.18 2.09,-0.18 1.84,0 3.21,0.49 4.11,1.49 0.9,0.99 1.35,2.33 1.35,4.02 0,2.07 -0.05,4.06 -0.17,5.99 -0.12,1.93 -0.18,3.85 -0.18,5.77 0,0.78 0.09,1.5 0.28,2.14 0.19,0.64 0.62,0.96 1.29,0.96 0.38,0 0.71,-0.07 0.98,-0.22 0.28,-0.15 0.56,-0.32 0.86,-0.53 l 0.98,1.81 z m -7.44,-10.41 c -1.51,0.21 -2.85,0.44 -4,0.7 -1.15,0.27 -2.12,0.61 -2.88,1.03 -0.78,0.42 -1.36,0.95 -1.75,1.57 -0.4,0.63 -0.59,1.41 -0.59,2.34 0,1.22 0.34,2.15 1.03,2.77 0.68,0.63 1.64,0.94 2.87,0.94 1.07,0 2.04,-0.32 2.89,-0.96 0.84,-0.64 1.6,-1.38 2.27,-2.23 l 0.16,-6.16 z" id="path4193"/>
        <path style="fill:#010202" d="m 629.39,350.08 3.5,0 -0.13,3.49 0.08,0 c 0.94,-1.31 2.07,-2.32 3.41,-3.04 1.34,-0.71 2.67,-1.07 3.98,-1.07 1.25,0 2.3,0.15 3.15,0.46 0.84,0.31 1.53,0.75 2.05,1.33 0.53,0.59 0.9,1.29 1.11,2.1 0.22,0.82 0.33,1.72 0.33,2.71 0,0.84 0,1.68 -0.02,2.49 -0.01,0.82 -0.02,1.64 -0.02,2.49 l -0.09,10.8 -3.5,0 0.09,-9.79 c 0,-0.96 0,-1.93 0.01,-2.9 0.02,-0.98 0.03,-2.01 0.03,-3.08 0,-1.19 -0.36,-2.07 -1.07,-2.62 -0.71,-0.56 -1.69,-0.83 -2.91,-0.83 -1.14,0 -2.23,0.33 -3.28,0.98 -1.05,0.65 -2.13,1.67 -3.24,3.04 l -0.17,15.21 -3.5,0 0.19,-21.77 z" id="path4195"/>
        <path style="fill:#010202" d="m 655.71,360.48 0,0.74 c 0,1.14 0.11,2.22 0.33,3.26 0.22,1.04 0.57,1.96 1.06,2.75 0.5,0.8 1.14,1.44 1.93,1.9 0.79,0.47 1.73,0.7 2.84,0.7 1.25,0 2.36,-0.32 3.34,-0.94 0.98,-0.63 1.93,-1.36 2.86,-2.2 l 1.7,1.88 c -1.1,1.11 -2.35,2.03 -3.76,2.78 -1.4,0.74 -2.91,1.11 -4.54,1.11 -3.03,0 -5.38,-1.01 -7.04,-3.06 -1.66,-2.04 -2.49,-4.85 -2.49,-8.44 0,-1.49 0.25,-2.93 0.74,-4.31 0.5,-1.38 1.18,-2.61 2.06,-3.67 0.87,-1.06 1.92,-1.92 3.15,-2.56 1.23,-0.64 2.57,-0.96 4.02,-0.96 1.46,0 2.72,0.27 3.78,0.78 1.06,0.53 1.94,1.25 2.63,2.17 0.68,0.92 1.18,2.01 1.51,3.28 0.32,1.26 0.47,2.62 0.47,4.08 l 0,0.69 -14.59,0 z m 11.11,-2.36 c 0,-0.78 -0.09,-1.54 -0.26,-2.25 -0.18,-0.72 -0.46,-1.35 -0.83,-1.92 -0.38,-0.56 -0.88,-1.02 -1.51,-1.36 -0.63,-0.33 -1.38,-0.5 -2.25,-0.5 -0.82,0 -1.56,0.18 -2.23,0.53 -0.67,0.34 -1.26,0.8 -1.77,1.37 -0.51,0.57 -0.93,1.22 -1.25,1.95 -0.32,0.73 -0.55,1.46 -0.69,2.19 l 10.79,0 z" id="path4197"/>
        <path style="fill:#010202" d="m 675.56,350.08 3.59,0 -0.04,4.24 0.09,0.09 c 0.18,-0.49 0.45,-1.02 0.81,-1.59 0.37,-0.57 0.8,-1.1 1.31,-1.6 0.51,-0.49 1.09,-0.91 1.75,-1.25 0.65,-0.33 1.38,-0.5 2.16,-0.5 0.7,0 1.33,0.1 1.88,0.31 l -1.05,3.32 c -0.18,-0.05 -0.39,-0.11 -0.64,-0.15 -0.24,-0.04 -0.49,-0.06 -0.72,-0.06 -0.35,0 -0.76,0.08 -1.22,0.24 -0.46,0.16 -0.95,0.42 -1.44,0.78 -0.5,0.37 -1,0.85 -1.51,1.45 -0.51,0.6 -1,1.33 -1.46,2.2 l -0.18,14.29 -3.49,0 0.16,-21.77 z" id="path4199"/>
        <polygon style="fill:#010202" points="697.81,360.08 707.26,370.58 704.5,372.81 693.49,360.66 693.35,371.85 689.9,371.85 690.16,339.06 693.66,339.06 693.49,360.57 704.68,348.98 707,351.26 " id="polygon4201"/>
        <path style="fill:#010202" d="m 730.38,370.89 c -0.61,0.5 -1.25,0.88 -1.92,1.15 -0.66,0.28 -1.38,0.42 -2.14,0.42 -0.99,0 -1.75,-0.37 -2.29,-1.11 -0.54,-0.74 -0.85,-1.58 -0.94,-2.51 -0.85,1.02 -1.8,1.88 -2.87,2.57 -1.06,0.7 -2.29,1.05 -3.69,1.05 -1.92,0 -3.45,-0.59 -4.59,-1.77 -1.14,-1.17 -1.7,-2.69 -1.7,-4.52 0,-1.55 0.44,-2.81 1.31,-3.81 0.87,-0.99 1.96,-1.77 3.25,-2.34 1.3,-0.57 2.68,-0.96 4.16,-1.2 1.47,-0.23 2.8,-0.38 4,-0.44 0.03,-0.46 0.05,-0.92 0.07,-1.37 0.01,-0.46 0.02,-0.91 0.02,-1.38 0,-0.93 -0.26,-1.71 -0.78,-2.34 -0.53,-0.62 -1.37,-0.94 -2.53,-0.94 -0.44,0 -0.87,0.04 -1.27,0.13 -0.41,0.09 -0.85,0.25 -1.33,0.48 -0.47,0.23 -1.02,0.54 -1.62,0.92 -0.6,0.38 -1.29,0.88 -2.08,1.49 L 712,353.1 c 1.08,-0.7 2.01,-1.28 2.78,-1.75 0.78,-0.47 1.49,-0.84 2.15,-1.12 0.65,-0.27 1.29,-0.47 1.9,-0.59 0.61,-0.12 1.31,-0.18 2.09,-0.18 1.84,0 3.21,0.49 4.11,1.49 0.9,0.99 1.35,2.33 1.35,4.02 0,2.07 -0.05,4.06 -0.17,5.99 -0.12,1.93 -0.18,3.85 -0.18,5.77 0,0.78 0.09,1.5 0.28,2.14 0.19,0.64 0.62,0.96 1.29,0.96 0.38,0 0.71,-0.07 0.99,-0.22 0.28,-0.15 0.56,-0.32 0.85,-0.53 l 0.94,1.81 z m -7.43,-10.41 c -1.52,0.21 -2.85,0.44 -4,0.7 -1.15,0.27 -2.12,0.61 -2.89,1.03 -0.77,0.42 -1.36,0.95 -1.75,1.57 -0.4,0.63 -0.59,1.41 -0.59,2.34 0,1.22 0.34,2.15 1.03,2.77 0.69,0.63 1.64,0.94 2.87,0.94 1.07,0 2.04,-0.32 2.89,-0.96 0.84,-0.64 1.6,-1.38 2.27,-2.23 l 0.17,-6.16 z" id="path4203"/>
        <path style="fill:#010202" d="m 733.84,350.08 3.5,0 -0.13,3.49 0.08,0 c 0.93,-1.31 2.07,-2.32 3.41,-3.04 1.33,-0.71 2.67,-1.07 3.98,-1.07 1.25,0 2.3,0.15 3.15,0.46 0.85,0.31 1.53,0.75 2.06,1.33 0.52,0.59 0.89,1.29 1.11,2.1 0.22,0.82 0.33,1.72 0.33,2.71 0,0.84 -0.01,1.68 -0.02,2.49 -0.01,0.82 -0.03,1.64 -0.03,2.49 l -0.08,10.8 -3.5,0 0.09,-9.79 c 0,-0.96 0.01,-1.93 0.02,-2.9 0.01,-0.98 0.02,-2.01 0.02,-3.08 0,-1.19 -0.36,-2.07 -1.07,-2.62 -0.71,-0.56 -1.68,-0.83 -2.9,-0.83 -1.14,0 -2.23,0.33 -3.28,0.98 -1.05,0.65 -2.13,1.67 -3.23,3.04 l -0.18,15.21 -3.5,0 0.17,-21.77 z" id="path4205"/>
        <path style="fill:#010202" d="m 758.14,350.08 3.5,0 -0.14,3.49 0.09,0 c 0.93,-1.31 2.07,-2.32 3.41,-3.04 1.34,-0.71 2.67,-1.07 3.98,-1.07 1.25,0 2.3,0.15 3.15,0.46 0.84,0.31 1.53,0.75 2.05,1.33 0.53,0.59 0.9,1.29 1.12,2.1 0.21,0.82 0.32,1.72 0.32,2.71 0,0.84 0,1.68 -0.02,2.49 -0.02,0.82 -0.02,1.64 -0.02,2.49 l -0.08,10.8 -3.5,0 0.09,-9.79 c 0,-0.96 0,-1.93 0.02,-2.9 0.02,-0.98 0.02,-2.01 0.02,-3.08 0,-1.19 -0.36,-2.07 -1.07,-2.62 -0.72,-0.56 -1.69,-0.83 -2.91,-0.83 -1.14,0 -2.23,0.33 -3.27,0.98 -1.05,0.65 -2.13,1.67 -3.23,3.04 l -0.18,15.21 -3.49,0 0.16,-21.77 z" id="path4207"/>
        <path style="fill:#010202" d="m 783.67,350.08 0.09,-8.05 3.49,0 -0.09,8.05 5.95,0 0,2.62 -5.99,0 -0.08,8.92 c -0.03,1.22 -0.04,2.26 -0.04,3.1 l 0,2.06 c 0,0.91 0.14,1.59 0.43,2.08 0.29,0.48 0.82,0.72 1.58,0.72 0.58,0 1.21,-0.15 1.88,-0.44 0.67,-0.29 1.21,-0.57 1.62,-0.83 l 1.14,2.27 c -0.73,0.5 -1.59,0.94 -2.56,1.32 -0.97,0.38 -1.95,0.57 -2.9,0.57 -1.7,0 -2.89,-0.49 -3.61,-1.47 -0.71,-0.97 -1.07,-2.34 -1.07,-4.08 l 0,-2.54 c 0,-0.96 0.01,-2.2 0.04,-3.71 l 0.09,-7.96 -3.71,0 0,-2.62 3.74,0 z" id="path4209"/>
        <path style="fill:#010202" d="m 799.02,360.48 0,0.74 c 0,1.14 0.11,2.22 0.32,3.26 0.22,1.04 0.58,1.96 1.07,2.75 0.49,0.8 1.14,1.44 1.92,1.9 0.79,0.47 1.74,0.7 2.85,0.7 1.25,0 2.37,-0.32 3.34,-0.94 0.98,-0.63 1.93,-1.36 2.87,-2.2 l 1.7,1.88 c -1.11,1.11 -2.37,2.03 -3.76,2.78 -1.4,0.74 -2.91,1.11 -4.54,1.11 -3.03,0 -5.38,-1.01 -7.04,-3.06 -1.66,-2.04 -2.49,-4.85 -2.49,-8.44 0,-1.49 0.24,-2.93 0.74,-4.31 0.49,-1.38 1.18,-2.61 2.06,-3.67 0.88,-1.06 1.93,-1.92 3.15,-2.56 1.23,-0.64 2.57,-0.96 4.02,-0.96 1.46,0 2.72,0.27 3.79,0.78 1.06,0.53 1.93,1.25 2.62,2.17 0.69,0.92 1.19,2.01 1.51,3.28 0.32,1.26 0.47,2.62 0.47,4.08 l 0,0.69 -14.6,0 z m 11.1,-2.36 c 0,-0.78 -0.08,-1.54 -0.26,-2.25 -0.17,-0.72 -0.45,-1.35 -0.83,-1.92 -0.38,-0.56 -0.88,-1.02 -1.51,-1.36 -0.63,-0.33 -1.38,-0.5 -2.25,-0.5 -0.82,0 -1.56,0.18 -2.23,0.53 -0.67,0.34 -1.26,0.8 -1.77,1.37 -0.51,0.57 -0.93,1.22 -1.25,1.95 -0.32,0.73 -0.55,1.46 -0.69,2.19 l 10.79,0 z" id="path4211"/>
        <polygon style="fill:#010202" points="819.7,367.65 824.42,367.65 821.14,378.15 819.44,378.15 " id="polygon4213"/>
        <path style="fill:#010202" d="m 843.13,350.08 3.49,0 0,2.93 0.09,0 c 0.59,-0.93 1.47,-1.75 2.67,-2.47 1.2,-0.71 2.57,-1.07 4.12,-1.07 0.93,0 1.91,0.19 2.93,0.57 1.02,0.38 1.96,1.01 2.82,1.9 0.86,0.89 1.58,2.06 2.15,3.52 0.57,1.46 0.85,3.25 0.85,5.38 0,1.46 -0.23,2.89 -0.69,4.28 -0.47,1.4 -1.13,2.65 -1.97,3.74 -0.85,1.09 -1.86,1.96 -3.02,2.62 -1.16,0.66 -2.45,0.98 -3.85,0.98 -1.46,0 -2.71,-0.28 -3.76,-0.85 -1.05,-0.57 -1.86,-1.23 -2.4,-1.99 l -0.09,0 -0.08,13.24 -3.5,0 0.24,-32.78 z m 3.36,16 c 1.52,2.33 3.34,3.5 5.47,3.5 0.96,0 1.84,-0.25 2.64,-0.74 0.8,-0.5 1.49,-1.15 2.06,-1.95 0.57,-0.79 1.01,-1.71 1.33,-2.75 0.32,-1.04 0.48,-2.09 0.48,-3.17 0,-1.49 -0.16,-2.77 -0.48,-3.85 -0.32,-1.08 -0.74,-1.97 -1.27,-2.67 -0.53,-0.69 -1.14,-1.23 -1.83,-1.57 -0.71,-0.35 -1.43,-0.53 -2.19,-0.53 -0.7,0 -1.37,0.12 -1.99,0.37 -0.63,0.25 -1.2,0.57 -1.73,0.96 -0.53,0.4 -0.99,0.83 -1.4,1.29 -0.41,0.47 -0.74,0.94 -1,1.4 l -0.09,9.71 z" id="path4215"/>
        <path style="fill:#010202" d="m 867.48,350.08 3.59,0 -0.04,4.24 0.09,0.09 c 0.18,-0.49 0.45,-1.02 0.81,-1.59 0.37,-0.57 0.8,-1.1 1.31,-1.6 0.51,-0.49 1.1,-0.91 1.75,-1.25 0.65,-0.33 1.38,-0.5 2.16,-0.5 0.7,0 1.33,0.1 1.88,0.31 l -1.05,3.32 c -0.18,-0.05 -0.39,-0.11 -0.64,-0.15 -0.25,-0.04 -0.49,-0.06 -0.72,-0.06 -0.35,0 -0.76,0.08 -1.22,0.24 -0.46,0.16 -0.95,0.42 -1.44,0.78 -0.5,0.37 -1,0.85 -1.51,1.45 -0.51,0.6 -1,1.33 -1.46,2.2 l -0.18,14.29 -3.49,0 0.16,-21.77 z" id="path4217"/>
        <path style="fill:#010202" d="m 881.51,341.6 3.77,0 0,3.94 -3.77,0 0,-3.94 z m 0.18,8.48 3.5,0 -0.18,21.77 -3.5,0 0.18,-21.77 z" id="path4219"/>
        <polygon style="fill:#010202" points="909.28,350.52 900.49,371.85 897.08,371.85 889.08,350.43 892.7,349.46 898.87,367.65 898.96,367.65 905.78,349.46 " id="polygon4221"/>
        <path style="fill:#010202" d="m 932.01,370.89 c -0.61,0.5 -1.26,0.88 -1.93,1.15 -0.67,0.28 -1.38,0.42 -2.14,0.42 -0.99,0 -1.76,-0.37 -2.3,-1.11 -0.54,-0.74 -0.85,-1.58 -0.94,-2.51 -0.85,1.02 -1.8,1.88 -2.86,2.57 -1.06,0.7 -2.29,1.05 -3.69,1.05 -1.92,0 -3.45,-0.59 -4.59,-1.77 -1.14,-1.17 -1.7,-2.69 -1.7,-4.52 0,-1.55 0.43,-2.81 1.31,-3.81 0.88,-0.99 1.96,-1.77 3.26,-2.34 1.3,-0.57 2.68,-0.96 4.16,-1.2 1.47,-0.23 2.8,-0.38 4,-0.44 0.03,-0.46 0.05,-0.92 0.07,-1.37 0.01,-0.46 0.02,-0.91 0.02,-1.38 0,-0.93 -0.26,-1.71 -0.79,-2.34 -0.52,-0.62 -1.37,-0.94 -2.54,-0.94 -0.44,0 -0.86,0.04 -1.27,0.13 -0.41,0.09 -0.85,0.25 -1.33,0.48 -0.48,0.23 -1.02,0.54 -1.61,0.92 -0.6,0.38 -1.29,0.88 -2.08,1.49 l -1.44,-2.27 c 1.08,-0.7 2.01,-1.28 2.78,-1.75 0.77,-0.47 1.48,-0.84 2.14,-1.12 0.66,-0.27 1.29,-0.47 1.9,-0.59 0.61,-0.12 1.31,-0.18 2.1,-0.18 1.83,0 3.21,0.49 4.11,1.49 0.91,0.99 1.36,2.33 1.36,4.02 0,2.07 -0.06,4.06 -0.18,5.99 -0.12,1.93 -0.17,3.85 -0.17,5.77 0,0.78 0.09,1.5 0.28,2.14 0.19,0.64 0.62,0.96 1.29,0.96 0.38,0 0.71,-0.07 0.99,-0.22 0.27,-0.15 0.56,-0.32 0.85,-0.53 l 0.94,1.81 z m -7.43,-10.41 c -1.52,0.21 -2.85,0.44 -4,0.7 -1.15,0.27 -2.11,0.61 -2.89,1.03 -0.78,0.42 -1.36,0.95 -1.75,1.57 -0.39,0.63 -0.59,1.41 -0.59,2.34 0,1.22 0.34,2.15 1.03,2.77 0.68,0.63 1.64,0.94 2.86,0.94 1.08,0 2.04,-0.32 2.89,-0.96 0.85,-0.64 1.61,-1.38 2.27,-2.23 l 0.18,-6.16 z" id="path4223"/>
        <path style="fill:#010202" d="m 936.69,350.08 0.08,-8.05 3.5,0 -0.09,8.05 5.95,0 0,2.62 -6,0 -0.09,8.92 c -0.03,1.22 -0.04,2.26 -0.04,3.1 l 0,2.06 c 0,0.91 0.14,1.59 0.44,2.08 0.3,0.48 0.82,0.72 1.57,0.72 0.59,0 1.21,-0.15 1.88,-0.44 0.67,-0.29 1.21,-0.57 1.62,-0.83 l 1.14,2.27 c -0.73,0.5 -1.58,0.94 -2.56,1.32 -0.97,0.38 -1.94,0.57 -2.9,0.57 -1.69,0 -2.89,-0.49 -3.61,-1.47 -0.71,-0.97 -1.07,-2.34 -1.07,-4.08 l 0,-2.54 c 0,-0.96 0.01,-2.2 0.04,-3.71 l 0.09,-7.96 -3.71,0 0,-2.62 3.76,0 z" id="path4225"/>
        <path style="fill:#010202" d="m 952.03,360.48 0,0.74 c 0,1.14 0.11,2.22 0.33,3.26 0.22,1.04 0.57,1.96 1.07,2.75 0.5,0.8 1.14,1.44 1.93,1.9 0.79,0.47 1.74,0.7 2.84,0.7 1.25,0 2.36,-0.32 3.34,-0.94 0.98,-0.63 1.93,-1.36 2.87,-2.2 l 1.71,1.88 c -1.11,1.11 -2.36,2.03 -3.76,2.78 -1.4,0.74 -2.92,1.11 -4.54,1.11 -3.03,0 -5.37,-1.01 -7.04,-3.06 -1.66,-2.04 -2.49,-4.85 -2.49,-8.44 0,-1.49 0.25,-2.93 0.75,-4.31 0.5,-1.38 1.18,-2.61 2.06,-3.67 0.88,-1.06 1.92,-1.92 3.15,-2.56 1.22,-0.64 2.57,-0.96 4.02,-0.96 1.45,0 2.71,0.27 3.78,0.78 1.06,0.53 1.94,1.25 2.63,2.17 0.69,0.92 1.19,2.01 1.5,3.28 0.33,1.26 0.48,2.62 0.48,4.08 l 0,0.69 -14.63,0 z m 11.11,-2.36 c 0,-0.78 -0.09,-1.54 -0.26,-2.25 -0.18,-0.72 -0.46,-1.35 -0.83,-1.92 -0.38,-0.56 -0.88,-1.02 -1.51,-1.36 -0.63,-0.33 -1.38,-0.5 -2.25,-0.5 -0.82,0 -1.56,0.18 -2.23,0.53 -0.67,0.34 -1.26,0.8 -1.77,1.37 -0.51,0.57 -0.93,1.22 -1.25,1.95 -0.32,0.73 -0.55,1.46 -0.7,2.19 l 10.8,0 z" id="path4227"/>
        <polygon style="fill:#010202" points="459.71,421.1 443.98,421.1 443.92,439.38 435.77,439.38 436.21,396.34 460.03,396.34 459.96,403.19 444.17,403.19 444.1,414.26 459.78,414.26 " id="polygon4229"/>
        <path style="fill:#010202" d="m 465.5,413.51 c 1.7,-1.41 3.21,-2.53 4.54,-3.36 1.33,-0.82 2.52,-1.46 3.61,-1.89 1.07,-0.44 2.06,-0.73 2.95,-0.87 0.89,-0.15 1.75,-0.22 2.58,-0.22 1.16,0 2.28,0.19 3.36,0.56 1.08,0.38 2.03,0.94 2.86,1.69 0.83,0.74 1.49,1.67 1.99,2.8 0.5,1.12 0.75,2.44 0.75,3.98 l 0,1.43 c 0,0.37 -0.02,0.77 -0.06,1.18 l -0.25,9.02 c -0.04,0.7 -0.07,1.37 -0.09,1.99 -0.02,0.62 -0.03,1.27 -0.03,1.93 0,0.87 0.18,1.59 0.53,2.15 0.35,0.56 0.73,0.84 1.15,0.84 0.21,0 0.47,-0.05 0.78,-0.16 0.31,-0.1 0.8,-0.32 1.46,-0.65 l 1.81,3.8 c -1.66,1.08 -2.99,1.77 -3.98,2.08 -1,0.31 -1.85,0.47 -2.55,0.47 -1.33,0 -2.48,-0.37 -3.48,-1.09 -1,-0.73 -1.64,-1.75 -1.93,-3.08 -1.11,1.33 -2.36,2.35 -3.73,3.08 -1.37,0.73 -2.8,1.09 -4.29,1.09 -2.83,0 -5.09,-0.82 -6.82,-2.46 -1.72,-1.64 -2.58,-3.87 -2.58,-6.69 0,-1.24 0.24,-2.45 0.72,-3.6 0.47,-1.16 1.34,-2.24 2.58,-3.24 1.24,-0.99 2.95,-1.89 5.14,-2.71 2.17,-0.8 4.96,-1.51 8.36,-2.08 l 0,-2.06 c 0,-1.74 -0.33,-2.87 -1,-3.38 -0.66,-0.52 -1.53,-0.78 -2.61,-0.78 -0.37,0 -0.79,0.05 -1.24,0.16 -0.46,0.1 -1,0.31 -1.62,0.63 -0.62,0.31 -1.37,0.74 -2.24,1.3 -0.87,0.56 -1.89,1.3 -3.05,2.21 l -3.62,-4.07 z m 15.3,10.82 c -1.83,0.42 -3.34,0.84 -4.54,1.27 -1.2,0.44 -2.18,0.92 -2.93,1.43 -0.74,0.51 -1.27,1.09 -1.58,1.71 -0.31,0.62 -0.47,1.33 -0.47,2.11 0,1.16 0.37,2.06 1.09,2.7 0.73,0.65 1.69,0.97 2.89,0.97 0.79,0 1.66,-0.25 2.62,-0.75 0.95,-0.5 1.88,-1.22 2.8,-2.17 l 0.12,-7.27 z" id="path4231"/>
        <path style="fill:#010202" d="m 520.86,434.29 c -1.53,1.86 -3.25,3.33 -5.13,4.38 -1.88,1.05 -4.08,1.59 -6.56,1.59 -2.24,0 -4.21,-0.48 -5.91,-1.43 -1.7,-0.96 -3.12,-2.2 -4.26,-3.73 -1.14,-1.53 -2,-3.25 -2.58,-5.16 -0.58,-1.91 -0.88,-3.82 -0.88,-5.73 0,-2.15 0.33,-4.26 1,-6.31 0.66,-2.06 1.63,-3.87 2.9,-5.44 1.26,-1.57 2.8,-2.85 4.64,-3.83 1.82,-0.97 3.9,-1.46 6.22,-1.46 2.32,0 4.37,0.49 6.15,1.46 1.79,0.98 3.38,2.25 4.79,3.83 l -4.29,4.17 c -0.95,-0.79 -1.92,-1.48 -2.89,-2.09 -0.97,-0.6 -2.13,-0.9 -3.45,-0.9 -1.2,0 -2.24,0.29 -3.11,0.87 -0.87,0.58 -1.61,1.33 -2.21,2.27 -0.6,0.93 -1.05,1.99 -1.33,3.17 -0.29,1.18 -0.43,2.37 -0.43,3.57 0,3.32 0.64,5.86 1.93,7.62 1.28,1.76 2.88,2.65 4.79,2.65 1.41,0 2.61,-0.36 3.61,-1.06 0.99,-0.7 1.92,-1.52 2.8,-2.43 l 4.2,3.99 z" id="path4233"/>
        <path style="fill:#010202" d="m 525.27,392.74 7.59,0 -0.13,19.09 0.13,0 c 1.2,-1.37 2.66,-2.49 4.38,-3.36 1.72,-0.87 3.64,-1.31 5.75,-1.31 1.66,0 3.03,0.27 4.11,0.81 1.07,0.54 1.92,1.24 2.55,2.11 0.62,0.87 1.06,1.88 1.31,3.02 0.25,1.14 0.37,2.31 0.37,3.51 0,1.58 -0.01,2.89 -0.03,3.95 -0.02,1.06 -0.03,2.08 -0.03,3.08 l -0.19,15.74 -7.59,0 0.06,-7.84 c 0,-1.2 0.01,-2.45 0.03,-3.76 0.02,-1.3 0.05,-2.56 0.06,-3.76 0.02,-1.2 0.03,-2.3 0.03,-3.29 l 0,-2.49 c 0,-1.2 -0.29,-2.21 -0.87,-3.02 -0.58,-0.81 -1.66,-1.21 -3.23,-1.21 -0.58,0 -1.18,0.12 -1.81,0.37 -0.62,0.25 -1.22,0.58 -1.8,0.96 -0.58,0.4 -1.15,0.84 -1.71,1.34 -0.56,0.49 -1.09,0.97 -1.59,1.43 l -0.13,21.27 -7.58,0 0.32,-46.64 z" id="path4235"/>
        <path style="fill:#010202" d="m 559.86,392.74 7.58,0 -0.12,19.09 0.12,0 c 1.21,-1.37 2.67,-2.49 4.39,-3.36 1.72,-0.87 3.64,-1.31 5.75,-1.31 1.66,0 3.03,0.27 4.11,0.81 1.08,0.54 1.93,1.24 2.55,2.11 0.62,0.87 1.06,1.88 1.31,3.02 0.25,1.14 0.37,2.31 0.37,3.51 0,1.58 -0.01,2.89 -0.03,3.95 -0.02,1.06 -0.03,2.08 -0.03,3.08 l -0.19,15.74 -7.59,0 0.06,-7.84 c 0,-1.2 0.01,-2.45 0.03,-3.76 0.02,-1.3 0.04,-2.56 0.07,-3.76 0.02,-1.2 0.03,-2.3 0.03,-3.29 l 0,-2.49 c 0,-1.2 -0.29,-2.21 -0.87,-3.02 -0.58,-0.81 -1.65,-1.21 -3.23,-1.21 -0.58,0 -1.18,0.12 -1.8,0.37 -0.62,0.25 -1.22,0.58 -1.8,0.96 -0.58,0.4 -1.15,0.84 -1.71,1.34 -0.56,0.49 -1.09,0.97 -1.59,1.43 l -0.12,21.27 -7.59,0 0.3,-46.64 z" id="path4237"/>
        <path style="fill:#010202" d="m 592.33,423.71 c 0,-2.07 0.35,-4.09 1.06,-6.06 0.7,-1.97 1.7,-3.73 2.98,-5.29 1.29,-1.55 2.86,-2.81 4.7,-3.76 1.84,-0.95 3.93,-1.43 6.25,-1.43 2.49,0 4.67,0.43 6.53,1.28 1.87,0.85 3.43,2.02 4.69,3.51 1.27,1.5 2.21,3.25 2.83,5.26 0.63,2.01 0.94,4.17 0.94,6.5 0,2.24 -0.34,4.35 -1.03,6.34 -0.69,1.99 -1.66,3.75 -2.92,5.26 -1.27,1.52 -2.83,2.72 -4.7,3.61 -1.87,0.89 -3.98,1.34 -6.34,1.34 -2.57,0 -4.79,-0.45 -6.65,-1.34 -1.87,-0.89 -3.42,-2.09 -4.67,-3.61 -1.24,-1.51 -2.17,-3.26 -2.77,-5.26 -0.6,-2 -0.9,-4.11 -0.9,-6.35 m 7.59,0.25 c 0,0.96 0.12,2.02 0.37,3.21 0.25,1.18 0.65,2.29 1.22,3.33 0.56,1.03 1.31,1.9 2.27,2.61 0.95,0.71 2.13,1.06 3.54,1.06 1.36,0 2.52,-0.33 3.45,-1 0.93,-0.66 1.7,-1.49 2.3,-2.48 0.59,-1 1.03,-2.1 1.28,-3.3 0.25,-1.2 0.38,-2.34 0.38,-3.42 0,-3.27 -0.59,-5.88 -1.77,-7.81 -1.19,-1.93 -3.06,-2.89 -5.63,-2.89 -1.41,0 -2.59,0.35 -3.54,1.06 -0.96,0.71 -1.71,1.58 -2.27,2.64 -0.56,1.06 -0.96,2.22 -1.22,3.49 -0.26,1.25 -0.38,2.42 -0.38,3.5" id="path4239"/>
        <path style="fill:#010202" d="m 652.23,434.29 c -1.53,1.86 -3.25,3.33 -5.13,4.38 -1.89,1.05 -4.08,1.59 -6.56,1.59 -2.24,0 -4.21,-0.48 -5.91,-1.43 -1.7,-0.95 -3.12,-2.2 -4.26,-3.73 -1.14,-1.53 -2,-3.25 -2.58,-5.16 -0.58,-1.91 -0.87,-3.82 -0.87,-5.73 0,-2.15 0.33,-4.26 0.99,-6.31 0.66,-2.06 1.63,-3.87 2.89,-5.44 1.27,-1.57 2.81,-2.85 4.63,-3.83 1.83,-0.97 3.9,-1.46 6.22,-1.46 2.33,0 4.37,0.49 6.16,1.46 1.79,0.98 3.38,2.25 4.79,3.83 l -4.29,4.17 c -0.95,-0.79 -1.92,-1.48 -2.89,-2.09 -0.97,-0.6 -2.12,-0.9 -3.45,-0.9 -1.21,0 -2.24,0.29 -3.11,0.87 -0.87,0.58 -1.61,1.33 -2.21,2.27 -0.6,0.93 -1.05,1.99 -1.33,3.17 -0.29,1.18 -0.44,2.37 -0.44,3.57 0,3.32 0.64,5.86 1.92,7.62 1.29,1.76 2.89,2.65 4.79,2.65 1.41,0 2.62,-0.36 3.61,-1.06 1,-0.7 1.93,-1.52 2.8,-2.43 l 4.23,3.99 z" id="path4241"/>
        <path style="fill:#010202" d="m 656.64,392.74 7.59,0 -0.13,19.09 0.13,0 c 1.2,-1.37 2.67,-2.49 4.38,-3.36 1.72,-0.87 3.64,-1.31 5.75,-1.31 1.66,0 3.03,0.27 4.11,0.81 1.08,0.54 1.93,1.24 2.56,2.11 0.62,0.87 1.05,1.88 1.3,3.02 0.25,1.14 0.38,2.31 0.38,3.51 0,1.58 -0.01,2.89 -0.04,3.95 -0.02,1.06 -0.03,2.08 -0.03,3.08 l -0.19,15.74 -7.58,0 0.06,-7.84 c 0,-1.2 0.01,-2.45 0.03,-3.76 0.02,-1.3 0.04,-2.56 0.07,-3.76 0.02,-1.2 0.03,-2.3 0.03,-3.29 l 0,-2.49 c 0,-1.2 -0.29,-2.21 -0.87,-3.02 -0.59,-0.81 -1.66,-1.21 -3.24,-1.21 -0.58,0 -1.18,0.12 -1.8,0.37 -0.62,0.25 -1.22,0.58 -1.8,0.96 -0.58,0.4 -1.15,0.84 -1.71,1.34 -0.56,0.49 -1.09,0.97 -1.59,1.43 l -0.12,21.27 -7.59,0 0.3,-46.64 z" id="path4243"/>
        <path style="fill:#010202" d="m 692.1,431.92 c 1.21,0.71 2.45,1.32 3.73,1.84 1.29,0.51 2.66,0.78 4.11,0.78 1.16,0 2.18,-0.29 3.05,-0.87 0.87,-0.59 1.3,-1.51 1.3,-2.8 0,-1.04 -0.36,-1.81 -1.09,-2.33 -0.73,-0.52 -1.63,-0.94 -2.71,-1.28 -1.08,-0.33 -2.25,-0.68 -3.51,-1.02 -1.27,-0.36 -2.44,-0.87 -3.52,-1.55 -1.07,-0.69 -1.98,-1.63 -2.71,-2.83 -0.73,-1.2 -1.09,-2.86 -1.09,-4.98 0,-1.61 0.33,-3.02 0.96,-4.23 0.64,-1.2 1.5,-2.21 2.55,-3.01 1.05,-0.81 2.29,-1.42 3.67,-1.84 1.39,-0.41 2.85,-0.62 4.39,-0.62 1.82,0 3.7,0.27 5.63,0.81 1.93,0.54 3.6,1.41 5.01,2.61 l -3.24,4.8 c -0.91,-0.71 -2,-1.3 -3.26,-1.78 -1.26,-0.48 -2.48,-0.71 -3.64,-0.71 -0.54,0 -1.1,0.07 -1.68,0.22 -0.58,0.14 -1.1,0.37 -1.55,0.68 -0.46,0.32 -0.84,0.71 -1.15,1.19 -0.31,0.48 -0.46,1.03 -0.46,1.65 0,0.99 0.37,1.76 1.12,2.3 0.75,0.54 1.67,0.99 2.77,1.37 1.1,0.38 2.3,0.75 3.61,1.12 1.31,0.37 2.51,0.9 3.61,1.58 1.1,0.68 2.02,1.59 2.77,2.71 0.74,1.12 1.12,2.64 1.12,4.54 0,1.7 -0.33,3.17 -1,4.42 -0.67,1.25 -1.55,2.28 -2.65,3.12 -1.1,0.83 -2.35,1.45 -3.76,1.86 -1.41,0.42 -2.88,0.62 -4.42,0.62 -1.9,0 -3.77,-0.26 -5.6,-0.78 -1.83,-0.51 -3.55,-1.25 -5.16,-2.21 l 2.8,-5.38 z" id="path4245"/>
        <path style="fill:#010202" d="m 741.98,434.29 c -1.53,1.86 -3.24,3.33 -5.13,4.38 -1.88,1.05 -4.07,1.59 -6.56,1.59 -2.25,0 -4.21,-0.48 -5.92,-1.43 -1.7,-0.96 -3.12,-2.2 -4.26,-3.73 -1.15,-1.53 -2,-3.25 -2.58,-5.16 -0.58,-1.91 -0.87,-3.82 -0.87,-5.73 0,-2.15 0.33,-4.26 0.99,-6.31 0.67,-2.06 1.63,-3.87 2.89,-5.44 1.27,-1.57 2.81,-2.85 4.63,-3.83 1.83,-0.97 3.9,-1.46 6.22,-1.46 2.32,0 4.37,0.49 6.16,1.46 1.78,0.98 3.38,2.25 4.79,3.83 l -4.29,4.17 c -0.96,-0.79 -1.92,-1.48 -2.89,-2.09 -0.97,-0.6 -2.13,-0.9 -3.45,-0.9 -1.2,0 -2.24,0.29 -3.11,0.87 -0.87,0.58 -1.61,1.33 -2.21,2.27 -0.6,0.93 -1.05,1.99 -1.34,3.17 -0.29,1.18 -0.43,2.37 -0.43,3.57 0,3.32 0.64,5.86 1.93,7.62 1.28,1.76 2.88,2.65 4.79,2.65 1.41,0 2.61,-0.36 3.61,-1.06 0.99,-0.7 1.93,-1.52 2.79,-2.43 l 4.24,3.99 z" id="path4247"/>
        <path style="fill:#010202" d="m 746.4,392.74 7.59,0 -0.12,19.09 0.12,0 c 1.2,-1.37 2.66,-2.49 4.39,-3.36 1.72,-0.87 3.63,-1.31 5.75,-1.31 1.66,0 3.03,0.27 4.1,0.81 1.08,0.54 1.93,1.24 2.55,2.11 0.62,0.87 1.06,1.88 1.31,3.02 0.24,1.14 0.37,2.31 0.37,3.51 0,1.58 -0.01,2.89 -0.03,3.95 -0.02,1.06 -0.03,2.08 -0.03,3.08 l -0.18,15.74 -7.59,0 0.06,-7.84 c 0,-1.2 0.01,-2.45 0.03,-3.76 0.02,-1.3 0.04,-2.56 0.06,-3.76 0.02,-1.2 0.04,-2.3 0.04,-3.29 l 0,-2.49 c 0,-1.2 -0.29,-2.21 -0.88,-3.02 -0.58,-0.81 -1.66,-1.21 -3.23,-1.21 -0.59,0 -1.18,0.12 -1.8,0.37 -0.62,0.25 -1.22,0.58 -1.8,0.96 -0.58,0.4 -1.15,0.84 -1.71,1.34 -0.56,0.49 -1.09,0.97 -1.59,1.43 l -0.13,21.27 -7.59,0 0.31,-46.64 z" id="path4249"/>
        <path style="fill:#010202" d="m 806.87,439.38 -7.59,0 0,-3.8 -0.12,0 c -1.2,1.38 -2.65,2.49 -4.32,3.36 -1.68,0.87 -3.47,1.3 -5.38,1.3 -1.74,0 -3.17,-0.27 -4.29,-0.81 -1.12,-0.54 -2,-1.29 -2.65,-2.24 -0.64,-0.95 -1.1,-2.07 -1.37,-3.36 -0.27,-1.29 -0.4,-2.7 -0.4,-4.23 0,-0.96 0.01,-1.91 0.03,-2.89 0.02,-0.97 0.03,-1.96 0.03,-2.95 l 0.18,-15.74 7.6,0 -0.07,7.84 c -0.04,2.28 -0.07,4.47 -0.09,6.59 -0.02,2.11 -0.03,4.04 -0.03,5.78 0,1.87 0.28,3.2 0.87,3.99 0.58,0.78 1.65,1.18 3.23,1.18 0.59,0 1.19,-0.13 1.8,-0.37 0.62,-0.25 1.23,-0.58 1.81,-0.96 0.58,-0.4 1.15,-0.84 1.71,-1.34 0.55,-0.49 1.09,-0.97 1.58,-1.43 l 0.13,-21.27 7.58,0 -0.24,31.35 z" id="path4251"/>
        <polygon style="fill:#010202" points="816.19,392.74 823.79,392.74 823.41,439.38 815.82,439.38 " id="polygon4253"/>
        <path style="fill:#010202" d="m 838.34,424.65 c 0,1.07 0.14,2.17 0.41,3.29 0.27,1.12 0.69,2.15 1.27,3.08 0.58,0.94 1.32,1.7 2.21,2.27 0.89,0.58 2,0.88 3.32,0.88 1.5,0 2.84,-0.42 4.05,-1.24 1.2,-0.83 2.28,-1.77 3.23,-2.8 l 4.36,3.98 c -1.66,1.86 -3.56,3.36 -5.69,4.47 -2.14,1.13 -4.49,1.69 -7.06,1.69 -1.99,0 -3.82,-0.4 -5.51,-1.18 -1.68,-0.79 -3.12,-1.9 -4.32,-3.33 -1.2,-1.43 -2.15,-3.16 -2.83,-5.19 -0.68,-2.03 -1.02,-4.27 -1.02,-6.72 0,-2.07 0.32,-4.12 0.96,-6.12 0.64,-2.01 1.56,-3.79 2.76,-5.35 1.21,-1.55 2.7,-2.8 4.48,-3.76 1.78,-0.95 3.81,-1.43 6.1,-1.43 4.39,0 7.65,1.55 9.77,4.64 2.12,3.09 3.17,7.37 3.17,12.85 l -19.66,0 z m 12.44,-5.36 c -0.04,-0.83 -0.18,-1.65 -0.4,-2.45 -0.23,-0.81 -0.57,-1.53 -1.03,-2.17 -0.46,-0.65 -1.04,-1.16 -1.74,-1.56 -0.71,-0.4 -1.56,-0.59 -2.55,-0.59 -0.87,0 -1.67,0.21 -2.4,0.63 -0.72,0.41 -1.36,0.95 -1.93,1.61 -0.55,0.66 -1.01,1.38 -1.36,2.17 -0.36,0.79 -0.57,1.58 -0.65,2.36 l 12.06,0 z" id="path4255"/>
        <path style="fill:#010202" d="m 900.17,435.96 -0.13,0 c -0.79,1.2 -1.88,2.21 -3.29,2.99 -1.41,0.78 -2.9,1.18 -4.48,1.18 -1.91,0 -3.67,-0.4 -5.29,-1.18 -1.62,-0.78 -3.01,-1.88 -4.17,-3.3 -1.16,-1.41 -2.07,-3.1 -2.71,-5.07 -0.65,-1.97 -0.96,-4.11 -0.96,-6.44 0,-2.11 0.3,-4.18 0.9,-6.19 0.59,-2.01 1.47,-3.81 2.61,-5.41 1.14,-1.6 2.56,-2.87 4.26,-3.82 1.7,-0.96 3.65,-1.43 5.84,-1.43 1.21,0 2.45,0.22 3.73,0.66 1.29,0.43 2.36,1.21 3.24,2.33 l 0.13,0 0.18,-17.54 7.59,0 -0.19,46.65 -7.27,0 0,-3.43 z m -0.44,-19.34 c -0.46,-0.67 -1.11,-1.31 -1.99,-1.93 -0.87,-0.63 -1.97,-0.94 -3.3,-0.94 -1.04,0 -2.02,0.24 -2.95,0.72 -0.93,0.48 -1.75,1.15 -2.46,2.02 -0.71,0.87 -1.27,1.92 -1.68,3.14 -0.42,1.23 -0.62,2.61 -0.62,4.14 0,1.45 0.19,2.78 0.56,3.98 0.38,1.21 0.89,2.25 1.56,3.11 0.66,0.87 1.46,1.56 2.39,2.06 0.94,0.5 1.94,0.74 3.02,0.74 0.58,0 1.17,-0.13 1.77,-0.4 0.6,-0.27 1.16,-0.62 1.68,-1.06 0.51,-0.43 0.95,-0.95 1.31,-1.55 0.35,-0.6 0.59,-1.23 0.71,-1.89 l 0,-12.14 z" id="path4257"/>
        <path style="fill:#010202" d="m 921.31,424.65 c 0,1.07 0.13,2.17 0.4,3.29 0.28,1.12 0.7,2.15 1.29,3.08 0.58,0.94 1.32,1.7 2.2,2.27 0.89,0.58 2,0.88 3.33,0.88 1.49,0 2.84,-0.42 4.04,-1.24 1.2,-0.83 2.28,-1.77 3.24,-2.8 l 4.35,3.98 c -1.66,1.86 -3.56,3.36 -5.69,4.47 -2.13,1.13 -4.49,1.69 -7.06,1.69 -1.99,0 -3.83,-0.4 -5.51,-1.18 -1.68,-0.79 -3.12,-1.9 -4.32,-3.33 -1.21,-1.43 -2.15,-3.16 -2.83,-5.19 -0.69,-2.03 -1.03,-4.27 -1.03,-6.72 0,-2.07 0.32,-4.12 0.96,-6.12 0.64,-2.01 1.56,-3.79 2.77,-5.35 1.2,-1.55 2.7,-2.8 4.48,-3.76 1.78,-0.95 3.81,-1.43 6.1,-1.43 4.4,0 7.65,1.55 9.77,4.64 2.12,3.09 3.17,7.37 3.17,12.85 l -19.66,0 z m 12.44,-5.36 c -0.04,-0.83 -0.18,-1.65 -0.41,-2.45 -0.22,-0.81 -0.57,-1.53 -1.02,-2.17 -0.46,-0.65 -1.04,-1.16 -1.75,-1.56 -0.7,-0.4 -1.55,-0.59 -2.54,-0.59 -0.87,0 -1.67,0.21 -2.39,0.63 -0.73,0.41 -1.37,0.95 -1.93,1.61 -0.56,0.66 -1.02,1.38 -1.37,2.17 -0.35,0.79 -0.57,1.58 -0.65,2.36 l 12.06,0 z" id="path4259"/>
        <path style="fill:#010202" d="m 947.81,431.92 c 1.2,0.71 2.44,1.32 3.73,1.84 1.29,0.51 2.66,0.78 4.11,0.78 1.16,0 2.17,-0.29 3.05,-0.87 0.87,-0.59 1.3,-1.51 1.3,-2.8 0,-1.04 -0.36,-1.81 -1.09,-2.33 -0.73,-0.52 -1.63,-0.94 -2.71,-1.28 -1.08,-0.33 -2.25,-0.68 -3.52,-1.02 -1.26,-0.36 -2.43,-0.87 -3.51,-1.55 -1.08,-0.69 -1.98,-1.63 -2.71,-2.83 -0.73,-1.2 -1.09,-2.86 -1.09,-4.98 0,-1.61 0.32,-3.02 0.96,-4.23 0.64,-1.2 1.49,-2.21 2.55,-3.01 1.06,-0.81 2.28,-1.42 3.67,-1.84 1.39,-0.41 2.85,-0.62 4.39,-0.62 1.82,0 3.7,0.27 5.63,0.81 1.93,0.54 3.6,1.41 5,2.61 l -3.23,4.8 c -0.91,-0.71 -2,-1.3 -3.26,-1.78 -1.27,-0.48 -2.48,-0.71 -3.64,-0.71 -0.54,0 -1.1,0.07 -1.68,0.22 -0.59,0.14 -1.1,0.37 -1.56,0.68 -0.46,0.32 -0.84,0.71 -1.15,1.19 -0.32,0.48 -0.47,1.03 -0.47,1.65 0,0.99 0.37,1.76 1.12,2.3 0.75,0.54 1.66,0.99 2.77,1.37 1.1,0.37 2.3,0.75 3.61,1.12 1.31,0.37 2.51,0.9 3.61,1.58 1.1,0.68 2.02,1.59 2.77,2.71 0.75,1.12 1.12,2.64 1.12,4.54 0,1.7 -0.33,3.17 -0.99,4.42 -0.67,1.24 -1.55,2.28 -2.64,3.12 -1.1,0.83 -2.35,1.45 -3.76,1.86 -1.41,0.42 -2.89,0.62 -4.42,0.62 -1.91,0 -3.77,-0.26 -5.6,-0.78 -1.83,-0.51 -3.54,-1.25 -5.16,-2.21 l 2.8,-5.38 z" id="path4261"/>
        <polygon style="fill:#010202" points="441.62,463.89 449.76,463.89 460.21,498.29 460.34,498.29 472.28,463.89 480.43,463.89 486.78,506.93 478.69,507.8 475.45,473.84 475.33,473.84 464.38,506.93 456.17,506.93 446.28,473.84 446.16,473.84 441.68,507.8 434.03,506.93 " id="polygon4263"/>
        <path style="fill:#010202" d="m 495.36,475.58 7.59,0 -0.31,31.35 -7.59,0 0.31,-31.35 z m 0.06,-11.69 7.59,0 -0.06,7.34 -7.59,0 0.06,-7.34 z" id="path4265"/>
        <path style="fill:#010202" d="m 529.44,505.19 -2.55,1.37 c -1,0.59 -1.92,0.94 -2.77,1.06 -0.85,0.12 -1.51,0.18 -1.96,0.18 -2.61,0 -4.69,-0.73 -6.22,-2.17 -1.54,-1.45 -2.3,-3.86 -2.3,-7.22 l 0,-1.37 0,-1.87 c 0,-0.7 0.01,-1.42 0.03,-2.15 0.02,-0.72 0.03,-1.44 0.03,-2.15 l 0.19,-9.58 -4.23,0 0,-5.73 4.23,0.13 0.25,-11.2 7.59,0 -0.25,11.2 6.97,-0.13 0,5.73 -6.97,0 -0.19,9.2 c -0.04,1.57 -0.06,3.07 -0.06,4.48 l 0,3.8 c 0,1.04 0.18,1.85 0.56,2.43 0.37,0.58 1.04,0.87 1.99,0.87 0.66,0 1.27,-0.16 1.83,-0.46 0.56,-0.32 1.11,-0.66 1.65,-1.03 l 2.18,4.61 z" id="path4267"/>
        <path style="fill:#010202" d="m 551.34,505.19 -2.55,1.37 c -1,0.59 -1.92,0.94 -2.77,1.06 -0.85,0.12 -1.51,0.18 -1.96,0.18 -2.61,0 -4.69,-0.73 -6.22,-2.17 -1.54,-1.45 -2.3,-3.86 -2.3,-7.22 l 0,-1.37 0,-1.87 c 0,-0.7 0.01,-1.42 0.03,-2.15 0.02,-0.72 0.03,-1.44 0.03,-2.15 l 0.19,-9.58 -4.23,0 0,-5.73 4.23,0.13 0.25,-11.2 7.59,0 -0.25,11.2 6.97,-0.13 0,5.73 -6.97,0 -0.19,9.2 c -0.04,1.57 -0.06,3.07 -0.06,4.48 l 0,3.8 c 0,1.04 0.18,1.85 0.56,2.43 0.37,0.58 1.04,0.87 1.99,0.87 0.66,0 1.27,-0.16 1.83,-0.46 0.56,-0.32 1.11,-0.66 1.65,-1.03 l 2.18,4.61 z" id="path4269"/>
        <path style="fill:#010202" d="m 562.04,492.19 c 0,1.08 0.13,2.17 0.4,3.29 0.27,1.12 0.69,2.15 1.28,3.08 0.58,0.93 1.32,1.69 2.21,2.27 0.9,0.58 2.01,0.87 3.34,0.87 1.49,0 2.84,-0.42 4.04,-1.25 1.2,-0.83 2.28,-1.76 3.24,-2.79 l 4.35,3.97 c -1.66,1.87 -3.55,3.37 -5.69,4.48 -2.14,1.12 -4.49,1.68 -7.06,1.68 -1.99,0 -3.83,-0.4 -5.51,-1.18 -1.68,-0.78 -3.12,-1.89 -4.32,-3.33 -1.2,-1.43 -2.14,-3.16 -2.83,-5.19 -0.68,-2.03 -1.02,-4.26 -1.02,-6.72 0,-2.07 0.32,-4.11 0.96,-6.12 0.64,-2.01 1.56,-3.8 2.76,-5.35 1.2,-1.56 2.7,-2.81 4.48,-3.76 1.79,-0.95 3.82,-1.43 6.1,-1.43 4.39,0 7.65,1.54 9.77,4.63 2.11,3.09 3.17,7.38 3.17,12.85 l -19.67,0 z m 12.44,-5.35 c -0.04,-0.83 -0.18,-1.65 -0.4,-2.46 -0.23,-0.8 -0.57,-1.53 -1.03,-2.17 -0.46,-0.64 -1.03,-1.16 -1.74,-1.56 -0.7,-0.39 -1.56,-0.59 -2.55,-0.59 -0.87,0 -1.67,0.21 -2.39,0.62 -0.73,0.42 -1.37,0.96 -1.93,1.62 -0.56,0.66 -1.02,1.38 -1.37,2.17 -0.35,0.79 -0.57,1.57 -0.65,2.37 l 12.06,0 z" id="path4271"/>
        <polygon style="fill:#010202" points="589.46,460.28 597.05,460.28 596.68,506.93 589.09,506.93 " id="polygon4273"/>
        <path style="fill:#010202" d="m 608.19,499.47 c 1.2,0.7 2.44,1.32 3.73,1.83 1.28,0.52 2.65,0.78 4.1,0.78 1.16,0 2.17,-0.29 3.05,-0.87 0.87,-0.58 1.31,-1.51 1.31,-2.8 0,-1.04 -0.37,-1.81 -1.09,-2.33 -0.73,-0.52 -1.63,-0.95 -2.71,-1.28 -1.08,-0.33 -2.25,-0.67 -3.52,-1.02 -1.26,-0.36 -2.43,-0.88 -3.51,-1.56 -1.08,-0.69 -1.98,-1.63 -2.71,-2.84 -0.73,-1.19 -1.09,-2.86 -1.09,-4.97 0,-1.61 0.32,-3.03 0.96,-4.23 0.64,-1.2 1.49,-2.21 2.55,-3.02 1.06,-0.81 2.28,-1.42 3.67,-1.83 1.39,-0.41 2.85,-0.62 4.38,-0.62 1.83,0 3.7,0.27 5.63,0.8 1.93,0.55 3.6,1.41 5,2.62 l -3.23,4.79 c -0.91,-0.7 -2,-1.3 -3.26,-1.77 -1.27,-0.47 -2.47,-0.72 -3.64,-0.72 -0.54,0 -1.1,0.08 -1.68,0.22 -0.59,0.15 -1.1,0.38 -1.56,0.69 -0.46,0.32 -0.84,0.71 -1.15,1.18 -0.32,0.48 -0.47,1.03 -0.47,1.65 0,0.99 0.37,1.76 1.12,2.3 0.74,0.54 1.67,0.99 2.77,1.37 1.1,0.37 2.3,0.75 3.61,1.12 1.31,0.38 2.51,0.9 3.6,1.58 1.1,0.69 2.02,1.59 2.77,2.71 0.75,1.12 1.12,2.64 1.12,4.54 0,1.7 -0.33,3.17 -0.99,4.41 -0.67,1.24 -1.55,2.28 -2.64,3.12 -1.1,0.83 -2.35,1.45 -3.76,1.86 -1.41,0.41 -2.88,0.63 -4.41,0.63 -1.91,0 -3.78,-0.27 -5.6,-0.78 -1.83,-0.52 -3.54,-1.25 -5.16,-2.21 l 2.81,-5.35 z" id="path4275"/>
        <path style="fill:#010202" d="m 652.79,505.19 -2.55,1.37 c -1,0.59 -1.92,0.94 -2.77,1.06 -0.85,0.12 -1.51,0.18 -1.96,0.18 -2.62,0 -4.69,-0.73 -6.22,-2.17 -1.53,-1.45 -2.3,-3.86 -2.3,-7.22 l 0,-1.37 0,-1.87 c 0,-0.7 0.01,-1.42 0.03,-2.15 0.02,-0.72 0.03,-1.44 0.03,-2.15 l 0.18,-9.58 -4.23,0 0,-5.73 4.23,0.13 0.25,-11.2 7.59,0 -0.25,11.2 6.96,-0.13 0,5.73 -6.96,0 -0.19,9.2 c -0.04,1.57 -0.06,3.07 -0.06,4.48 l 0,3.8 c 0,1.04 0.19,1.85 0.56,2.43 0.38,0.58 1.04,0.87 1.99,0.87 0.67,0 1.28,-0.16 1.84,-0.46 0.56,-0.32 1.11,-0.66 1.65,-1.03 l 2.18,4.61 z" id="path4277"/>
        <path style="fill:#010202" d="m 656.96,481.06 c 1.7,-1.4 3.21,-2.53 4.54,-3.35 1.33,-0.83 2.53,-1.47 3.6,-1.9 1.09,-0.44 2.07,-0.73 2.96,-0.87 0.89,-0.14 1.75,-0.22 2.58,-0.22 1.16,0 2.28,0.18 3.36,0.56 1.07,0.37 2.03,0.93 2.86,1.69 0.83,0.74 1.49,1.67 1.99,2.79 0.5,1.12 0.74,2.45 0.74,3.99 l 0,1.42 c 0,0.38 -0.02,0.78 -0.06,1.18 l -0.25,9.03 c -0.04,0.7 -0.07,1.36 -0.09,1.99 -0.03,0.62 -0.04,1.27 -0.04,1.93 0,0.87 0.18,1.58 0.53,2.14 0.35,0.56 0.74,0.84 1.15,0.84 0.21,0 0.46,-0.05 0.78,-0.15 0.31,-0.1 0.79,-0.32 1.46,-0.65 l 1.8,3.79 c -1.66,1.08 -2.99,1.78 -3.99,2.09 -1,0.31 -1.84,0.46 -2.55,0.46 -1.33,0 -2.49,-0.36 -3.49,-1.09 -0.99,-0.72 -1.64,-1.75 -1.93,-3.08 -1.13,1.33 -2.37,2.36 -3.73,3.08 -1.37,0.73 -2.8,1.09 -4.29,1.09 -2.82,0 -5.09,-0.82 -6.82,-2.45 -1.72,-1.64 -2.58,-3.87 -2.58,-6.69 0,-1.25 0.24,-2.44 0.71,-3.6 0.48,-1.16 1.34,-2.24 2.59,-3.24 1.24,-0.99 2.95,-1.89 5.13,-2.71 2.17,-0.8 4.96,-1.5 8.36,-2.08 l 0,-2.05 c 0,-1.74 -0.33,-2.88 -1,-3.39 -0.66,-0.52 -1.53,-0.78 -2.61,-0.78 -0.38,0 -0.79,0.04 -1.24,0.15 -0.46,0.1 -1,0.31 -1.62,0.62 -0.62,0.31 -1.37,0.75 -2.24,1.31 -0.88,0.56 -1.89,1.29 -3.05,2.2 l -3.56,-4.05 z m 15.29,10.82 c -1.83,0.41 -3.34,0.84 -4.54,1.28 -1.2,0.43 -2.18,0.92 -2.92,1.42 -0.75,0.52 -1.28,1.09 -1.59,1.71 -0.31,0.62 -0.47,1.33 -0.47,2.12 0,1.15 0.37,2.06 1.09,2.71 0.72,0.64 1.69,0.96 2.89,0.96 0.78,0 1.65,-0.25 2.61,-0.75 0.95,-0.5 1.88,-1.23 2.8,-2.18 l 0.13,-7.27 z" id="path4279"/>
        <path style="fill:#010202" d="m 689.11,475.58 7.46,0 0,3.8 0.12,0 c 1.2,-1.37 2.67,-2.49 4.39,-3.36 1.71,-0.87 3.63,-1.3 5.75,-1.3 1.66,0 3.03,0.27 4.11,0.8 1.07,0.55 1.93,1.25 2.55,2.12 0.62,0.87 1.06,1.88 1.3,3.02 0.25,1.14 0.37,2.31 0.37,3.51 0,1.58 -0.01,2.89 -0.03,3.95 -0.02,1.06 -0.04,2.08 -0.04,3.08 l -0.19,15.74 -7.58,0 0.06,-7.84 c 0.04,-2.45 0.07,-4.64 0.09,-6.6 0.02,-1.95 0.03,-3.85 0.03,-5.72 0,-1.95 -0.3,-3.31 -0.88,-4.08 -0.58,-0.77 -1.65,-1.15 -3.23,-1.15 -0.58,0 -1.18,0.13 -1.8,0.38 -0.62,0.24 -1.22,0.57 -1.8,0.97 -0.58,0.39 -1.15,0.84 -1.71,1.33 -0.56,0.5 -1.09,0.97 -1.59,1.43 l -0.12,21.27 -7.59,0 0.33,-31.35 z" id="path4281"/>
        <path style="fill:#010202" d="m 742.61,503.51 -0.13,0 c -0.79,1.2 -1.88,2.2 -3.3,2.98 -1.41,0.79 -2.9,1.18 -4.48,1.18 -1.91,0 -3.67,-0.39 -5.29,-1.18 -1.62,-0.78 -3.01,-1.88 -4.17,-3.29 -1.16,-1.42 -2.07,-3.1 -2.71,-5.07 -0.64,-1.97 -0.96,-4.12 -0.96,-6.43 0,-2.12 0.3,-4.18 0.9,-6.2 0.6,-2.01 1.47,-3.81 2.61,-5.41 1.14,-1.6 2.56,-2.87 4.26,-3.82 1.7,-0.96 3.64,-1.43 5.84,-1.43 1.2,0 2.44,0.22 3.73,0.66 1.29,0.43 2.36,1.21 3.23,2.33 l 0.13,0 0.18,-17.54 7.59,0 -0.19,46.66 -7.28,0 0,-3.44 z m -0.44,-19.34 c -0.46,-0.66 -1.12,-1.31 -1.99,-1.93 -0.88,-0.62 -1.97,-0.93 -3.3,-0.93 -1.04,0 -2.02,0.24 -2.95,0.71 -0.94,0.48 -1.76,1.15 -2.46,2.02 -0.7,0.87 -1.26,1.92 -1.68,3.14 -0.41,1.22 -0.62,2.6 -0.62,4.13 0,1.45 0.19,2.78 0.55,3.99 0.38,1.2 0.9,2.24 1.56,3.11 0.66,0.87 1.46,1.55 2.39,2.05 0.93,0.5 1.94,0.75 3.02,0.75 0.58,0 1.17,-0.14 1.77,-0.41 0.6,-0.27 1.16,-0.62 1.68,-1.05 0.52,-0.43 0.95,-0.96 1.3,-1.56 0.35,-0.6 0.59,-1.23 0.72,-1.89 l 0,-12.13 z" id="path4283"/>
        <path style="fill:#010202" d="m 759.15,499.47 c 1.2,0.7 2.44,1.32 3.73,1.83 1.28,0.52 2.65,0.78 4.1,0.78 1.16,0 2.17,-0.29 3.05,-0.87 0.87,-0.58 1.31,-1.51 1.31,-2.8 0,-1.04 -0.37,-1.81 -1.09,-2.33 -0.73,-0.52 -1.63,-0.95 -2.71,-1.28 -1.09,-0.33 -2.25,-0.67 -3.52,-1.02 -1.26,-0.36 -2.43,-0.88 -3.51,-1.56 -1.08,-0.69 -1.98,-1.63 -2.71,-2.84 -0.72,-1.19 -1.08,-2.86 -1.08,-4.97 0,-1.61 0.31,-3.03 0.96,-4.23 0.64,-1.2 1.48,-2.21 2.55,-3.02 1.06,-0.81 2.28,-1.42 3.67,-1.83 1.39,-0.41 2.85,-0.62 4.39,-0.62 1.82,0 3.7,0.27 5.63,0.8 1.93,0.55 3.6,1.41 5,2.62 l -3.23,4.79 c -0.91,-0.7 -2,-1.3 -3.27,-1.77 -1.26,-0.47 -2.47,-0.72 -3.64,-0.72 -0.54,0 -1.1,0.08 -1.67,0.22 -0.59,0.15 -1.1,0.38 -1.56,0.69 -0.46,0.32 -0.84,0.71 -1.14,1.18 -0.32,0.48 -0.47,1.03 -0.47,1.65 0,0.99 0.37,1.76 1.12,2.3 0.75,0.54 1.67,0.99 2.76,1.37 1.1,0.37 2.3,0.75 3.61,1.12 1.31,0.38 2.51,0.9 3.61,1.58 1.1,0.69 2.01,1.59 2.77,2.71 0.75,1.12 1.12,2.64 1.12,4.54 0,1.7 -0.33,3.17 -0.99,4.41 -0.67,1.24 -1.55,2.28 -2.64,3.12 -1.1,0.83 -2.35,1.45 -3.76,1.86 -1.41,0.41 -2.88,0.63 -4.41,0.63 -1.91,0 -3.78,-0.27 -5.6,-0.78 -1.83,-0.52 -3.54,-1.25 -5.16,-2.21 l 2.78,-5.35 z" id="path4285"/>
        <path style="fill:#010202" d="m 806.17,514.95 c -1.57,-1.78 -3.04,-3.67 -4.39,-5.66 -1.34,-1.99 -2.52,-4.07 -3.51,-6.24 -1,-2.18 -1.79,-4.43 -2.36,-6.75 -0.59,-2.32 -0.87,-4.68 -0.87,-7.09 0,-5.55 1.05,-10.58 3.14,-15.05 2.09,-4.48 5.03,-8.71 8.8,-12.7 l 4.91,4.23 c -1.58,1.75 -2.95,3.49 -4.13,5.23 -1.19,1.74 -2.19,3.54 -3.02,5.41 -0.83,1.87 -1.45,3.82 -1.87,5.88 -0.41,2.05 -0.63,4.26 -0.63,6.62 0,4.23 0.84,8.14 2.52,11.73 1.68,3.58 3.87,6.96 6.56,10.1 l -5.15,4.29 z" id="path4287"/>
        <polygon style="fill:#010202" points="842.5,488.64 826.77,488.64 826.7,506.93 818.55,506.93 818.99,463.89 842.81,463.89 842.75,470.73 826.95,470.73 826.89,481.8 842.57,481.8 " id="polygon4289"/>
        <polygon style="fill:#010202" points="877.02,463.89 885.11,463.89 884.73,506.93 876.65,506.93 876.9,488.27 857.93,488.27 857.68,506.93 849.65,506.93 850.02,463.89 858.05,463.89 857.93,481.43 876.9,481.43 " id="polygon4291"/>
        <polygon style="fill:#010202" points="900.4,463.89 908.56,463.89 919.01,498.29 919.13,498.29 931.07,463.89 939.22,463.89 945.57,506.93 937.48,507.8 934.25,473.84 934.12,473.84 923.17,506.93 914.96,506.93 905.08,473.84 904.95,473.84 900.47,507.8 892.82,506.93 " id="polygon4293"/>
        <path style="fill:#010202" d="m 950.48,510.72 c 1.53,-1.74 2.9,-3.48 4.1,-5.22 1.2,-1.74 2.22,-3.54 3.05,-5.41 0.82,-1.87 1.45,-3.83 1.87,-5.88 0.42,-2.05 0.62,-4.26 0.62,-6.63 0,-4.23 -0.84,-8.13 -2.52,-11.72 -1.68,-3.58 -3.86,-6.95 -6.56,-10.11 l 5.16,-4.29 c 1.53,1.79 2.98,3.67 4.35,5.67 1.37,1.99 2.55,4.07 3.55,6.25 1,2.18 1.78,4.43 2.36,6.75 0.58,2.32 0.87,4.68 0.87,7.09 0,5.55 -1.05,10.57 -3.14,15.05 -2.1,4.49 -5.03,8.72 -8.81,12.69 l -4.9,-4.24 z" id="path4295"/>
      </g>
      <g id="g4297"/>
      <g id="g4299"/>
      <g id="g4301"/>
      <g id="g4303"/>
      <g id="g4305"/>
      <g id="g4307"/>
    </g>
  </g>
</svg>