<?xml version="1.0" encoding="UTF-8" standalone="no"?>
<svg
   xmlns:dc="http://purl.org/dc/elements/1.1/"
   xmlns:cc="http://creativecommons.org/ns#"
   xmlns:rdf="http://www.w3.org/1999/02/22-rdf-syntax-ns#"
   xmlns:svg="http://www.w3.org/2000/svg"
   xmlns="http://www.w3.org/2000/svg"
   height="309.79001"
   width="1281.11"
   xml:space="preserve"
   viewBox="0 0 1281.11 309.79"
   y="0px"
   x="0px"
   id="Ebene_1"
   version="1.1"><metadata
   id="metadata49"><rdf:RDF><cc:Work
       rdf:about=""><dc:format>image/svg+xml</dc:format><dc:type
         rdf:resource="http://purl.org/dc/dcmitype/StillImage" /><dc:title></dc:title></cc:Work></rdf:RDF></metadata><defs
   id="defs47" />
<style
   id="style2"
   type="text/css">
	.st0{fill:#1D1D1B;}
</style>
<g
   transform="translate(-43.9,-27.96)"
   id="g20">
	<path
   style="fill:#1d1d1b"
   id="path4"
   d="M 57.52,165.35 H 43.9 V 31.37 h 80.8 V 43.48 H 57.52 v 46.36 h 62.45 v 12.11 H 57.52 Z"
   class="st0" />
	<path
   style="fill:#1d1d1b"
   id="path6"
   d="m 282.71,98.36 c 0,10.22 -1.77,19.62 -5.3,28.2 -3.53,8.58 -8.42,15.99 -14.67,22.23 -6.25,6.24 -13.62,11.13 -22.14,14.67 -8.52,3.53 -17.76,5.3 -27.72,5.3 -9.97,0 -19.21,-1.77 -27.72,-5.3 -8.52,-3.53 -15.9,-8.42 -22.14,-14.67 -6.24,-6.25 -11.14,-13.65 -14.67,-22.23 -3.53,-8.58 -5.3,-17.98 -5.3,-28.2 0,-10.22 1.77,-19.61 5.3,-28.2 3.53,-8.58 8.42,-15.99 14.67,-22.23 6.25,-6.24 13.62,-11.13 22.14,-14.67 8.52,-3.53 17.76,-5.3 27.72,-5.3 9.96,0 19.21,1.77 27.72,5.3 8.52,3.53 15.9,8.42 22.14,14.67 6.24,6.25 11.13,13.66 14.67,22.23 3.53,8.59 5.3,17.98 5.3,28.2 z m -14.38,0.1 c 0,-7.81 -1.26,-15.24 -3.78,-22.29 -2.53,-7.05 -6.18,-13.25 -10.98,-18.61 -4.8,-5.35 -10.63,-9.6 -17.5,-12.75 -6.88,-3.15 -14.6,-4.73 -23.18,-4.73 -8.58,0 -16.31,1.58 -23.18,4.73 -6.88,3.15 -12.71,7.4 -17.5,12.75 -4.8,5.35 -8.45,11.55 -10.98,18.61 -2.52,7.06 -3.78,14.49 -3.78,22.29 0,7.81 1.26,15.24 3.78,22.29 2.52,7.05 6.18,13.23 10.98,18.52 4.79,5.29 10.63,9.51 17.5,12.66 6.87,3.15 14.6,4.72 23.18,4.72 8.58,0 16.3,-1.57 23.18,-4.72 6.87,-3.15 12.71,-7.37 17.5,-12.66 4.79,-5.29 8.45,-11.46 10.98,-18.52 2.51,-7.05 3.78,-14.48 3.78,-22.29 z"
   class="st0" />
	<path
   style="fill:#1d1d1b"
   id="path8"
   d="m 360.48,168.76 c -10.09,0 -18.36,-1.74 -24.79,-5.2 -6.43,-3.47 -11.54,-7.85 -15.33,-13.15 -3.79,-5.3 -6.4,-11.07 -7.85,-17.31 -1.45,-6.24 -2.18,-12.14 -2.18,-17.69 V 31.37 h 13.62 v 82.5 c 0,5.43 0.63,10.69 1.89,15.8 1.26,5.11 3.31,9.65 6.15,13.62 2.84,3.97 6.59,7.19 11.26,9.65 4.67,2.46 10.41,3.69 17.22,3.69 6.81,0 12.55,-1.23 17.22,-3.69 4.67,-2.46 8.42,-5.68 11.26,-9.65 2.84,-3.97 4.89,-8.52 6.15,-13.62 1.26,-5.11 1.89,-10.38 1.89,-15.8 v -82.5 h 13.62 v 84.02 c 0,5.55 -0.73,11.45 -2.18,17.69 -1.45,6.24 -4.07,12.02 -7.85,17.31 -3.78,5.29 -8.93,9.68 -15.42,13.15 -6.48,3.48 -14.72,5.22 -24.68,5.22 z"
   class="st0" />
	<path
   style="fill:#1d1d1b"
   id="path10"
   d="m 540.44,145.48 h 0.38 V 31.37 h 13.62 V 165.35 H 537.41 L 459.45,50.11 h -0.38 V 165.35 H 445.45 V 31.37 h 17.03 z"
   class="st0" />
	<path
   style="fill:#1d1d1b"
   id="path12"
   d="m 590.01,31.37 h 44.47 c 8.33,0 16.68,1.39 25.07,4.16 8.39,2.78 15.96,6.97 22.71,12.58 6.75,5.61 12.21,12.62 16.37,21 4.16,8.39 6.25,18.14 6.25,29.24 0,11.23 -2.08,21 -6.25,29.33 -4.17,8.33 -9.62,15.3 -16.37,20.91 -6.75,5.61 -14.32,9.81 -22.71,12.58 -8.39,2.78 -16.75,4.16 -25.07,4.16 h -44.47 z m 13.63,121.87 h 27.06 c 10.09,0 18.89,-1.58 26.4,-4.73 7.5,-3.15 13.72,-7.29 18.64,-12.39 4.92,-5.1 8.61,-10.94 11.07,-17.5 2.46,-6.56 3.69,-13.31 3.69,-20.25 0,-6.94 -1.23,-13.69 -3.69,-20.25 -2.46,-6.56 -6.15,-12.39 -11.07,-17.5 C 670.82,55.51 664.6,51.38 657.1,48.23 649.59,45.08 640.79,43.5 630.7,43.5 h -27.06 z"
   class="st0" />
	<path
   style="fill:#1d1d1b"
   id="path14"
   d="m 746.89,153.24 h 71.72 v 12.11 H 733.27 V 31.37 h 83.07 v 12.11 h -69.45 v 45.98 h 64.91 v 12.11 h -64.91 z"
   class="st0" />
	<path
   style="fill:#1d1d1b"
   id="path16"
   d="M 858.91,165.35 H 845.29 V 31.37 h 39.36 c 6.56,0 12.65,0.63 18.26,1.89 5.61,1.26 10.47,3.31 14.57,6.15 4.1,2.84 7.29,6.53 9.56,11.07 2.27,4.54 3.41,10.09 3.41,16.65 0,4.92 -0.88,9.4 -2.65,13.44 -1.77,4.04 -4.16,7.54 -7.19,10.5 -3.03,2.97 -6.62,5.33 -10.79,7.1 -4.16,1.77 -8.7,2.9 -13.62,3.41 l 39.17,63.77 h -16.65 l -37.09,-62.64 h -22.71 v 62.64 z m 0,-74.37 h 23.65 c 10.98,0 19.43,-1.99 25.36,-5.96 5.93,-3.97 8.89,-9.93 8.89,-17.88 0,-4.41 -0.82,-8.14 -2.46,-11.16 -1.64,-3.03 -3.91,-5.49 -6.81,-7.38 -2.9,-1.89 -6.43,-3.28 -10.6,-4.16 -4.16,-0.88 -8.77,-1.32 -13.81,-1.32 h -24.22 z"
   class="st0" />
	<path
   style="fill:#1d1d1b"
   id="path18"
   d="m 1023.54,52.95 c -2.9,-4.04 -6.62,-7.29 -11.17,-9.75 -4.54,-2.46 -10.03,-3.69 -16.46,-3.69 -3.28,0 -6.62,0.51 -10.03,1.51 -3.41,1.01 -6.5,2.55 -9.27,4.64 -2.78,2.08 -5.01,4.7 -6.72,7.85 -1.7,3.15 -2.55,6.88 -2.55,11.16 0,4.29 0.82,7.82 2.45,10.6 1.64,2.78 3.81,5.14 6.51,7.1 2.71,1.96 5.79,3.57 9.25,4.83 3.46,1.26 7.08,2.53 10.85,3.78 4.65,1.51 9.34,3.15 14.06,4.92 4.72,1.77 8.96,4.07 12.74,6.91 3.77,2.84 6.86,6.43 9.25,10.79 2.39,4.35 3.59,9.87 3.59,16.56 0,6.69 -1.28,12.46 -3.83,17.31 -2.55,4.86 -5.86,8.86 -9.93,12.02 -4.07,3.15 -8.73,5.49 -13.96,7 -5.24,1.51 -10.5,2.27 -15.8,2.27 -4.04,0 -8.08,-0.41 -12.11,-1.23 -4.04,-0.82 -7.89,-2.05 -11.54,-3.69 -3.66,-1.64 -7.07,-3.72 -10.22,-6.24 -3.16,-2.52 -5.93,-5.42 -8.33,-8.71 l 11.73,-8.7 c 2.9,4.8 6.97,8.8 12.21,12.02 5.23,3.22 11.38,4.83 18.45,4.83 3.41,0 6.87,-0.54 10.41,-1.61 3.53,-1.07 6.72,-2.71 9.56,-4.92 2.84,-2.21 5.17,-4.92 7,-8.14 1.83,-3.22 2.74,-6.97 2.74,-11.26 0,-4.67 -0.92,-8.54 -2.74,-11.64 -1.83,-3.09 -4.26,-5.68 -7.29,-7.76 -3.03,-2.08 -6.5,-3.81 -10.41,-5.2 -3.91,-1.39 -8.01,-2.77 -12.3,-4.16 -4.42,-1.39 -8.77,-2.96 -13.06,-4.73 -4.29,-1.77 -8.14,-4.07 -11.54,-6.91 -3.4,-2.84 -6.15,-6.34 -8.23,-10.5 -2.08,-4.16 -3.12,-9.27 -3.12,-15.33 0,-6.43 1.29,-11.98 3.88,-16.65 2.58,-4.67 5.96,-8.52 10.12,-11.54 4.16,-3.03 8.77,-5.23 13.81,-6.62 5.04,-1.39 10.03,-2.08 14.95,-2.08 9.08,0 16.84,1.61 23.28,4.83 6.43,3.22 11.29,7.03 14.57,11.45 z"
   class="st0" />
</g>
<g
   transform="translate(-43.9,-27.96)"
   id="g42">
	<path
   style="fill:#1d1d1b"
   id="path22"
   d="m 75.9,227.8 v 27.63 h 51.85 v 26.68 H 75.9 v 52.04 H 43.92 V 200.17 h 88.18 v 27.63 z"
   class="st0" />
	<path
   style="fill:#1d1d1b"
   id="path24"
   d="m 292.57,266.59 c 0,10.6 -1.83,20.28 -5.49,29.05 -3.66,8.77 -8.74,16.27 -15.23,22.52 -6.5,6.25 -14.23,11.07 -23.18,14.48 -8.96,3.41 -18.67,5.11 -29.14,5.11 -10.47,0 -20.15,-1.7 -29.05,-5.11 -8.9,-3.41 -16.59,-8.23 -23.09,-14.48 -6.5,-6.24 -11.58,-13.75 -15.23,-22.52 -3.66,-8.77 -5.49,-18.45 -5.49,-29.05 0,-10.72 1.83,-20.4 5.49,-29.05 3.66,-8.64 8.73,-15.99 15.23,-22.05 6.5,-6.06 14.19,-10.72 23.09,-14 8.89,-3.28 18.57,-4.92 29.05,-4.92 10.47,0 20.18,1.64 29.14,4.92 8.96,3.28 16.68,7.95 23.18,14 6.5,6.06 11.57,13.41 15.23,22.05 3.66,8.64 5.49,18.33 5.49,29.05 z m -34.63,0 c 0,-5.8 -0.95,-11.23 -2.84,-16.27 -1.89,-5.04 -4.51,-9.37 -7.85,-12.96 -3.34,-3.6 -7.38,-6.43 -12.11,-8.52 -4.73,-2.08 -9.93,-3.12 -15.61,-3.12 -5.68,0 -10.85,1.04 -15.52,3.12 -4.67,2.08 -8.7,4.92 -12.11,8.52 -3.41,3.6 -6.03,7.92 -7.85,12.96 -1.83,5.05 -2.74,10.47 -2.74,16.27 0,6.06 0.95,11.64 2.84,16.75 1.89,5.11 4.51,9.49 7.85,13.15 3.34,3.66 7.35,6.53 12.02,8.61 4.67,2.08 9.84,3.12 15.52,3.12 5.68,0 10.85,-1.04 15.52,-3.12 4.67,-2.08 8.7,-4.95 12.11,-8.61 3.41,-3.66 6.06,-8.04 7.95,-13.15 1.88,-5.11 2.82,-10.7 2.82,-16.75 z"
   class="st0" />
	<path
   style="fill:#1d1d1b"
   id="path26"
   d="m 423.42,305.67 c -2.71,6.62 -6.59,12.3 -11.64,17.03 -5.05,4.73 -11.14,8.42 -18.26,11.07 -7.13,2.65 -15.04,3.97 -23.75,3.97 -8.83,0 -16.78,-1.33 -23.84,-3.97 -7.07,-2.65 -13.06,-6.34 -17.98,-11.07 -4.92,-4.73 -8.7,-10.41 -11.35,-17.03 -2.65,-6.62 -3.97,-13.97 -3.97,-22.04 v -83.45 h 32.17 v 80.8 c 0,3.66 0.47,7.13 1.42,10.41 0.95,3.28 2.39,6.21 4.35,8.8 1.95,2.59 4.54,4.64 7.76,6.15 3.22,1.51 7.1,2.27 11.64,2.27 4.54,0 8.42,-0.76 11.64,-2.27 3.22,-1.51 5.83,-3.56 7.85,-6.15 2.02,-2.58 3.47,-5.52 4.35,-8.8 0.88,-3.28 1.32,-6.75 1.32,-10.41 v -80.8 h 32.36 v 83.45 c 0,8.06 -1.35,15.41 -4.07,22.04 z"
   class="st0" />
	<path
   style="fill:#1d1d1b"
   id="path28"
   d="m 538.76,334.14 -53.93,-87.61 h -0.57 l 0.76,87.61 H 453.61 V 200.17 h 36.9 l 53.74,87.43 h 0.57 l -0.76,-87.43 h 31.41 v 133.98 h -36.71 z"
   class="st0" />
	<path
   style="fill:#1d1d1b"
   id="path30"
   d="m 728.18,266.78 c 0,11.73 -2.18,21.86 -6.53,30.37 -4.35,8.52 -10.09,15.52 -17.22,21 -7.13,5.49 -15.17,9.53 -24.13,12.11 -8.96,2.59 -18.04,3.88 -27.25,3.88 H 603.1 V 200.17 h 48.44 c 9.46,0 18.8,1.11 28.01,3.31 9.21,2.21 17.41,5.87 24.6,10.98 7.19,5.11 12.99,11.95 17.41,20.53 4.41,8.58 6.62,19.17 6.62,31.79 z m -33.68,0 c 0,-7.57 -1.23,-13.84 -3.69,-18.83 -2.46,-4.98 -5.74,-8.96 -9.84,-11.92 -4.1,-2.96 -8.77,-5.08 -14,-6.34 -5.24,-1.26 -10.63,-1.89 -16.18,-1.89 H 634.7 v 78.34 h 15.33 c 5.8,0 11.38,-0.66 16.75,-1.99 5.36,-1.32 10.09,-3.5 14.19,-6.53 4.1,-3.03 7.38,-7.06 9.84,-12.11 2.46,-5.04 3.69,-11.29 3.69,-18.73 z"
   class="st0" />
	<path
   style="fill:#1d1d1b"
   id="path32"
   d="m 836.04,334.14 -10.41,-26.3 h -51.85 l -9.84,26.3 h -35.2 l 56.2,-133.98 h 31.41 l 55.63,133.98 z m -35.96,-98.21 -17.03,45.98 h 33.68 z"
   class="st0" />
	<path
   style="fill:#1d1d1b"
   id="path34"
   d="M 929.33,227.8 V 334.15 H 896.97 V 227.8 h -37.85 v -27.63 h 108.05 v 27.63 z"
   class="st0" />
	<path
   style="fill:#1d1d1b"
   id="path36"
   d="M 981.93,334.14 V 200.17 h 32.55 v 133.98 h -32.55 z"
   class="st0" />
	<path
   style="fill:#1d1d1b"
   id="path38"
   d="m 1181.76,266.59 c 0,10.6 -1.83,20.28 -5.49,29.05 -3.66,8.77 -8.74,16.27 -15.23,22.52 -6.5,6.25 -14.22,11.07 -23.18,14.48 -8.96,3.41 -18.67,5.11 -29.14,5.11 -10.47,0 -20.15,-1.7 -29.05,-5.11 -8.89,-3.41 -16.59,-8.23 -23.09,-14.48 -6.5,-6.24 -11.58,-13.75 -15.23,-22.52 -3.66,-8.77 -5.49,-18.45 -5.49,-29.05 0,-10.72 1.83,-20.4 5.49,-29.05 3.66,-8.64 8.73,-15.99 15.23,-22.05 6.5,-6.06 14.19,-10.72 23.09,-14 8.89,-3.28 18.58,-4.92 29.05,-4.92 10.47,0 20.18,1.64 29.14,4.92 8.96,3.28 16.68,7.95 23.18,14 6.5,6.06 11.57,13.41 15.23,22.05 3.66,8.64 5.49,18.33 5.49,29.05 z m -34.63,0 c 0,-5.8 -0.95,-11.23 -2.84,-16.27 -1.89,-5.04 -4.51,-9.37 -7.85,-12.96 -3.34,-3.6 -7.38,-6.43 -12.11,-8.52 -4.73,-2.08 -9.93,-3.12 -15.61,-3.12 -5.68,0 -10.85,1.04 -15.52,3.12 -4.67,2.08 -8.7,4.92 -12.11,8.52 -3.41,3.6 -6.03,7.92 -7.85,12.96 -1.83,5.05 -2.74,10.47 -2.74,16.27 0,6.06 0.95,11.64 2.84,16.75 1.89,5.11 4.51,9.49 7.85,13.15 3.34,3.66 7.35,6.53 12.02,8.61 4.67,2.08 9.84,3.12 15.52,3.12 5.68,0 10.85,-1.04 15.52,-3.12 4.67,-2.08 8.71,-4.95 12.11,-8.61 3.41,-3.66 6.05,-8.04 7.95,-13.15 1.9,-5.11 2.82,-10.7 2.82,-16.75 z"
   class="st0" />
	<path
   style="fill:#1d1d1b"
   id="path40"
   d="m 1288.3,334.14 -53.93,-87.61 h -0.57 l 0.76,87.61 h -31.41 V 200.17 h 36.9 l 53.74,87.43 h 0.57 l -0.76,-87.43 h 31.41 v 133.98 h -36.71 z"
   class="st0" />
</g>
</svg>