<?xml version="1.0" encoding="UTF-8" standalone="no"?><!DOCTYPE svg PUBLIC "-//W3C//DTD SVG 1.1//EN" "http://www.w3.org/Graphics/SVG/1.1/DTD/svg11.dtd"><svg width="100%" height="100%" viewBox="0 0 2309 454" version="1.1" xmlns="http://www.w3.org/2000/svg" xmlns:xlink="http://www.w3.org/1999/xlink" xml:space="preserve" xmlns:serif="http://www.serif.com/" style="fill-rule:evenodd;clip-rule:evenodd;stroke-linejoin:round;stroke-miterlimit:2;"><g><g><path d="M4.399,87.374l-0,-73.998l16.499,-0l19.8,58.698l0.2,0l19.199,-58.698l16.8,-0l-0,73.998l-12.1,-0l-0,-55.198l-0.2,-0c-1.1,5.099 -2.7,9.899 -4.4,15.099l-14.399,40.099l-11.1,-0l-14.3,-40.099c-1.799,-5.3 -2.899,-8.5 -4.5,-15.6l-0.199,0l-0,55.699l-11.3,-0Z" style="fill:#1a171b;fill-rule:nonzero;"/><path d="M92.689,87.374l0,-53.098l12.401,-0l0,53.098l-12.401,-0Zm-0.1,-62.298l0,-10.7l12.601,-0l0,10.7l-12.601,-0Z" style="fill:#1a171b;fill-rule:nonzero;"/><path d="M119.487,87.374l-0,-53.098l12.299,-0l-0,8.499c3.999,-4.6 10.2,-9.5 18.999,-9.5c9.7,-0 15.699,5 15.699,15.499l0,38.6l-12.299,-0l0,-35.099c0,-5.8 -2.4,-8.8 -8,-8.8c-5.399,-0 -9.9,2.7 -14.399,6.899l-0,37l-12.299,-0Z" style="fill:#1a171b;fill-rule:nonzero;"/><path d="M180.18,87.374l-0,-53.098l12.4,-0l-0,53.098l-12.4,-0Zm-0.1,-62.298l-0,-10.7l12.6,-0l-0,10.7l-12.6,-0Z" style="fill:#1a171b;fill-rule:nonzero;"/><path d="M202.877,80.073l6.699,-7.499c4.001,3.4 9.9,6.3 16.7,6.3c6.599,-0 10.6,-1.7 10.6,-6.1c-0,-4.3 -5.4,-5.6 -11.8,-7.1c-9.099,-2.1 -19.999,-4.5 -19.999,-16.8c-0,-9.299 7.999,-15.599 19.699,-15.599c10.1,-0 16.299,2.901 21.8,7.5l-5.901,7.999c-3.899,-3.199 -10.199,-5.799 -14.999,-5.799c-6.8,-0 -9,2.4 -9,5.399c0,4.3 5.3,5.601 11.599,7.001c9.1,2 20.2,4.299 20.2,16.699c0,11.2 -10.1,16.4 -22.199,16.4c-9.8,-0 -18.6,-3.501 -23.399,-8.401Z" style="fill:#1a171b;fill-rule:nonzero;"/><path d="M262.371,73.474l0,-29.399l-9.2,-0l0,-9.799l9.2,-0l0,-18.5l12.3,-0l-0,18.5l13.699,-0l-0,9.799l-13.699,-0l-0,26.299c-0,5.7 1.7,8 7.799,8c1.8,-0 4.101,-0.3 5.301,-0.7l-0,9.7c-1.3,0.299 -5.901,0.7 -9,0.7c-13.5,-0 -16.4,-5.001 -16.4,-14.6Z" style="fill:#1a171b;fill-rule:nonzero;"/><path d="M332.268,55.674c-0.7,-8.1 -4.7,-12.399 -12.1,-12.399c-6,-0 -11.5,3.4 -12.7,12.399l24.8,-0Zm-37.299,5.2c0,-20.199 14.299,-27.599 25.299,-27.599c11.9,-0 23.299,7.1 23.299,28.699l0,2.9l-36.299,-0c0.5,9.6 6.4,13.8 14.2,13.8c6.899,-0 10.899,-2.3 14.899,-6.2l6.499,6.4c-5.499,6.099 -12.798,9.6 -22.298,9.6c-13.3,-0 -25.599,-8.101 -25.599,-27.6Z" style="fill:#1a171b;fill-rule:nonzero;"/><path d="M354.362,87.374l0,-53.098l12.3,-0l0,8.699l0.2,-0c3.3,-5.3 8.999,-9.7 19.099,-9.7l0.8,-0l-0.4,11.3c-0.6,-0.1 -2.599,-0.2 -3.299,-0.2c-7.901,-0 -12.9,3.699 -16.4,9.4l0,33.599l-12.3,-0Z" style="fill:#1a171b;fill-rule:nonzero;"/><path d="M396.057,87.374l0,-53.098l12.4,-0l0,53.098l-12.4,-0Zm-0.1,-62.298l0,-10.7l12.6,-0l0,10.7l-12.6,-0Z" style="fill:#1a171b;fill-rule:nonzero;"/><path d="M422.153,72.374l-0,-38.098l12.4,-0l-0,35.198c-0,5.9 2.5,8.6 7.9,8.6c5.4,-0 9.9,-2.8 14.4,-6.901l-0,-36.897l12.398,-0l0,53.098l-12.398,-0l-0,-7.201c-3.401,3.601 -9.8,8.201 -19.4,8.201c-9.3,-0 -15.3,-5.501 -15.3,-16Z" style="fill:#1a171b;fill-rule:nonzero;"/><path d="M483.047,87.374l0,-53.098l12.3,-0l0,7.299c4.1,-4.501 10.1,-8.3 18.198,-8.3c8.9,-0 12.401,3.501 14.501,8.7c4.2,-4.6 10.5,-8.7 18.599,-8.7c10.8,-0 15.5,6.5 15.5,15.999l-0,38.1l-12.3,-0l-0,-34.999c-0,-5.9 -1.7,-8.6 -7.499,-8.6c-5.001,-0 -9.001,2.8 -13.6,6.899l-0,36.7l-12.3,-0l0,-34.999c0,-5.9 -1.701,-8.6 -7.499,-8.6c-4.9,-0 -9,2.8 -13.6,6.899l0,36.7l-12.3,-0Z" style="fill:#1a171b;fill-rule:nonzero;"/><path d="M605.135,87.374l-0,-43.299l-9.2,-0l0,-9.799l9.2,-0l-0,-5.401c-0,-8.9 3.7,-15.799 17.199,-15.799c2.3,-0 6.399,0.4 7.299,0.5l0,9.5c-0.799,-0.2 -2.798,-0.4 -4.199,-0.4c-4.4,-0 -8,1.2 -8,6.899l0,4.701l11.6,-0l0,9.799l-11.6,-0l0,43.299l-12.299,-0Z" style="fill:#1a171b;fill-rule:nonzero;"/><path d="M665.13,16.875l11.2,0l-0,12.1l-11.2,0l-0,-12.1Zm-19.799,0l11.199,0l-0,12.1l-11.199,0l-0,-12.1Zm-8,55.499l-0,-38.098l12.399,-0l0,35.198c0,5.9 2.5,8.6 7.9,8.6c5.4,-0 9.9,-2.8 14.399,-6.901l0,-36.897l12.4,-0l0,53.098l-12.4,-0l0,-7.201c-3.399,3.601 -9.799,8.201 -19.399,8.201c-9.299,-0 -15.299,-5.501 -15.299,-16Z" style="fill:#1a171b;fill-rule:nonzero;"/><path d="M698.225,87.374l-0,-53.098l12.3,-0l-0,8.699l0.2,-0c3.299,-5.3 8.999,-9.7 19.099,-9.7l0.8,-0l-0.4,11.3c-0.6,-0.1 -2.6,-0.2 -3.3,-0.2c-7.9,-0 -12.9,3.699 -16.399,9.4l-0,33.599l-12.3,-0Z" style="fill:#1a171b;fill-rule:nonzero;"/><path d="M777.216,87.374l-19.699,-73.998l12.599,-0l9.4,38.298c1.5,5.901 2.9,11.4 3.9,17.2l0.2,0c1,-5.7 2.299,-11.199 3.799,-17.099l8.9,-38.399l12,-0l9.199,38.598c1.6,6.3 2.801,10.7 3.901,16.9l0.199,0c1.1,-6.4 2.201,-10.3 3.601,-16.599l9.199,-38.899l11.7,-0l-19.499,73.998l-10.9,-0l-13.3,-56.699l-0.199,0l-14,56.699l-11,-0Z" style="fill:#1a171b;fill-rule:nonzero;"/><path d="M855.407,87.374l-0,-53.098l12.4,-0l-0,53.098l-12.4,-0Zm-0.1,-62.298l-0,-10.7l12.6,-0l-0,10.7l-12.6,-0Z" style="fill:#1a171b;fill-rule:nonzero;"/><path d="M882.103,87.374l0,-53.098l12.3,-0l0,8.699l0.2,-0c3.3,-5.3 8.999,-9.7 19.099,-9.7l0.8,-0l-0.4,11.3c-0.6,-0.1 -2.599,-0.2 -3.299,-0.2c-7.901,-0 -12.9,3.699 -16.4,9.4l0,33.599l-12.3,-0Z" style="fill:#1a171b;fill-rule:nonzero;"/><path d="M927.498,73.474l0,-29.399l-9.2,-0l-0,-9.799l9.2,-0l0,-18.5l12.3,-0l-0,18.5l13.699,-0l-0,9.799l-13.699,-0l-0,26.299c-0,5.7 1.7,8 7.8,8c1.799,-0 4.1,-0.3 5.3,-0.7l-0,9.7c-1.3,0.299 -5.901,0.7 -9,0.7c-13.5,-0 -16.4,-5.001 -16.4,-14.6Z" style="fill:#1a171b;fill-rule:nonzero;"/><path d="M959.096,80.073l6.699,-7.499c4,3.4 9.899,6.3 16.7,6.3c6.599,-0 10.599,-1.7 10.599,-6.1c-0,-4.3 -5.4,-5.6 -11.799,-7.1c-9.1,-2.1 -20,-4.5 -20,-16.8c-0,-9.299 8,-15.599 19.7,-15.599c10.099,-0 16.299,2.901 21.8,7.5l-5.901,7.999c-3.9,-3.199 -10.2,-5.799 -14.999,-5.799c-6.799,-0 -9,2.4 -9,5.399c-0,4.3 5.3,5.601 11.6,7.001c9.099,2 20.2,4.299 20.2,16.699c-0,11.2 -10.101,16.4 -22.2,16.4c-9.8,-0 -18.599,-3.501 -23.399,-8.401Z" style="fill:#1a171b;fill-rule:nonzero;"/><path d="M1011.59,60.874c0,-20.299 13.699,-27.599 25.497,-27.599c13.199,-0 18.799,7.3 21.999,15.499l-10.399,3.7c-2.101,-5.999 -5.9,-8.899 -11.799,-8.899c-7,-0 -12.9,4.599 -12.9,17.299c-0,11.299 4.599,17.5 12.7,17.5c5.599,-0 9.499,-1.7 12.398,-9.201l10.2,3.701c-3.8,8.499 -10.099,15.6 -22.898,15.6c-12.3,-0 -24.798,-8.201 -24.798,-27.6Z" style="fill:#1a171b;fill-rule:nonzero;"/><path d="M1069.09,87.374l-0,-73.998l12.398,-0l0,28.099c3.4,-3.6 9.8,-8.2 19.399,-8.2c9.299,-0 15.298,5.5 15.298,15.999l0,38.1l-12.399,-0l0,-34.999c0,-5.9 -2.499,-8.6 -7.899,-8.6c-5.399,-0 -9.899,2.8 -14.399,6.899l0,36.7l-12.398,-0Z" style="fill:#1a171b;fill-rule:nonzero;"/><path d="M1160.58,72.574l-0,-11.7c-14.699,2 -22.498,5.6 -22.498,11.4c0,4.2 2.9,6.4 7.399,6.4c6.3,-0 11.199,-2.4 15.099,-6.1Zm-34.597,2c0,-11.5 9.799,-19.199 34.597,-22l-0,-1.6c-0,-5.299 -2.8,-7.599 -8.699,-7.599c-7.4,-0 -13.399,3.6 -17.899,7.199l-5.999,-7.699c5.7,-5.2 14.599,-9.6 25.598,-9.6c14.198,-0 19.098,6.8 19.098,19.199l-0,21.9c-0,6.399 0.4,10.299 1.5,13l-12.399,-0c-0.7,-2.201 -1.2,-3.801 -1.2,-6.801c-5.399,5.5 -11.699,7.6 -19.598,7.6c-8.599,-0 -14.999,-4.799 -14.999,-13.599Z" style="fill:#1a171b;fill-rule:nonzero;"/><path d="M1190.47,87.374l0,-43.299l-9.199,-0l0,-9.799l9.199,-0l0,-5.401c0,-8.9 3.71,-15.799 17.209,-15.799c2.299,-0 6.399,0.4 7.299,0.5l-0,9.5c-0.8,-0.2 -2.8,-0.4 -4.2,-0.4c-4.399,-0 -7.999,1.2 -7.999,6.899l-0,4.701l11.599,-0l-0,9.799l-11.599,-0l-0,43.299l-12.309,-0Z" style="fill:#1a171b;fill-rule:nonzero;"/><path d="M1227.46,73.474l-0,-29.399l-9.2,-0l0,-9.799l9.2,-0l-0,-18.5l12.298,-0l0,18.5l13.709,-0l0,9.799l-13.709,-0l0,26.299c0,5.7 1.7,8 7.81,8c1.79,-0 4.099,-0.3 5.299,-0.7l0,9.7c-1.3,0.299 -5.899,0.7 -9.009,0.7c-13.499,-0 -16.398,-5.001 -16.398,-14.6Z" style="fill:#1a171b;fill-rule:nonzero;"/><path d="M1266.36,98.573l3.5,-11.199l-5.3,-0l0,-13l13.799,-0l-0,11.299l-6.3,12.9l-5.699,-0Z" style="fill:#1a171b;fill-rule:nonzero;"/><rect x="5.2" y="133.364" width="12.599" height="73.998" style="fill:#1a171b;fill-rule:nonzero;"/><path d="M33.996,207.362l-0,-53.098l12.3,0l-0,8.5c3.999,-4.6 10.2,-9.501 18.999,-9.501c9.7,0 15.699,5.001 15.699,15.5l0,38.599l-12.3,0l0,-35.098c0,-5.801 -2.399,-8.8 -7.999,-8.8c-5.4,-0 -9.9,2.699 -14.399,6.899l-0,36.999l-12.3,0Z" style="fill:#1a171b;fill-rule:nonzero;"/><path d="M129.189,191.363l-0,-21.3c-3.3,-4.3 -8.099,-6.599 -12.499,-6.599c-9.3,-0 -13.1,5.999 -13.1,17.799c0,11.2 4.8,16.799 12.7,16.799c5.099,0 9.999,-3.199 12.899,-6.699Zm-37.9,-10.4c0,-18.399 9.1,-27.7 22.7,-27.7c5.701,0 11.3,2.3 15.2,6.701l-0,-26.6l12.3,0l-0,60.999c-0,6.399 0.4,10.299 1.599,12.999l-12.699,0c-0.7,-1.5 -1.2,-4.5 -1.2,-7.2c-3.9,4.5 -8.999,7.999 -16.9,7.999c-12.099,0 -21,-8.799 -21,-27.198Z" style="fill:#1a171b;fill-rule:nonzero;"/><path d="M154.683,192.363l0,-38.099l12.4,0l0,35.199c0,5.899 2.5,8.599 7.9,8.599c5.4,0 9.899,-2.8 14.399,-6.9l0,-36.898l12.4,0l-0,53.098l-12.4,0l0,-7.2c-3.4,3.601 -9.799,8.2 -19.399,8.2c-9.299,0 -15.3,-5.5 -15.3,-15.999Z" style="fill:#1a171b;fill-rule:nonzero;"/><path d="M211.578,200.062l6.699,-7.499c4.001,3.399 9.9,6.299 16.701,6.299c6.599,0 10.599,-1.7 10.599,-6.099c-0,-4.301 -5.4,-5.601 -11.8,-7.101c-9.099,-2.099 -19.999,-4.499 -19.999,-16.799c-0,-9.299 7.999,-15.6 19.699,-15.6c10.1,0 16.299,2.901 21.8,7.501l-5.901,7.999c-3.899,-3.2 -10.199,-5.799 -14.999,-5.799c-6.8,-0 -8.999,2.399 -8.999,5.399c-0,4.3 5.299,5.601 11.6,7c9.099,2 20.198,4.3 20.198,16.7c-0,11.2 -10.099,16.399 -22.198,16.399c-9.8,0 -18.601,-3.5 -23.4,-8.4Z" style="fill:#1a171b;fill-rule:nonzero;"/><path d="M271.072,193.463l0,-29.4l-9.2,0l0,-9.799l9.2,0l0,-18.5l12.3,0l0,18.5l13.7,0l-0,9.799l-13.7,0l0,26.3c0,5.699 1.7,7.999 7.799,7.999c1.801,0 4.101,-0.3 5.301,-0.7l-0,9.7c-1.3,0.299 -5.9,0.7 -9,0.7c-13.499,0 -16.4,-5 -16.4,-14.599Z" style="fill:#1a171b;fill-rule:nonzero;"/><path d="M307.169,207.362l-0,-53.098l12.3,0l-0,8.7l0.2,-0c3.299,-5.3 8.999,-9.701 19.099,-9.701l0.8,0l-0.4,11.3c-0.6,-0.1 -2.6,-0.2 -3.301,-0.2c-7.899,0 -12.899,3.7 -16.398,9.401l-0,33.598l-12.3,0Z" style="fill:#1a171b;fill-rule:nonzero;"/><path d="M348.863,207.362l-0,-53.098l12.4,0l-0,53.098l-12.4,0Zm-0.1,-62.298l-0,-10.7l12.6,0l-0,10.7l-12.6,0Z" style="fill:#1a171b;fill-rule:nonzero;"/><path d="M409.858,175.662c-0.7,-8.099 -4.699,-12.398 -12.1,-12.398c-5.999,-0 -11.499,3.399 -12.699,12.398l24.799,0Zm-37.298,5.201c-0,-20.199 14.299,-27.6 25.298,-27.6c11.9,0 23.3,7.101 23.3,28.7l0,2.899l-36.298,0c0.499,9.601 6.399,13.8 14.199,13.8c6.9,0 10.9,-2.3 14.9,-6.199l6.499,6.399c-5.499,6.1 -12.8,9.6 -22.299,9.6c-13.299,0 -25.599,-8.1 -25.599,-27.599Z" style="fill:#1a171b;fill-rule:nonzero;"/><path d="M431.755,218.561l3.5,-11.199l-5.3,0l0,-12.999l13.799,-0l-0,11.298l-6.299,12.9l-5.7,0Z" style="fill:#1a171b;fill-rule:nonzero;"/><path d="M481.148,207.362l0,-73.998l12.5,0l0,34.399l29.098,-34.399l14.801,0l-25.2,28.5l28.3,45.498l-14.301,0l-22.199,-35.899l-10.499,11.6l0,24.299l-12.5,0Z" style="fill:#1a171b;fill-rule:nonzero;"/><rect x="549.942" y="133.364" width="12.4" height="73.998" style="fill:#1a171b;fill-rule:nonzero;"/><path d="M577.137,207.362l0,-53.098l12.4,0l0,53.098l-12.4,0Zm-0.1,-62.298l0,-10.7l12.6,0l0,10.7l-12.6,0Z" style="fill:#1a171b;fill-rule:nonzero;"/><path d="M603.834,207.362l-0,-53.098l12.3,0l-0,7.3c4.099,-4.501 10.099,-8.301 18.199,-8.301c8.899,0 12.4,3.501 14.499,8.701c4.2,-4.6 10.501,-8.701 18.6,-8.701c10.8,0 15.499,6.501 15.499,16l0,38.099l-12.3,0l0,-34.998c0,-5.901 -1.699,-8.601 -7.499,-8.601c-5,0 -9,2.8 -13.6,6.9l0,36.699l-12.299,0l-0,-34.998c-0,-5.901 -1.7,-8.601 -7.5,-8.601c-4.899,0 -9,2.8 -13.599,6.9l-0,36.699l-12.3,0Z" style="fill:#1a171b;fill-rule:nonzero;"/><path d="M727.424,192.563l0,-11.7c-14.7,2 -22.5,5.599 -22.5,11.4c0,4.199 2.9,6.399 7.4,6.399c6.3,0 11.199,-2.4 15.1,-6.099Zm-34.6,2c0,-11.5 9.8,-19.2 34.6,-22l0,-1.6c0,-5.3 -2.801,-7.599 -8.7,-7.599c-7.399,-0 -13.4,3.599 -17.899,7.199l-6,-7.699c5.7,-5.2 14.599,-9.601 25.599,-9.601c14.199,0 19.099,6.801 19.099,19.2l-0,21.9c-0,6.399 0.4,10.299 1.5,12.999l-12.4,0c-0.699,-2.2 -1.199,-3.8 -1.199,-6.8c-5.4,5.499 -11.7,7.599 -19.6,7.599c-8.599,0 -15,-4.798 -15,-13.598Z" style="fill:#1a171b;fill-rule:nonzero;"/><path d="M748.718,200.062l6.699,-7.499c4,3.399 9.9,6.299 16.7,6.299c6.6,0 10.6,-1.7 10.6,-6.099c-0,-4.301 -5.4,-5.601 -11.8,-7.101c-9.099,-2.099 -19.999,-4.499 -19.999,-16.799c-0,-9.299 7.999,-15.6 19.699,-15.6c10.1,0 16.299,2.901 21.8,7.501l-5.901,7.999c-3.899,-3.2 -10.199,-5.799 -14.999,-5.799c-6.8,-0 -8.999,2.399 -8.999,5.399c-0,4.3 5.299,5.601 11.599,7c9.1,2 20.2,4.3 20.2,16.7c-0,11.2 -10.1,16.399 -22.2,16.399c-9.799,0 -18.599,-3.5 -23.399,-8.4Z" style="fill:#1a171b;fill-rule:nonzero;"/><path d="M801.213,180.863c0,-20.299 13.699,-27.6 25.499,-27.6c13.199,0 18.799,7.301 22,15.5l-10.4,3.7c-2.1,-6 -5.901,-8.899 -11.8,-8.899c-7.001,-0 -12.9,4.599 -12.9,17.299c-0,11.299 4.6,17.499 12.7,17.499c5.599,0 9.5,-1.7 12.399,-9.2l10.2,3.701c-3.8,8.499 -10.1,15.599 -22.899,15.599c-12.3,0 -24.799,-8.2 -24.799,-27.599Z" style="fill:#1a171b;fill-rule:nonzero;"/><path d="M858.708,207.362l-0,-73.998l12.398,0l0,28.1c3.4,-3.6 9.8,-8.201 19.4,-8.201c9.3,0 15.3,5.501 15.3,16l0,38.099l-12.4,0l0,-34.998c0,-5.901 -2.499,-8.601 -7.9,-8.601c-5.399,0 -9.9,2.8 -14.4,6.9l0,36.699l-12.398,0Z" style="fill:#1a171b;fill-rule:nonzero;"/><path d="M918.401,192.363l-0,-38.099l12.4,0l-0,35.199c-0,5.899 2.499,8.599 7.9,8.599c5.399,0 9.899,-2.8 14.399,-6.9l-0,-36.898l12.399,0l0,53.098l-12.399,0l-0,-7.2c-3.4,3.601 -9.799,8.2 -19.4,8.2c-9.299,0 -15.299,-5.5 -15.299,-15.999Z" style="fill:#1a171b;fill-rule:nonzero;"/><path d="M983.495,193.463l-0,-29.4l-9.199,0l-0,-9.799l9.199,0l-0,-18.5l12.3,0l-0,18.5l13.699,0l0,9.799l-13.699,0l-0,26.3c-0,5.699 1.699,7.999 7.8,7.999c1.8,0 4.099,-0.3 5.299,-0.7l0,9.7c-1.3,0.299 -5.899,0.7 -9,0.7c-13.499,0 -16.399,-5 -16.399,-14.599Z" style="fill:#1a171b;fill-rule:nonzero;"/><path d="M1016.09,207.362l-0,-7.1l28.297,-36.199l-26.198,0l0,-9.799l41.597,0l-0,7.4l-28.398,36.198l30.097,0l0,9.5l-45.395,0Z" style="fill:#1a171b;fill-rule:nonzero;"/><path d="M1096.09,192.363l0,-38.099l12.399,0l-0,35.199c-0,5.899 2.5,8.599 7.899,8.599c5.4,0 9.899,-2.8 14.399,-6.9l-0,-36.898l12.399,0l-0,53.098l-12.399,0l-0,-7.2c-3.4,3.601 -9.799,8.2 -19.398,8.2c-9.3,0 -15.299,-5.5 -15.299,-15.999Z" style="fill:#1a171b;fill-rule:nonzero;"/><path d="M1157.08,207.362l0,-53.098l12.299,0l0,8.5c4,-4.6 10.199,-9.501 18.998,-9.501c9.699,0 15.699,5.001 15.699,15.5l-0,38.599l-12.299,0l0,-35.098c0,-5.801 -2.4,-8.8 -7.999,-8.8c-5.4,-0 -9.899,2.699 -14.399,6.899l0,36.999l-12.299,0Z" style="fill:#1a171b;fill-rule:nonzero;"/><path d="M1252.27,191.363l0,-21.3c-3.299,-4.3 -8.099,-6.599 -12.499,-6.599c-9.299,-0 -13.098,5.999 -13.098,17.799c-0,11.2 4.799,16.799 12.698,16.799c5.1,0 10,-3.199 12.899,-6.699Zm-37.906,-10.4c-0,-18.399 9.109,-27.7 22.708,-27.7c5.699,0 11.299,2.3 15.198,6.701l0,-26.6l12.299,0l0,60.999c0,6.399 0.4,10.299 1.6,12.999l-12.699,0c-0.7,-1.5 -1.2,-4.5 -1.2,-7.2c-3.899,4.5 -8.999,7.999 -16.898,7.999c-12.099,0 -21.008,-8.799 -21.008,-27.198Z" style="fill:#1a171b;fill-rule:nonzero;"/><path d="M1304.96,207.362l0,-73.998l47.806,0l-0,11.6l-35.307,0l0,18.4l25.908,-0l-0,11.099l-25.908,0l0,21.499l37.307,0l-0,11.4l-49.806,0Z" style="fill:#1a171b;fill-rule:nonzero;"/><path d="M1364.65,207.362l-0,-53.098l12.298,0l0,8.5c4,-4.6 10.2,-9.501 18.999,-9.501c9.709,0 15.708,5.001 15.708,15.5l0,38.599l-12.309,0l0,-35.098c0,-5.801 -2.399,-8.8 -7.999,-8.8c-5.399,-0 -9.899,2.699 -14.399,6.899l0,36.999l-12.298,0Z" style="fill:#1a171b;fill-rule:nonzero;"/><path d="M1459.14,175.662c-0.7,-8.099 -4.7,-12.398 -12.099,-12.398c-6,-0 -11.499,3.399 -12.699,12.398l24.798,0Zm-37.297,5.201c0,-20.199 14.299,-27.6 25.298,-27.6c11.909,0 23.308,7.101 23.308,28.7l-0,2.899l-36.307,0c0.5,9.601 6.399,13.8 14.199,13.8c6.899,0 10.909,-2.3 14.908,-6.199l6.5,6.399c-5.5,6.1 -12.809,9.6 -22.308,9.6c-13.299,0 -25.598,-8.1 -25.598,-27.599Z" style="fill:#1a171b;fill-rule:nonzero;"/><path d="M1481.24,207.362l-0,-53.098l12.298,0l0,8.7l0.2,-0c3.3,-5.3 9,-9.701 19.099,-9.701l0.8,0l-0.4,11.3c-0.6,-0.1 -2.6,-0.2 -3.3,-0.2c-7.899,0 -12.899,3.7 -16.399,9.401l0,33.598l-12.298,0Z" style="fill:#1a171b;fill-rule:nonzero;"/><path d="M1551.43,172.663c-0,-6.6 -3.8,-10.199 -10.799,-10.199c-6.799,-0 -10.799,3.699 -10.799,10.199c-0,6.5 4.1,10 10.899,10c6.699,-0 10.699,-3.5 10.699,-10Zm5.499,40.199c0,-3.8 -2.699,-5.201 -13.498,-5.9l-9.199,-0.6c-1.1,0 -2.1,-0.1 -3.2,-0.301c-3.5,1.6 -4.9,4.101 -4.9,6.801c0,4.699 5.4,6.199 16.199,6.199c8.999,0 14.598,-2.4 14.598,-6.199Zm-42.096,2.1c0,-5.3 3.3,-9.1 8.7,-11.199c-2.7,-1.401 -4.1,-3.601 -4.1,-6.501c-0,-3.999 3.2,-7.299 7.199,-9.7c-5.399,-3.399 -8.399,-8.799 -8.399,-15.298c0,-10.9 8.399,-19.001 22.298,-19.001c7.299,0 12.699,2.401 16.298,5.601c3.4,-2.7 8.8,-4.801 13.209,-5.2l0,9.999c-2.41,0 -5.809,0.3 -9.309,1.4c1.2,1.9 1.9,4.4 1.9,7.201c-0,11.099 -8.299,18.898 -22.098,18.898c-3,-0 -4.8,-0.399 -7.399,-1.1c-1.6,0.901 -2.7,2.001 -2.7,3.401c-0,2.099 1.4,2.799 6.099,3.199l9.399,0.6c15.699,1 21.898,5.2 21.898,14.5c0,10.899 -10.999,16.198 -27.397,16.198c-18.298,0 -25.598,-5.299 -25.598,-12.998Z" style="fill:#1a171b;fill-rule:nonzero;"/><path d="M1579.63,207.362l0,-53.098l12.399,0l0,53.098l-12.399,0Zm-0.1,-62.298l0,-10.7l12.599,0l0,10.7l-12.599,0Z" style="fill:#1a171b;fill-rule:nonzero;"/><path d="M1640.62,175.662c-0.7,-8.099 -4.699,-12.398 -12.098,-12.398c-6,-0 -11.499,3.399 -12.699,12.398l24.797,0Zm-37.296,5.201c-0,-20.199 14.299,-27.6 25.298,-27.6c11.899,0 23.297,7.101 23.297,28.7l0,2.899l-36.296,0c0.5,9.601 6.399,13.8 14.198,13.8c6.9,0 10.899,-2.3 14.899,-6.199l6.499,6.399c-5.499,6.1 -12.798,9.6 -22.297,9.6c-13.299,0 -25.598,-8.1 -25.598,-27.599Z" style="fill:#1a171b;fill-rule:nonzero;"/><path d="M37.897,311.351l0,-21.3c-3.298,-4.299 -8.099,-6.6 -12.498,-6.6c-9.301,0 -13.1,6.001 -13.1,17.8c-0,11.199 4.799,16.8 12.7,16.8c5.099,-0 10,-3.2 12.898,-6.7Zm-37.897,-10.4c0,-18.399 9.099,-27.699 22.699,-27.699c5.699,0 11.3,2.3 15.198,6.699l0,-26.598l12.3,-0l0,60.998c0,6.4 0.401,10.299 1.6,13l-12.699,-0c-0.7,-1.5 -1.201,-4.501 -1.201,-7.2c-3.898,4.499 -8.999,7.999 -16.898,7.999c-12.1,-0 -20.999,-8.799 -20.999,-27.199Z" style="fill:#1a171b;fill-rule:nonzero;"/><path d="M98.292,295.651c-0.7,-8.099 -4.7,-12.399 -12.1,-12.399c-6,0 -11.5,3.4 -12.7,12.399l24.8,-0Zm-37.299,5.2c0,-20.199 14.299,-27.599 25.299,-27.599c11.9,0 23.3,7.1 23.3,28.699l-0,2.9l-36.3,0c0.5,9.599 6.4,13.799 14.2,13.799c6.899,-0 10.9,-2.299 14.899,-6.2l6.501,6.401c-5.501,6.099 -12.8,9.599 -22.3,9.599c-13.3,-0 -25.599,-8.099 -25.599,-27.599Z" style="fill:#1a171b;fill-rule:nonzero;"/><path d="M115.388,320.051l6.699,-7.5c4.001,3.399 9.9,6.3 16.7,6.3c6.599,-0 10.6,-1.701 10.6,-6.101c-0,-4.299 -5.401,-5.599 -11.8,-7.099c-9.099,-2.1 -19.999,-4.501 -19.999,-16.799c-0,-9.3 7.999,-15.6 19.699,-15.6c10.1,0 16.299,2.901 21.8,7.499l-5.901,8.001c-3.899,-3.2 -10.2,-5.801 -14.999,-5.801c-6.799,0 -8.999,2.401 -8.999,5.401c-0,4.299 5.299,5.599 11.599,7c9.1,2 20.199,4.299 20.199,16.699c-0,11.199 -10.099,16.399 -22.199,16.399c-9.799,-0 -18.599,-3.5 -23.399,-8.399Z" style="fill:#1a171b;fill-rule:nonzero;"/><path d="M198.278,327.351l0,-73.998l12.5,-0l0,62.597l34.099,0l-0,11.401l-46.599,-0Z" style="fill:#1a171b;fill-rule:nonzero;"/><path d="M286.27,312.551l-0,-11.7c-14.7,2 -22.499,5.6 -22.499,11.399c-0,4.2 2.9,6.4 7.399,6.4c6.301,-0 11.2,-2.399 15.1,-6.099Zm-34.599,2c0,-11.5 9.8,-19.199 34.599,-22l-0,-1.6c-0,-5.299 -2.8,-7.599 -8.699,-7.599c-7.401,0 -13.4,3.6 -17.901,7.199l-5.999,-7.699c5.7,-5.199 14.6,-9.6 25.6,-9.6c14.199,0 19.099,6.8 19.099,19.199l-0,21.9c-0,6.4 0.4,10.299 1.5,13l-12.4,-0c-0.7,-2.201 -1.2,-3.801 -1.2,-6.8c-5.4,5.499 -11.699,7.599 -19.599,7.599c-8.6,-0 -15,-4.799 -15,-13.599Z" style="fill:#1a171b;fill-rule:nonzero;"/><path d="M311.664,327.351l0,-53.099l12.3,-0l0,8.5c4,-4.599 10.199,-9.5 18.999,-9.5c9.7,0 15.7,5 15.7,15.5l-0,38.599l-12.3,-0l0,-35.1c0,-5.799 -2.4,-8.8 -7.999,-8.8c-5.401,0 -9.9,2.701 -14.4,6.9l0,37l-12.3,-0Z" style="fill:#1a171b;fill-rule:nonzero;"/><path d="M406.857,311.351l0,-21.3c-3.299,-4.299 -8.1,-6.6 -12.499,-6.6c-9.301,0 -13.1,6.001 -13.1,17.8c-0,11.199 4.799,16.8 12.7,16.8c5.099,-0 10,-3.2 12.899,-6.7Zm-37.899,-10.4c0,-18.399 9.1,-27.699 22.7,-27.699c5.699,0 11.3,2.3 15.199,6.699l0,-26.598l12.299,-0l0,60.998c0,6.4 0.401,10.299 1.6,13l-12.699,-0c-0.7,-1.5 -1.2,-4.501 -1.2,-7.2c-3.899,4.499 -9,7.999 -16.899,7.999c-12.1,-0 -21,-8.799 -21,-27.199Z" style="fill:#1a171b;fill-rule:nonzero;"/><path d="M467.251,295.651c-0.7,-8.099 -4.7,-12.399 -12.1,-12.399c-6,0 -11.5,3.4 -12.7,12.399l24.8,-0Zm-37.299,5.2c0,-20.199 14.299,-27.599 25.299,-27.599c11.9,0 23.3,7.1 23.3,28.699l-0,2.9l-36.3,0c0.5,9.599 6.4,13.799 14.2,13.799c6.9,-0 10.9,-2.299 14.899,-6.2l6.501,6.401c-5.501,6.099 -12.8,9.599 -22.3,9.599c-13.3,-0 -25.599,-8.099 -25.599,-27.599Z" style="fill:#1a171b;fill-rule:nonzero;"/><path d="M484.347,320.051l6.699,-7.5c4,3.399 9.9,6.3 16.7,6.3c6.598,-0 10.6,-1.701 10.6,-6.101c-0,-4.299 -5.401,-5.599 -11.8,-7.099c-9.1,-2.1 -20,-4.501 -20,-16.799c-0,-9.3 8,-15.6 19.7,-15.6c10.1,0 16.298,2.901 21.799,7.499l-5.9,8.001c-3.9,-3.2 -10.2,-5.801 -14.999,-5.801c-6.799,0 -9,2.401 -9,5.401c-0,4.299 5.3,5.599 11.6,7c9.1,2 20.199,4.299 20.199,16.699c-0,11.199 -10.099,16.399 -22.199,16.399c-9.8,-0 -18.599,-3.5 -23.399,-8.399Z" style="fill:#1a171b;fill-rule:nonzero;"/><path d="M567.237,327.351l0,-73.998l12.7,-0l34.999,52.798l0.2,-0l-0,-52.798l11.6,-0l-0,73.998l-11.4,-0l-36.299,-53.899l-0.2,0l0,53.899l-11.6,-0Z" style="fill:#1a171b;fill-rule:nonzero;"/><path d="M678.428,300.851c-0,-9.9 -4.2,-17.099 -13.5,-17.099c-8.9,0 -13.5,6.399 -13.5,17.099c0,10.1 4.1,17.299 13.5,17.299c8.899,-0 13.5,-6.4 13.5,-17.299Zm-39.4,0c0,-19.6 12.9,-27.599 25.9,-27.599c12.9,0 25.9,7.999 25.9,27.599c-0,19.4 -13,27.599 -25.9,27.599c-12.9,-0 -25.9,-8.199 -25.9,-27.599Z" style="fill:#1a171b;fill-rule:nonzero;"/><path d="M701.621,327.351l0,-53.099l12.3,-0l0,8.699l0.2,0c3.3,-5.298 9,-9.699 19.1,-9.699l0.799,0l-0.4,11.3c-0.599,-0.101 -2.599,-0.2 -3.299,-0.2c-7.9,0 -12.9,3.7 -16.4,9.399l0,33.6l-12.3,-0Z" style="fill:#1a171b;fill-rule:nonzero;"/><path d="M775.317,311.351l-0,-21.3c-3.3,-4.299 -8.1,-6.6 -12.5,-6.6c-9.3,0 -13.1,6.001 -13.1,17.8c-0,11.199 4.799,16.8 12.7,16.8c5.099,-0 10,-3.2 12.9,-6.7Zm-37.9,-10.4c0,-18.399 9.1,-27.699 22.7,-27.699c5.699,0 11.3,2.3 15.2,6.699l-0,-26.598l12.298,-0l0,60.998c0,6.4 0.401,10.299 1.601,13l-12.7,-0c-0.7,-1.5 -1.199,-4.501 -1.199,-7.2c-3.9,4.499 -9.001,7.999 -16.9,7.999c-12.1,-0 -21,-8.799 -21,-27.199Z" style="fill:#1a171b;fill-rule:nonzero;"/><path d="M801.411,327.351l0,-53.099l12.3,-0l-0,8.699l0.2,0c3.3,-5.298 8.999,-9.699 19.099,-9.699l0.8,0l-0.4,11.3c-0.6,-0.101 -2.6,-0.2 -3.301,-0.2c-7.899,0 -12.898,3.7 -16.398,9.399l-0,33.6l-12.3,-0Z" style="fill:#1a171b;fill-rule:nonzero;"/><path d="M842.606,327.351l0,-73.998l12.399,-0l-0,28.098c3.4,-3.598 9.8,-8.199 19.399,-8.199c9.3,0 15.301,5.5 15.301,16l-0,38.099l-12.4,-0l-0,-34.999c-0,-5.9 -2.5,-8.6 -7.9,-8.6c-5.4,0 -9.9,2.8 -14.4,6.899l-0,36.7l-12.399,-0Z" style="fill:#1a171b;fill-rule:nonzero;"/><path d="M937.199,295.651c-0.701,-8.099 -4.7,-12.399 -12.1,-12.399c-5.999,0 -11.5,3.4 -12.699,12.399l24.799,-0Zm-37.299,5.2c-0,-20.199 14.299,-27.599 25.299,-27.599c11.9,0 23.299,7.1 23.299,28.699l0,2.9l-36.298,0c0.499,9.599 6.4,13.799 14.199,13.799c6.9,-0 10.9,-2.299 14.9,-6.2l6.499,6.401c-5.499,6.099 -12.8,9.599 -22.299,9.599c-13.299,-0 -25.599,-8.099 -25.599,-27.599Z" style="fill:#1a171b;fill-rule:nonzero;"/><path d="M959.794,327.351l0,-53.099l12.4,-0l-0,53.099l-12.4,-0Zm-0.1,-62.298l-0,-10.7l12.6,-0l-0,10.7l-12.6,-0Z" style="fill:#1a171b;fill-rule:nonzero;"/><path d="M986.59,327.351l0,-53.099l12.299,-0l0,8.5c3.996,-4.599 10.205,-9.5 19.004,-9.5c9.699,0 15.698,5 15.698,15.5l-0,38.599l-12.298,-0l0,-35.1c0,-5.799 -2.4,-8.8 -7.999,-8.8c-5.41,0 -9.909,2.701 -14.405,6.9l0,37l-12.299,-0Z" style="fill:#1a171b;fill-rule:nonzero;"/><rect x="1045.38" y="291.551" width="24.698" height="8.8" style="fill:#1a171b;fill-rule:nonzero;"/><path d="M1092.18,327.351l-19.698,-73.998l12.599,-0l9.399,38.298c1.5,5.901 2.9,11.4 3.9,17.201l0.2,-0c1,-5.702 2.3,-11.201 3.799,-17.101l8.91,-38.398l11.999,-0l9.199,38.598c1.599,6.301 2.799,10.699 3.899,16.901l0.2,-0c1.1,-6.401 2.2,-10.3 3.6,-16.601l9.199,-38.898l11.699,-0l-19.498,73.998l-10.899,-0l-13.299,-56.699l-0.2,0l-14.009,56.699l-10.999,-0Z" style="fill:#1a171b;fill-rule:nonzero;"/><path d="M1198.17,295.651c-0.7,-8.099 -4.699,-12.399 -12.098,-12.399c-6,0 -11.499,3.4 -12.699,12.399l24.797,-0Zm-37.296,5.2c-0,-20.199 14.299,-27.599 25.298,-27.599c11.898,0 23.307,7.1 23.307,28.699l0,2.9l-36.306,0c0.5,9.599 6.399,13.799 14.198,13.799c6.9,-0 10.899,-2.299 14.899,-6.2l6.509,6.401c-5.509,6.099 -12.808,9.599 -22.308,9.599c-13.298,-0 -25.597,-8.099 -25.597,-27.599Z" style="fill:#1a171b;fill-rule:nonzero;"/><path d="M1215.27,320.051l6.699,-7.5c4,3.399 9.899,6.3 16.699,6.3c6.599,-0 10.599,-1.701 10.599,-6.101c-0,-4.299 -5.4,-5.599 -11.799,-7.099c-9.099,-2.1 -19.998,-4.501 -19.998,-16.799c-0,-9.3 7.999,-15.6 19.698,-15.6c10.099,0 16.298,2.901 21.798,7.499l-5.9,8.001c-3.899,-3.2 -10.199,-5.801 -14.998,-5.801c-6.8,0 -8.999,2.401 -8.999,5.401c-0,4.299 5.299,5.599 11.598,7c9.1,2 20.198,4.299 20.198,16.699c0,11.199 -10.099,16.399 -22.197,16.399c-9.8,-0 -18.599,-3.5 -23.398,-8.399Z" style="fill:#1a171b;fill-rule:nonzero;"/><path d="M1274.76,313.45l0,-29.398l-9.199,0l0,-9.8l9.199,-0l0,-18.499l12.299,-0l0,18.499l13.699,-0l-0,9.8l-13.699,0l0,26.3c0,5.699 1.7,7.999 7.799,7.999c1.8,-0 4.1,-0.3 5.3,-0.701l-0,9.701c-1.3,0.299 -5.9,0.7 -8.999,0.7c-13.499,-0 -16.399,-5.001 -16.399,-14.601Z" style="fill:#1a171b;fill-rule:nonzero;"/><path d="M1315.45,327.351l0,-43.299l-9.199,0l0,-9.8l9.199,-0l0,-5.399c0,-8.901 3.7,-15.8 17.199,-15.8c2.299,0 6.399,0.4 7.299,0.5l-0,9.5c-0.8,-0.2 -2.8,-0.4 -4.2,-0.4c-4.399,0 -7.999,1.2 -7.999,6.899l0,4.7l11.599,-0l-0,9.8l-11.599,0l0,43.299l-12.299,-0Z" style="fill:#1a171b;fill-rule:nonzero;"/><path d="M1377.45,312.551l0,-11.7c-14.698,2 -22.498,5.6 -22.498,11.399c0,4.2 2.9,6.4 7.4,6.4c6.299,-0 11.199,-2.399 15.098,-6.099Zm-34.596,2c-0,-11.5 9.799,-19.199 34.596,-22l0,-1.6c0,-5.299 -2.799,-7.599 -8.699,-7.599c-7.399,0 -13.399,3.6 -17.898,7.199l-6,-7.699c5.7,-5.199 14.599,-9.6 25.598,-9.6c14.199,0 19.108,6.8 19.108,19.199l0,21.9c0,6.4 0.39,10.299 1.5,13l-12.409,-0c-0.7,-2.201 -1.2,-3.801 -1.2,-6.8c-5.399,5.499 -11.698,7.599 -19.598,7.599c-8.599,-0 -14.998,-4.799 -14.998,-13.599Z" style="fill:#1a171b;fill-rule:nonzero;"/><rect x="1403.25" y="253.353" width="12.399" height="73.998" style="fill:#1a171b;fill-rule:nonzero;"/><path d="M1464.24,295.651c-0.7,-8.099 -4.699,-12.399 -12.099,-12.399c-5.999,0 -11.499,3.4 -12.699,12.399l24.798,-0Zm-37.296,5.2c-0,-20.199 14.298,-27.599 25.297,-27.599c11.899,0 23.298,7.1 23.298,28.699l0,2.9l-36.296,0c0.499,9.599 6.399,13.799 14.198,13.799c6.9,-0 10.899,-2.299 14.899,-6.2l6.499,6.401c-5.499,6.099 -12.799,9.599 -22.298,9.599c-13.298,-0 -25.597,-8.099 -25.597,-27.599Z" style="fill:#1a171b;fill-rule:nonzero;"/><path d="M1486.44,327.351l0,-53.099l12.299,-0l-0,8.5c4,-4.599 10.199,-9.5 18.998,-9.5c9.699,0 15.699,5 15.699,15.5l-0,38.599l-12.299,-0l-0,-35.1c-0,-5.799 -2.4,-8.8 -7.999,-8.8c-5.4,0 -9.9,2.701 -14.399,6.9l-0,37l-12.299,-0Z" style="fill:#1a171b;fill-rule:nonzero;"/></g><g><path d="M2093.52,451.367c-117.338,0 -212.519,-95.66 -212.519,-213.634l-0,-235.599l425.049,-0l0,235.599c0,117.974 -95.191,213.634 -212.53,213.634Z" style="fill:#fff;"/><path d="M2308.18,0l0,237.733c0,119.142 -96.131,215.767 -214.66,215.767c-118.518,0 -214.649,-96.625 -214.649,-215.767l-0,-237.733l429.309,0Zm-7.999,237.733c-0,114.762 -92.581,207.768 -206.661,207.768c-114.069,-0 -206.65,-93.006 -206.65,-207.768l0,-229.734l413.311,0l-0,229.734Z" style="fill:#9d9ea0;"/><path d="M2101.56,430.078c-1.89,3.372 -4.68,6.174 -8.04,8.085c-3.34,-1.901 -6.109,-4.686 -7.999,-8.038c3.13,-0.474 5.97,-1.797 8.04,-4.296c2.059,2.415 4.879,3.748 7.999,4.249Zm-45.466,-21.332c-3.77,-0.759 -7.269,-2.539 -10.119,-5.129c0.78,-3.766 2.57,-7.266 5.17,-10.097c1.409,2.813 3.529,5.099 6.519,6.298c-1.711,2.73 -2.08,5.824 -1.57,8.928Zm6.3,-49.758c-0.452,-3.84 0.149,-7.743 1.749,-11.264c3.819,-0.427 7.7,0.196 11.199,1.796c-2.26,2.227 -3.779,4.971 -3.979,8.214c-3.09,-0.748 -6.151,-0.172 -8.969,1.254Zm49.265,-9.444c3.51,-1.617 7.409,-2.249 11.249,-1.819c1.59,3.504 2.2,7.386 1.75,11.208c-2.81,-1.459 -5.89,-2.058 -9.04,-1.248c-0.239,-3.168 -1.729,-5.901 -3.959,-8.141Zm24.208,43.935c2.619,2.839 4.429,6.354 5.209,10.14c-2.85,2.59 -6.349,4.368 -10.119,5.129c0.51,-3.124 0.13,-6.241 -1.61,-8.983c2.94,-1.211 5.07,-3.476 6.52,-6.286Zm-42.347,7.913c-7.31,-0 -13.228,-5.919 -13.228,-13.224c-0,-7.301 5.918,-13.221 13.228,-13.221c7.3,0 13.219,5.92 13.219,13.221c0,7.305 -5.919,13.224 -13.219,13.224Zm-195.991,-382.727l162.135,0c-6.03,6.628 -11.899,13.394 -17.279,20.58c-20.438,27.28 -18.418,65.343 -39.066,92.025c-18.038,23.324 -48.605,29.432 -65.484,50.978c-19.148,24.426 -20.378,58.003 -38.406,82.989c-1.25,-8.987 -1.9,-18.17 -1.9,-27.504l0,-219.068Zm190.661,76.576l-0,142.492c-0,71.865 -38.246,134.703 -95.33,169.138c-29.067,-17.539 -53.255,-42.443 -69.993,-72.155c10.369,-10.805 20.528,-21.763 28.437,-34.591c16.098,-26.115 18.498,-59.171 37.576,-83.499c17.669,-22.524 48.846,-28.769 65.454,-50.922c15.829,-21.124 20.688,-47.856 33.856,-70.463Z" style="fill:#1a171b;fill-rule:nonzero;"/><path d="M2098.86,18.665l190.652,0l-0,219.068c-0,71.865 -38.246,134.703 -95.321,169.138c-57.085,-34.435 -95.331,-97.273 -95.331,-169.138l0,-219.068Zm182.783,126.571c-0,12.784 -11.559,18.311 -11.559,27.855c-0,11.295 11.159,16.746 11.159,27.644c-0,11.266 -8.849,13.174 -14.599,11.227c0,-0 3.59,-0.868 3.59,-5.259c-0,-13.349 -28.587,-12.645 -28.587,-33.612c-0,-10.961 7.779,-19.694 7.779,-26.159c-0,-3.293 -2.48,-7.924 -6.71,-9.387c5.85,-4.152 15.679,-1.606 18.209,4.745c2.029,-5.289 3.879,-13.154 1.499,-20.804c13.439,5.151 19.189,13.903 19.219,23.688l-0,0.062Zm-109.1,-79.723c3.01,5.006 10.639,-0.006 10.639,-0.006c-0,-0 -9.249,-8.765 -10.639,0.006Zm47.395,278.31c0,-6.607 6.49,-12.318 7.14,-12.871c0.32,0.051 0.66,0.078 0.99,0.078c3.549,-0 6.429,-2.877 6.429,-6.426c0,-0.971 -0.22,-1.891 -0.6,-2.715c17.608,-31.438 12.949,-36.002 -14.348,-58.306c-7.48,-6.105 -9.78,-23.961 -9.78,-40.368c-10.858,-25.359 -40.186,-22.415 -51.245,-47.307l12.819,0.695c6.579,0.356 11.199,-3.62 13.389,-6.89c2.04,-3.054 0.03,-7.223 -3.28,-6.103c-1.49,4.109 -5.509,7.369 -9.949,7.129l-31.847,-1.718c-6.329,6.301 -4.97,15.413 6.11,20.172l-0,4.755l7.599,-0c2.7,8.592 2.8,16.287 0.29,21.477c-6.06,-0 -12.899,-7.234 -12.899,-7.234c0.02,-0.753 0.12,-1.377 0.12,-2.025c0,-3.547 -2.88,-6.423 -6.419,-6.423c-0.51,0 -0.99,0.057 -1.46,0.166c-3.61,-5.73 -3.03,-17.991 -12.369,-31.629l7.069,-8.596l25.868,-8.696c0.75,-30.323 35.597,-37.339 40.946,-59.486c7.459,0 12.109,-2.207 15.728,-9.291c0.93,-1.834 0.49,-6.147 -4.179,-5.218c-2.6,7.346 -6.04,8.642 -10.859,8.642c-12.569,-0 -22.698,-2.11 -24.378,3.482c-2.84,9.436 -15.928,3.516 -15.928,3.516l3.199,-2.332c0.27,0.032 0.54,0.049 0.81,0.049c2.43,0 4.39,-1.276 4.39,-2.851c-0,-1.575 -1.97,-2.851 -4.39,-2.851c-2.42,-0.001 -4.379,1.276 -4.379,2.851c-0,0.097 -0,0.194 0.02,0.288l-3,2.18c-3.88,0 -4.55,-3.031 -4.649,-4.471c1.529,0.002 2.679,-1.269 2.679,-2.837c0,-1.568 -1.15,-2.839 -2.56,-2.839c0.06,-1.157 0.71,-3.547 3.48,-5.75l22.328,-17.724c3.24,-2.569 9.689,-6.023 12.559,-7.509c-0.35,-4.859 1.49,-11.272 1.49,-15.804c-0,-0 6.569,2.813 9.259,9.195c1.98,4.723 0.73,7.656 -0.15,9.97c1.21,1.905 6.279,1.923 6.879,-2.962c0.23,-1.921 0.2,-4.187 -0.53,-6.813c8.689,0.944 20.918,3.924 39.736,2.025c-3.809,4.414 -8.709,7.605 -13.868,9.911c9.369,2.215 20.888,6.83 26.657,16.422c-4.519,2.297 -9.459,3.799 -14.358,4.755c8.999,7.828 12.508,19.55 20.208,24.287c-9.979,2.767 -18.199,1.986 -24.678,-0.208c3.13,6.397 7.979,13.85 14.629,17.255c-9.049,4.071 -17.859,6.394 -24.668,7.715c2.13,3.562 5.259,7.953 9.079,10.85c-7.029,0.264 -12.669,2.222 -15.958,3.679c-0.59,8.213 -2.85,25.257 17.968,47.233c27.747,20.98 34.667,36.873 12.799,65.075c-0,14.294 2.389,20.041 9.799,34.637c-0.64,1.426 -3.67,8.288 -6.7,16.684c-3.329,9.2 -5.819,19.304 -5.819,28.187c0,-0 -4.7,-0.025 -4.7,4.984l0,7.596c-8.629,2.693 -17.398,2.795 -22.518,0.313Zm-107.969,-185.105c-4.01,-3.96 -4.05,-12.457 -4.02,-13.973c0.57,-0.296 1.1,-0.682 1.58,-1.158c2.51,-2.507 2.51,-6.576 -0,-9.085c-0.38,-0.379 -0.8,-0.703 -1.24,-0.968c3.62,-10.68 10.679,-16.226 13.539,-31.382l11.039,0l26.267,20.609c-4.679,5.281 -8.559,11.46 -10.359,19.324l-13.988,-26.026c-8.97,0 -14.479,7.425 -9.83,18.509l-3.379,3.395l5.199,5.507c-3.889,7.711 -9.099,13.081 -14.808,15.248Zm41.176,120.59l37.216,-0c0,-15.337 -11.389,-25.402 -11.389,-43.343c0,-11.738 4.61,-19.1 16.849,-22.635c3.07,2.778 5.819,6.314 8.089,11.147c0.1,15.711 2.73,26.497 6.48,34.299c-0,0 -8.46,6.44 -8.46,30.119c0,-0 -33.577,-1.539 -37.606,2.841l-5.29,0l0,7.582c-8.269,2.722 -15.958,2.814 -21.468,0.275c0,-6.736 7.23,-12.864 7.23,-12.864c0.75,0.028 1.37,0.123 2.019,0.123c3.55,-0 6.43,-2.875 6.43,-6.424c-0,-0.382 -0.04,-0.757 -0.1,-1.12Zm-83.312,141.461c-8.679,-6.312 -11.939,-17.268 -3.58,-21.496c0.56,-1.475 0,-3.197 -1.321,-4.058c-9.249,1.491 -13.047,-9.285 -9.729,-19.503c3.311,-10.212 12.729,-16.689 19.339,-10.047c1.57,0.08 3.04,-0.985 3.45,-2.507c-4.281,-8.336 4.789,-15.29 15.538,-15.29c10.739,0.002 19.809,6.954 15.529,15.29c0.41,1.522 1.88,2.587 3.45,2.507c6.609,-6.642 16.018,-0.163 19.338,10.055c3.32,10.212 -0.48,20.986 -9.729,19.497c-1.33,0.859 -1.89,2.581 -1.32,4.056c8.359,4.23 5.1,15.186 -3.59,21.5c-8.689,6.312 -20.108,6.021 -21.548,-3.236c-1.231,-0.992 -3.039,-0.992 -4.269,0c-1.441,9.257 -12.869,9.546 -21.558,3.232Zm44.375,-32.601c0,11.427 -9.269,20.69 -20.688,20.69c-11.428,0 -20.688,-9.263 -20.688,-20.69c0,-11.424 9.26,-20.687 20.688,-20.687c11.419,0 20.688,9.263 20.688,20.687Z" style="fill:#1a171b;"/></g></g></svg>