<?xml version="1.0" encoding="UTF-8" standalone="no"?>
<svg
   xmlns:dc="http://purl.org/dc/elements/1.1/"
   xmlns:cc="http://creativecommons.org/ns#"
   xmlns:rdf="http://www.w3.org/1999/02/22-rdf-syntax-ns#"
   xmlns:svg="http://www.w3.org/2000/svg"
   xmlns="http://www.w3.org/2000/svg"
   height="37.099998"
   width="170.10001"
   xml:space="preserve"
   viewBox="0 0 170.10001 37.099998"
   y="0px"
   x="0px"
   id="Ebene_1"
   version="1.1"><metadata
   id="metadata91"><rdf:RDF><cc:Work
       rdf:about=""><dc:format>image/svg+xml</dc:format><dc:type
         rdf:resource="http://purl.org/dc/dcmitype/StillImage" /><dc:title></dc:title></cc:Work></rdf:RDF></metadata><defs
   id="defs89" />
<style
   id="style2"
   type="text/css">
	.st0{fill:#7A7B7A;}
	.st1{fill:#FFFFFF;}
</style>
<polygon
   transform="translate(-2.5,-1.9)"
   id="polygon4"
   points="4.6,35.8 19.2,33.5 45.7,29.2 43.7,6.2 20.3,3.8 2.5,1.9 3.6,19.2 " />
<g
   transform="translate(-2.5,-1.9)"
   id="g30">
	<path
   id="path6"
   d="m 61.6,24.1 v -6.4 c 0,-2 -0.8,-3 -2.3,-3 -0.8,0 -1.3,0.3 -1.8,0.9 -0.4,0.6 -0.6,1.3 -0.6,2.1 v 6.4 h -1.4 v -6.4 c 0,-2 -0.8,-3 -2.3,-3 -0.8,0 -1.4,0.3 -1.8,0.8 -0.4,0.5 -0.6,1.2 -0.6,2.1 v 6.6 H 49.4 V 13.7 h 1.4 v 1 c 0.7,-0.8 1.7,-1.3 2.9,-1.3 0.6,0 1.1,0.1 1.6,0.4 0.5,0.3 0.9,0.7 1.2,1.2 0.3,-0.5 0.7,-0.8 1.2,-1.1 0.5,-0.3 1.1,-0.5 1.8,-0.5 1,0 1.9,0.3 2.6,1 0.7,0.7 1,1.6 1,2.7 v 7 z" />
	<path
   id="path8"
   d="m 72.2,24.1 v -1 c -0.9,0.8 -2,1.3 -3.1,1.3 -1.1,0 -2,-0.3 -2.6,-0.9 -0.6,-0.6 -1,-1.5 -1,-2.6 0,-1.1 0.4,-2 1.1,-2.6 0.7,-0.6 1.6,-0.9 2.7,-0.9 1,0 1.9,0.2 2.8,0.7 v -0.9 c 0,-1.7 -0.8,-2.6 -2.3,-2.6 -1,0 -2,0.4 -3.1,1.1 l -0.4,-1.2 c 1.2,-0.8 2.4,-1.1 3.7,-1.1 0.4,0 0.8,0.1 1.2,0.2 0.4,0.1 0.7,0.3 1.1,0.5 0.4,0.3 0.7,0.6 0.9,1.1 0.2,0.5 0.3,1.1 0.3,1.8 v 7.1 z m -2.9,-1 c 1.1,0 2.1,-0.5 2.9,-1.6 v -2 c -0.9,-0.6 -1.8,-0.9 -2.7,-0.9 -0.8,0 -1.4,0.2 -1.9,0.6 -0.5,0.4 -0.7,0.9 -0.7,1.7 0,0.7 0.2,1.3 0.6,1.7 0.5,0.3 1.1,0.5 1.8,0.5 z" />
	<path
   id="path10"
   d="m 79.4,24.4 c -1.4,0 -2.6,-0.6 -3.6,-1.8 l 1,-0.9 c 0.8,1 1.7,1.4 2.7,1.4 0.6,0 1.1,-0.1 1.5,-0.4 0.4,-0.3 0.6,-0.6 0.6,-1.1 0,-0.3 -0.1,-0.6 -0.2,-0.8 C 81.3,20.6 81,20.3 80.8,20.1 80.6,19.9 80.2,19.7 80,19.6 79.8,19.5 79.4,19.4 79,19.2 78.5,19 78.1,18.8 77.8,18.6 77.5,18.4 77.2,18.2 76.8,18 76.5,17.8 76.2,17.5 76.1,17.1 75.9,16.8 75.9,16.4 75.9,16 c 0,-0.8 0.3,-1.4 0.9,-1.9 0.6,-0.5 1.4,-0.7 2.4,-0.7 1.4,0 2.5,0.5 3.4,1.6 l -0.9,0.8 c -0.8,-0.8 -1.6,-1.1 -2.5,-1.1 -0.6,0 -1.1,0.1 -1.4,0.4 -0.4,0.2 -0.5,0.6 -0.5,1 0,0.2 0,0.4 0.1,0.6 0.1,0.2 0.2,0.3 0.3,0.4 0.1,0.1 0.3,0.2 0.6,0.4 0.3,0.1 0.5,0.2 0.6,0.3 0.2,0.1 0.4,0.2 0.7,0.3 0.4,0.2 0.7,0.3 1,0.4 0.2,0.1 0.5,0.3 0.9,0.5 0.3,0.2 0.6,0.4 0.8,0.6 0.2,0.2 0.3,0.5 0.5,0.8 0.1,0.3 0.2,0.7 0.2,1.1 0,0.9 -0.3,1.6 -1,2.1 -0.7,0.5 -1.5,0.8 -2.6,0.8 z" />
	<path
   id="path12"
   d="m 89,24.4 c -1.3,0 -2.3,-0.5 -3,-1.4 -0.7,-1 -1.1,-2.3 -1.1,-4 0,-1.7 0.4,-3.1 1.1,-4 0.8,-1 1.8,-1.5 3.2,-1.5 0.8,0 1.5,0.2 2.1,0.6 0.6,0.4 1,0.9 1.3,1.6 l -1.3,0.5 c -0.4,-0.9 -1.1,-1.4 -2.1,-1.4 -1.8,0 -2.7,1.4 -2.7,4.2 0,2.8 0.9,4.2 2.7,4.2 0.6,0 1,-0.1 1.4,-0.4 0.4,-0.3 0.7,-0.7 0.9,-1.2 l 1.3,0.5 c -0.2,0.7 -0.7,1.3 -1.4,1.8 -0.8,0.3 -1.6,0.5 -2.4,0.5 z" />
	<path
   id="path14"
   d="M 95,24.1 V 10 l 1.4,-0.7 v 5.5 c 0.6,-0.9 1.5,-1.4 2.7,-1.4 1.3,0 2.2,0.4 2.8,1.2 0.6,0.8 0.9,2 0.9,3.8 v 5.8 h -1.4 v -6.4 c 0,-1.1 -0.2,-1.8 -0.7,-2.3 -0.4,-0.5 -1,-0.7 -1.8,-0.7 -1.7,0 -2.6,1 -2.6,3 v 6.4 H 95 Z" />
	<path
   id="path16"
   d="m 107.5,11.2 c -0.2,0.2 -0.4,0.3 -0.7,0.3 -0.3,0 -0.5,-0.1 -0.7,-0.3 -0.2,-0.2 -0.3,-0.4 -0.3,-0.7 0,-0.3 0.1,-0.5 0.3,-0.7 0.2,-0.2 0.4,-0.3 0.7,-0.3 0.3,0 0.5,0.1 0.7,0.3 0.2,0.2 0.3,0.4 0.3,0.7 -0.1,0.3 -0.1,0.6 -0.3,0.7 z m -1.4,12.9 V 13.7 h 1.4 v 10.5 h -1.4 z" />
	<path
   id="path18"
   d="m 117.3,24.1 v -6.4 c 0,-1.1 -0.2,-1.8 -0.7,-2.3 -0.4,-0.5 -1,-0.7 -1.8,-0.7 -1.7,0 -2.6,1 -2.6,3 v 6.4 h -1.4 V 13.7 h 1.4 v 1.1 c 0.6,-0.9 1.5,-1.4 2.7,-1.4 1.3,0 2.2,0.4 2.8,1.2 0.6,0.8 0.9,2 0.9,3.8 v 5.8 h -1.3 z" />
	<path
   id="path20"
   d="m 125.7,24.4 c -1.4,0 -2.5,-0.5 -3.3,-1.6 -0.8,-1.1 -1.3,-2.4 -1.3,-3.9 0,-1.7 0.4,-3 1.3,-4 0.8,-1 1.9,-1.5 3.3,-1.5 1.2,0 2.2,0.4 3,1.3 0.8,0.9 1.2,2.1 1.2,3.8 0,0.4 0,0.7 0,1 h -7.1 c 0.1,1.1 0.5,2 1,2.6 0.5,0.6 1.2,1 2.1,1 0.8,0 1.6,-0.3 2.4,-0.8 l 0.8,1 c -1.1,0.7 -2.2,1.1 -3.4,1.1 z m -3,-6.2 h 5.8 c 0,-1.3 -0.3,-2.2 -0.8,-2.7 -0.5,-0.5 -1.2,-0.8 -1.9,-0.8 -0.9,0 -1.6,0.3 -2.2,0.9 -0.6,0.6 -0.9,1.4 -0.9,2.6 z" />
	<path
   id="path22"
   d="m 138.8,24.1 v -6.4 c 0,-1.1 -0.2,-1.8 -0.7,-2.3 -0.4,-0.5 -1,-0.7 -1.8,-0.7 -1.7,0 -2.6,1 -2.6,3 v 6.4 h -1.4 V 13.7 h 1.4 v 1.1 c 0.6,-0.9 1.5,-1.4 2.7,-1.4 1.3,0 2.2,0.4 2.8,1.2 0.6,0.8 0.9,2 0.9,3.8 v 5.8 h -1.3 z" />
	<path
   id="path24"
   d="m 147.8,24.4 c -0.5,0 -0.9,-0.1 -1.3,-0.2 -0.4,-0.1 -0.7,-0.3 -0.9,-0.4 -0.2,-0.1 -0.4,-0.3 -0.7,-0.6 v 0.9 h -1.4 v -14 l 1.4,-0.7 v 5.4 c 0.3,-0.4 0.8,-0.7 1.3,-0.9 0.5,-0.2 1,-0.3 1.5,-0.3 1.3,0 2.4,0.5 3.2,1.5 0.8,1 1.2,2.3 1.2,4 0,1.8 -0.4,3.1 -1.1,4.1 -0.9,0.7 -1.9,1.2 -3.2,1.2 z m -0.3,-1.3 c 1,0 1.7,-0.4 2.2,-1.1 0.5,-0.7 0.7,-1.8 0.7,-3.1 0,-1.4 -0.2,-2.4 -0.7,-3.1 -0.5,-0.7 -1.2,-1.1 -2.2,-1.1 -0.6,0 -1.1,0.2 -1.6,0.5 -0.5,0.3 -0.8,0.7 -1.1,1.1 v 5.1 c 0.3,0.5 0.7,0.9 1.2,1.2 0.5,0.3 1,0.5 1.5,0.5 z" />
	<path
   id="path26"
   d="m 160.6,24.1 v -1 c -0.9,0.8 -2,1.3 -3.1,1.3 -1.1,0 -2,-0.3 -2.6,-0.9 -0.6,-0.6 -1,-1.5 -1,-2.6 0,-1.1 0.4,-2 1.1,-2.6 0.7,-0.6 1.6,-0.9 2.7,-0.9 1,0 1.9,0.2 2.8,0.7 v -0.9 c 0,-1.7 -0.8,-2.6 -2.3,-2.6 -1,0 -2,0.4 -3.1,1.1 l -0.4,-1.2 c 1.2,-0.8 2.4,-1.1 3.7,-1.1 0.4,0 0.8,0.1 1.2,0.2 0.4,0.1 0.7,0.3 1.1,0.5 0.4,0.3 0.7,0.6 0.9,1.1 0.2,0.5 0.3,1.1 0.3,1.8 v 7.1 z m -3,-1 c 1.1,0 2.1,-0.5 2.9,-1.6 v -2 c -0.9,-0.6 -1.8,-0.9 -2.7,-0.9 -0.8,0 -1.4,0.2 -1.9,0.6 -0.5,0.4 -0.7,0.9 -0.7,1.7 0,0.7 0.2,1.3 0.6,1.7 0.5,0.3 1.1,0.5 1.8,0.5 z" />
	<path
   id="path28"
   d="m 171.1,24.1 v -1 c -0.4,0.5 -0.7,0.8 -1.1,1 -0.4,0.2 -0.9,0.3 -1.5,0.3 -1.4,0 -2.3,-0.4 -2.9,-1.1 -0.6,-0.8 -0.9,-2 -0.9,-3.7 v -5.8 h 1.4 v 6.4 c 0,1 0.2,1.8 0.7,2.3 0.4,0.5 1,0.7 1.8,0.7 1.7,0 2.6,-1 2.6,-3 v -6.4 h 1.4 v 10.5 h -1.5 z" />
</g>
<g
   transform="translate(-2.5,-1.9)"
   id="g76">
	<path
   style="fill:#7a7b7a"
   id="path32"
   d="m 54.6,36.9 h -0.7 l -3.4,-5.5 c -0.2,-0.3 -0.3,-0.5 -0.3,-0.5 v 0.5 5.5 h -0.7 v -7.3 h 0.7 l 3.4,5.6 c 0.1,0.2 0.2,0.4 0.3,0.5 v -0.5 -5.6 h 0.7 z"
   class="st0" />
	<path
   style="fill:#7a7b7a"
   id="path34"
   d="m 58.4,37 c -0.7,0 -1.3,-0.3 -1.7,-0.8 -0.4,-0.5 -0.6,-1.2 -0.6,-2 0,-0.9 0.2,-1.6 0.6,-2.1 0.4,-0.5 1,-0.7 1.7,-0.7 0.6,0 1.1,0.2 1.5,0.7 0.4,0.4 0.6,1.1 0.6,1.9 0,0.2 0,0.4 0,0.5 h -3.6 c 0.1,0.6 0.2,1 0.5,1.3 0.3,0.3 0.6,0.5 1.1,0.5 0.4,0 0.8,-0.1 1.2,-0.4 l 0.4,0.5 C 59.6,36.8 59,37 58.4,37 Z m -1.5,-3.1 h 2.9 c 0,-0.6 -0.1,-1.1 -0.4,-1.4 -0.3,-0.3 -0.6,-0.4 -0.9,-0.4 -0.4,0 -0.8,0.1 -1.1,0.5 -0.3,0.3 -0.5,0.7 -0.5,1.3 z"
   class="st0" />
	<path
   style="fill:#7a7b7a"
   id="path36"
   d="M 63.1,37 C 62.4,37 62,36.6 62,35.8 V 32.2 H 61.1 V 31.5 H 62 v -1.8 l 0.7,-0.4 v 2.2 h 1.4 v 0.7 h -1.4 v 3.3 c 0,0.3 0,0.5 0.1,0.6 0.1,0.1 0.2,0.2 0.5,0.2 0.2,0 0.5,-0.1 0.8,-0.3 L 64,36.8 C 63.8,37 63.5,37 63.1,37 Z"
   class="st0" />
	<path
   style="fill:#7a7b7a"
   id="path38"
   d="M 65.3,36.9 V 36.4 L 68,32.2 H 65.5 V 31.5 H 69 V 32 l -2.8,4.3 H 69 V 37 h -3.7 z"
   class="st0" />
	<path
   style="fill:#7a7b7a"
   id="path40"
   d="M 71.3,36.9 70,31.6 h 0.7 l 0.9,3.9 0.1,0.6 c 0,-0.1 0,-0.2 0.1,-0.3 0,-0.1 0.1,-0.2 0.1,-0.3 L 73,31.6 h 0.5 l 1.1,3.9 c 0,0.1 0.1,0.2 0.1,0.3 0,0.1 0.1,0.2 0.1,0.3 0,-0.1 0,-0.2 0.1,-0.3 C 75,35.7 75,35.6 75,35.5 l 0.8,-3.9 h 0.7 L 75.2,37 h -0.7 l -1.1,-3.2 c 0,0 0,-0.1 -0.1,-0.3 -0.1,-0.2 -0.1,-0.3 -0.1,-0.4 0,0.1 -0.1,0.3 -0.2,0.7 L 72,37 h -0.7 z"
   class="st0" />
	<path
   style="fill:#7a7b7a"
   id="path42"
   d="m 79.6,37 c -0.7,0 -1.3,-0.3 -1.7,-0.8 -0.4,-0.5 -0.6,-1.2 -0.6,-2 0,-0.9 0.2,-1.6 0.6,-2.1 0.4,-0.5 1,-0.7 1.7,-0.7 0.6,0 1.1,0.2 1.5,0.7 0.4,0.4 0.6,1.1 0.6,1.9 0,0.2 0,0.4 0,0.5 h -3.6 c 0.1,0.6 0.2,1 0.5,1.3 0.3,0.3 0.6,0.5 1.1,0.5 0.4,0 0.8,-0.1 1.2,-0.4 l 0.4,0.5 C 80.8,36.8 80.2,37 79.6,37 Z M 78,33.9 h 3 c 0,-0.6 -0.1,-1.1 -0.4,-1.4 -0.3,-0.3 -0.6,-0.4 -0.9,-0.4 -0.4,0 -0.8,0.1 -1.1,0.5 -0.4,0.3 -0.5,0.7 -0.6,1.3 z"
   class="st0" />
	<path
   style="fill:#7a7b7a"
   id="path44"
   d="m 83,36.9 v -5.4 h 0.7 v 0.8 c 0.3,-0.6 0.7,-0.9 1.4,-0.9 0.3,0 0.6,0.1 0.8,0.2 l -0.1,0.7 c -0.2,-0.1 -0.4,-0.2 -0.7,-0.2 -0.3,0 -0.6,0.1 -0.9,0.4 -0.3,0.3 -0.4,0.7 -0.4,1.3 v 3 H 83 Z"
   class="st0" />
	<path
   style="fill:#7a7b7a"
   id="path46"
   d="m 91,36.9 h -0.8 l -1.7,-3.4 -0.9,1 v 2.4 h -0.7 v -7.2 l 0.7,-0.4 v 4.3 l 1.9,-2 h 0.8 L 89,33 Z"
   class="st0" />
	<path
   style="fill:#7a7b7a"
   id="path48"
   d="m 96.1,37 c -0.7,0 -1.2,-0.3 -1.6,-0.8 -0.4,-0.5 -0.6,-1.2 -0.6,-2 0,-0.9 0.2,-1.6 0.6,-2.1 0.4,-0.5 0.9,-0.7 1.6,-0.7 0.5,0 1,0.2 1.4,0.5 v -2.2 l 0.7,-0.4 v 7.6 H 97.5 V 36.4 C 97.2,36.9 96.7,37 96.1,37 Z m 0.1,-0.6 c 0.3,0 0.5,-0.1 0.8,-0.2 0.2,-0.1 0.4,-0.4 0.6,-0.6 v -2.7 c -0.3,-0.5 -0.8,-0.8 -1.3,-0.8 -0.5,0 -0.9,0.2 -1.1,0.6 -0.3,0.4 -0.4,0.9 -0.4,1.6 0,0.6 0.1,1.1 0.4,1.5 0.2,0.4 0.5,0.6 1,0.6 z"
   class="st0" />
	<path
   style="fill:#7a7b7a"
   id="path50"
   d="m 102,37 c -0.7,0 -1.3,-0.3 -1.7,-0.8 -0.4,-0.5 -0.6,-1.2 -0.6,-2 0,-0.9 0.2,-1.6 0.6,-2.1 0.4,-0.5 1,-0.7 1.7,-0.7 0.6,0 1.1,0.2 1.5,0.7 0.4,0.4 0.6,1.1 0.6,1.9 0,0.2 0,0.4 0,0.5 h -3.6 c 0.1,0.6 0.2,1 0.5,1.3 0.3,0.3 0.6,0.5 1.1,0.5 0.4,0 0.8,-0.1 1.2,-0.4 l 0.4,0.5 c -0.6,0.4 -1.1,0.6 -1.7,0.6 z m -1.6,-3.1 h 2.9 c 0,-0.6 -0.1,-1.1 -0.4,-1.4 -0.3,-0.3 -0.6,-0.4 -0.9,-0.4 -0.4,0 -0.8,0.1 -1.1,0.5 -0.3,0.3 -0.5,0.7 -0.5,1.3 z"
   class="st0" />
	<path
   style="fill:#7a7b7a"
   id="path52"
   d="m 105.4,36.9 v -5.4 h 0.7 v 0.8 c 0.3,-0.6 0.7,-0.9 1.4,-0.9 0.3,0 0.6,0.1 0.8,0.2 l -0.1,0.7 c -0.2,-0.1 -0.4,-0.2 -0.7,-0.2 -0.3,0 -0.6,0.1 -0.9,0.4 -0.3,0.3 -0.4,0.7 -0.4,1.3 v 3 h -0.8 z"
   class="st0" />
	<path
   style="fill:#7a7b7a"
   id="path54"
   d="m 115.9,36.9 -2.3,-4.2 -1.2,1.5 v 2.7 h -0.7 v -7.3 h 0.7 v 3.6 l 2.9,-3.6 h 0.8 l -2,2.5 2.6,4.8 z"
   class="st0" />
	<path
   style="fill:#7a7b7a"
   id="path56"
   d="m 119.7,37 c -0.7,0 -1.3,-0.2 -1.7,-0.7 -0.4,-0.5 -0.6,-1.2 -0.6,-2.1 0,-0.9 0.2,-1.6 0.6,-2.1 0.4,-0.5 1,-0.7 1.7,-0.7 0.7,0 1.3,0.2 1.7,0.7 0.4,0.5 0.6,1.2 0.6,2.1 0,0.9 -0.2,1.6 -0.6,2.1 -0.5,0.5 -1,0.7 -1.7,0.7 z m 0,-0.6 c 0.5,0 0.9,-0.2 1.1,-0.6 0.3,-0.4 0.4,-0.9 0.4,-1.6 0,-0.7 -0.1,-1.2 -0.4,-1.6 -0.3,-0.4 -0.6,-0.6 -1.1,-0.6 -0.5,0 -0.9,0.2 -1.1,0.5 -0.3,0.4 -0.4,0.9 -0.4,1.6 0,0.7 0.1,1.2 0.4,1.6 0.2,0.5 0.6,0.7 1.1,0.7 z"
   class="st0" />
	<path
   style="fill:#7a7b7a"
   id="path58"
   d="m 129.6,36.9 v -3.3 c 0,-1 -0.4,-1.5 -1.2,-1.5 -0.4,0 -0.7,0.1 -0.9,0.4 -0.2,0.3 -0.3,0.7 -0.3,1.1 v 3.3 h -0.7 v -3.3 c 0,-1 -0.4,-1.5 -1.2,-1.5 -0.4,0 -0.7,0.1 -0.9,0.4 -0.2,0.3 -0.3,0.6 -0.3,1.1 V 37 h -0.7 v -5.4 h 0.7 v 0.5 c 0.4,-0.4 0.9,-0.6 1.5,-0.6 0.3,0 0.6,0.1 0.8,0.2 0.3,0.1 0.5,0.3 0.6,0.6 0.2,-0.2 0.4,-0.4 0.6,-0.6 0.3,-0.2 0.6,-0.2 0.9,-0.2 0.5,0 1,0.2 1.3,0.5 0.3,0.3 0.5,0.8 0.5,1.4 V 37 h -0.7 z"
   class="st0" />
	<path
   style="fill:#7a7b7a"
   id="path60"
   d="m 134.2,37 c -0.6,0 -1.1,-0.2 -1.5,-0.7 v 2.3 L 132,39 v -7.5 h 0.7 V 32 c 0.4,-0.4 0.9,-0.6 1.5,-0.6 0.7,0 1.2,0.3 1.6,0.8 0.4,0.5 0.6,1.2 0.6,2 0,0.9 -0.2,1.6 -0.6,2.1 -0.4,0.5 -0.9,0.7 -1.6,0.7 z m -0.1,-0.6 c 0.5,0 0.9,-0.2 1.1,-0.6 0.3,-0.4 0.4,-0.9 0.4,-1.6 0,-0.7 -0.1,-1.2 -0.4,-1.6 -0.3,-0.4 -0.6,-0.6 -1.1,-0.6 -0.3,0 -0.6,0.1 -0.8,0.2 -0.2,0.1 -0.4,0.3 -0.6,0.6 v 2.6 c 0.5,0.7 0.9,1 1.4,1 z"
   class="st0" />
	<path
   style="fill:#7a7b7a"
   id="path62"
   d="m 139.7,37 c -0.7,0 -1.3,-0.3 -1.7,-0.8 -0.4,-0.5 -0.6,-1.2 -0.6,-2 0,-0.9 0.2,-1.6 0.6,-2.1 0.4,-0.5 1,-0.7 1.7,-0.7 0.6,0 1.1,0.2 1.5,0.7 0.4,0.4 0.6,1.1 0.6,1.9 0,0.2 0,0.4 0,0.5 h -3.6 c 0.1,0.6 0.2,1 0.5,1.3 0.3,0.3 0.6,0.5 1.1,0.5 0.4,0 0.8,-0.1 1.2,-0.4 l 0.4,0.5 c -0.5,0.4 -1.1,0.6 -1.7,0.6 z m -1.5,-3.1 h 2.9 c 0,-0.6 -0.1,-1.1 -0.4,-1.4 -0.3,-0.3 -0.6,-0.4 -0.9,-0.4 -0.4,0 -0.8,0.1 -1.1,0.5 -0.3,0.3 -0.5,0.7 -0.5,1.3 z"
   class="st0" />
	<path
   style="fill:#7a7b7a"
   id="path64"
   d="m 144.4,37 c -0.7,0 -1.1,-0.4 -1.1,-1.2 v -3.6 h -0.9 v -0.7 h 0.9 v -1.8 l 0.7,-0.4 v 2.2 h 1.4 v 0.7 H 144 v 3.3 c 0,0.3 0,0.5 0.1,0.6 0.1,0.1 0.2,0.2 0.5,0.2 0.3,0 0.5,-0.1 0.8,-0.3 l -0.1,0.8 c -0.2,0.2 -0.5,0.2 -0.9,0.2 z"
   class="st0" />
	<path
   style="fill:#7a7b7a"
   id="path66"
   d="m 148.6,37 c -0.7,0 -1.3,-0.3 -1.7,-0.8 -0.4,-0.5 -0.6,-1.2 -0.6,-2 0,-0.9 0.2,-1.6 0.6,-2.1 0.4,-0.5 1,-0.7 1.7,-0.7 0.6,0 1.1,0.2 1.5,0.7 0.4,0.4 0.6,1.1 0.6,1.9 0,0.2 0,0.4 0,0.5 h -3.6 c 0.1,0.6 0.2,1 0.5,1.3 0.3,0.3 0.6,0.5 1.1,0.5 0.4,0 0.8,-0.1 1.2,-0.4 l 0.4,0.5 c -0.5,0.4 -1.1,0.6 -1.7,0.6 z m -1.5,-3.1 h 2.9 c 0,-0.6 -0.1,-1.1 -0.4,-1.4 -0.3,-0.3 -0.6,-0.4 -0.9,-0.4 -0.4,0 -0.8,0.1 -1.1,0.5 -0.4,0.3 -0.5,0.7 -0.5,1.3 z"
   class="st0" />
	<path
   style="fill:#7a7b7a"
   id="path68"
   d="m 155.4,36.9 v -3.3 c 0,-0.5 -0.1,-0.9 -0.3,-1.2 -0.2,-0.2 -0.5,-0.4 -0.9,-0.4 -0.9,0 -1.3,0.5 -1.3,1.5 v 3.3 h -0.7 v -5.4 h 0.7 V 32 c 0.3,-0.5 0.8,-0.7 1.4,-0.7 0.7,0 1.1,0.2 1.5,0.6 0.3,0.4 0.5,1 0.5,1.9 v 3 h -0.9 z"
   class="st0" />
	<path
   style="fill:#7a7b7a"
   id="path70"
   d="m 157.6,36.9 v -0.5 l 2.7,-4.2 h -2.5 v -0.7 h 3.5 V 32 l -2.8,4.3 h 2.7 V 37 h -3.6 z"
   class="st0" />
	<path
   style="fill:#7a7b7a"
   id="path72"
   d="m 164.8,37 c -0.7,0 -1.3,-0.3 -1.7,-0.8 -0.4,-0.5 -0.6,-1.2 -0.6,-2 0,-0.9 0.2,-1.6 0.6,-2.1 0.4,-0.5 1,-0.7 1.7,-0.7 0.6,0 1.1,0.2 1.5,0.7 0.4,0.4 0.6,1.1 0.6,1.9 0,0.2 0,0.4 0,0.5 h -3.6 c 0.1,0.6 0.2,1 0.5,1.3 0.3,0.3 0.6,0.5 1.1,0.5 0.4,0 0.8,-0.1 1.2,-0.4 l 0.4,0.5 c -0.5,0.4 -1.1,0.6 -1.7,0.6 z m -1.6,-3.1 h 2.9 c 0,-0.6 -0.1,-1.1 -0.4,-1.4 -0.3,-0.3 -0.6,-0.4 -0.9,-0.4 -0.4,0 -0.8,0.1 -1.1,0.5 -0.3,0.3 -0.4,0.7 -0.5,1.3 z"
   class="st0" />
	<path
   style="fill:#7a7b7a"
   id="path74"
   d="m 171.5,36.9 v -3.3 c 0,-0.5 -0.1,-0.9 -0.3,-1.2 -0.2,-0.2 -0.5,-0.4 -0.9,-0.4 -0.9,0 -1.3,0.5 -1.3,1.5 v 3.3 h -0.7 V 31.4 H 169 V 32 c 0.3,-0.5 0.8,-0.7 1.4,-0.7 0.7,0 1.1,0.2 1.5,0.6 0.3,0.4 0.5,1 0.5,1.9 v 3 h -0.9 z"
   class="st0" />
</g>
<g
   transform="translate(-2.5,-1.9)"
   id="g84">
	<path
   style="fill:#ffffff"
   id="path78"
   d="m 18.1,22.9 c -0.9,1 -2.1,1.5 -3.6,1.5 -1.5,0 -2.7,-0.5 -3.6,-1.5 -0.9,-1 -1.3,-2.3 -1.3,-4.1 0,-1.7 0.4,-3.1 1.3,-4.1 0.9,-1 2.1,-1.5 3.6,-1.5 1.5,0 2.7,0.5 3.6,1.5 0.9,1 1.3,2.4 1.3,4.1 0,1.7 -0.4,3.1 -1.3,4.1 z m -3.6,-1.2 c 0.7,0 1.2,-0.3 1.6,-0.8 0.4,-0.5 0.6,-1.2 0.6,-2.2 0,-0.9 -0.2,-1.7 -0.6,-2.2 -0.4,-0.5 -0.9,-0.8 -1.6,-0.8 -0.7,0 -1.2,0.3 -1.6,0.8 -0.4,0.5 -0.6,1.3 -0.6,2.2 0,0.9 0.2,1.6 0.6,2.2 0.4,0.6 0.9,0.8 1.6,0.8 z"
   class="st1" />
	<path
   style="fill:#ffffff"
   id="path80"
   d="m 23.3,24.1 -3,-10.8 H 23 l 1.3,5.2 c 0,0.2 0.1,0.4 0.2,0.8 0.1,0.4 0.1,0.6 0.1,0.7 0.2,-0.7 0.3,-1.2 0.3,-1.4 l 1.4,-5.2 h 2.5 l 1.3,5.2 c 0.1,0.2 0.2,0.7 0.3,1.4 0,-0.1 0.1,-0.3 0.1,-0.7 0.1,-0.4 0.1,-0.6 0.2,-0.8 L 32,13.3 h 2.7 l -3,10.8 h -2.4 l -1.4,-5.4 c -0.2,-0.9 -0.3,-1.5 -0.4,-1.6 0,0.1 -0.1,0.7 -0.4,1.6 l -1.4,5.4 z"
   class="st1" />
	<path
   style="fill:#ffffff"
   id="path82"
   d="M 36.6,24.1 V 10.2 l 2.7,-1.3 v 15.2 z"
   class="st1" />
</g>
</svg>