<?xml version="1.0" encoding="utf-8"?>
<!-- Generator: Adobe Illustrator 26.0.3, SVG Export Plug-In . SVG Version: 6.00 Build 0)  -->
<svg version="1.1" id="Ebene_1" xmlns="http://www.w3.org/2000/svg" xmlns:xlink="http://www.w3.org/1999/xlink" x="0px" y="0px"
	 viewBox="0 0 340.5 253" style="enable-background:new 0 0 340.5 253;" xml:space="preserve">
<g>
	<g>
		<path d="M134.3,218.3c3.6,0,6.8-1.2,9-3.5l-1.2-1.2c-2.2,2.1-4.8,3-7.8,3c-6.5,0-11.3-4.8-11.3-11.1c0-6.3,4.9-11.1,11.3-11.1
			c3,0,5.6,0.9,7.8,3l1.2-1.2c-2.2-2.3-5.4-3.5-9-3.5c-7.5,0-13.1,5.4-13.1,12.8C121.2,212.9,126.8,218.3,134.3,218.3 M149.4,218.1
			h16.4v-1.7h-14.5v-23.6h-1.8V218.1z M179.9,218.3c6.3,0,10.1-3.7,10.1-10.9v-14.5h-1.8v14.5c0,6.3-3,9.3-8.3,9.3
			c-5.3,0-8.3-3-8.3-9.3v-14.5h-1.8v14.5C169.8,214.6,173.6,218.3,179.9,218.3 M213.6,205.1c2.5-0.8,4.2-2.8,4.2-5.8
			c0-4.2-3.3-6.5-8.7-6.5h-10.5v25.3h11.3c6.2,0,9.3-2.4,9.3-6.7C219.2,208,217.2,205.8,213.6,205.1 M209.1,194.5
			c4.4,0,6.9,1.7,6.9,5c0,3.4-2.5,5.1-6.9,5.1h-8.6v-10.1H209.1z M209.9,216.6h-9.4v-10.4h9.4c4.8,0,7.5,1.6,7.5,5.2
			C217.3,215,214.7,216.6,209.9,216.6"/>
	</g>
</g>
<polygon points="135.2,35.6 135.2,105.6 205.2,105.6 205.2,102.1 138.6,102.1 138.6,39 201.7,39 201.7,89.9 205.2,89.9 205.2,35.6 
	"/>
<g>
	<path d="M49.8,140.6H34.7v35h8.1v-9.6h7c9.3,0,15.2-4.8,15.2-12.6C65,145.4,59.1,140.6,49.8,140.6 M49.3,159.3h-6.6v-12.1h6.6
		c4.9,0,7.4,2.2,7.4,6.1C56.8,157.1,54.3,159.3,49.3,159.3 M70.7,175.5h8.1v-35h-8.1V175.5z M104,176.1c11,0,19.1-7.6,19.1-18.1
		c0-10.4-8.1-18.1-19.1-18.1c-11,0-19.1,7.7-19.1,18.1C84.9,168.4,93,176.1,104,176.1 M104,169.2c-6.2,0-10.9-4.5-10.9-11.2
		c0-6.6,4.7-11.2,10.9-11.2c6.2,0,10.9,4.5,10.9,11.2C115,164.7,110.3,169.2,104,169.2 M154.3,140.6v21.2L137,140.6h-6.7v35h8v-21.2
		l17.4,21.2h6.6v-35H154.3z M179.7,169V161h16.2v-6.3h-16.2v-7.6H198v-6.5h-26.4v35h27.1V169H179.7z M213.2,169V161h16.2v-6.3h-16.2
		v-7.6h18.4v-6.5h-26.4v35h27.1V169H213.2z M270.6,175.5l-7.8-11.2c4.5-1.9,7.2-5.8,7.2-11c0-7.8-5.8-12.7-15.2-12.7h-15.1v35h8.1
		v-9.7h7h0.4l6.7,9.7H270.6z M261.8,153.3c0,3.8-2.5,6.1-7.4,6.1h-6.6v-12.2h6.6C259.3,147.2,261.8,149.4,261.8,153.3 M290.8,176.1
		c10,0,14.8-5,14.8-10.8c0-12.8-20.3-8.4-20.3-14.8c0-2.2,1.8-4,6.6-4c3.1,0,6.4,0.9,9.7,2.7l2.5-6.1c-3.2-2-7.7-3.1-12.1-3.1
		c-9.9,0-14.7,4.9-14.7,10.9c0,13,20.3,8.5,20.3,15c0,2.1-1.9,3.7-6.7,3.7c-4.2,0-8.6-1.5-11.5-3.6l-2.7,6.1
		C279.7,174.5,285.3,176.1,290.8,176.1"/>
</g>
</svg>
