<svg xmlns="http://www.w3.org/2000/svg" viewBox="0 0 310.81 76.46"><defs><style>.cls-1{fill:#1d1d1b;}.cls-2{fill:#00b2bb;}.cls-3{fill:#fff265;}</style></defs><title>Element 1</title><g id="Ebene_2" data-name="Ebene 2"><g id="Ebene_1-2" data-name="Ebene 1"><path class="cls-1" d="M186.35,8.31a9,9,0,0,1-1.92,6.08,7.41,7.41,0,0,1-10.6,0,9.07,9.07,0,0,1-1.92-6.11,8.87,8.87,0,0,1,1.94-6.06A6.67,6.67,0,0,1,179.15,0a6.6,6.6,0,0,1,5.29,2.23A9,9,0,0,1,186.35,8.31Zm-13.21,0a8.21,8.21,0,0,0,1.55,5.36,6.19,6.19,0,0,0,8.89,0,8.29,8.29,0,0,0,1.54-5.38A8.16,8.16,0,0,0,183.58,3a5.39,5.39,0,0,0-4.43-1.87A5.48,5.48,0,0,0,174.7,3,8.13,8.13,0,0,0,173.14,8.31Z"/><path class="cls-1" d="M194.92,16.62a4.38,4.38,0,0,1-4-2.07h-.08l0,.92c0,.55,0,1.15,0,1.79v4.58h-1.1V4.4h.93l.21,1.71H191a4.32,4.32,0,0,1,3.95-1.94,4.48,4.48,0,0,1,3.71,1.59,7.31,7.31,0,0,1,1.27,4.64A7,7,0,0,1,198.58,15,4.47,4.47,0,0,1,194.92,16.62Zm0-1a3.33,3.33,0,0,0,2.85-1.37,6.3,6.3,0,0,0,1-3.83q0-5.29-3.82-5.29a3.81,3.81,0,0,0-3.08,1.15,5.76,5.76,0,0,0-1,3.76v.36a6.64,6.64,0,0,0,.94,4A3.69,3.69,0,0,0,194.9,15.65Z"/><path class="cls-1" d="M208.1,16.62A5.2,5.2,0,0,1,204,15a6.46,6.46,0,0,1-1.47-4.52A7,7,0,0,1,204,5.89a4.66,4.66,0,0,1,3.81-1.72,4.11,4.11,0,0,1,3.34,1.47,6.11,6.11,0,0,1,1.23,4v.89H203.7a5.69,5.69,0,0,0,1.16,3.78,4.07,4.07,0,0,0,3.24,1.3,9.61,9.61,0,0,0,1.8-.15,10.76,10.76,0,0,0,2-.61v1a8,8,0,0,1-1.87.6A10.2,10.2,0,0,1,208.1,16.62Zm-.32-11.48A3.61,3.61,0,0,0,205,6.28a5.39,5.39,0,0,0-1.22,3.3h7.42a5.23,5.23,0,0,0-.91-3.27A3,3,0,0,0,207.78,5.14Z"/><path class="cls-1" d="M224,16.4V8.61A3.79,3.79,0,0,0,223.27,6a3,3,0,0,0-2.36-.82,4.05,4.05,0,0,0-3.15,1.09,5.1,5.1,0,0,0-1,3.53V16.4h-1.1V4.4h.93L216.8,6h.07Q218,4.17,221,4.17q4.09,0,4.09,4.38V16.4Z"/><path class="cls-1" d="M172.77,43.71V27.56h1.13V43.71Z"/><path class="cls-1" d="M186.57,43.71V35.92a3.79,3.79,0,0,0-.76-2.63,3.08,3.08,0,0,0-2.37-.82,4.08,4.08,0,0,0-3.15,1.09,5.1,5.1,0,0,0-1,3.53v6.62H178.2v-12h.93l.21,1.64h.06q1.17-1.87,4.17-1.87,4.08,0,4.08,4.38v7.85Z"/><path class="cls-1" d="M199.91,43.71V35.92a3.79,3.79,0,0,0-.76-2.63,3.08,3.08,0,0,0-2.36-.82,4.09,4.09,0,0,0-3.16,1.09,5.15,5.15,0,0,0-1,3.53v6.62h-1.09v-12h.93l.21,1.64h.06c.79-1.25,2.17-1.87,4.17-1.87,2.72,0,4.09,1.46,4.09,4.38v7.85Z"/><path class="cls-1" d="M214.81,37.69a6.8,6.8,0,0,1-1.42,4.59,4.93,4.93,0,0,1-3.94,1.65,5.06,5.06,0,0,1-2.78-.76A4.92,4.92,0,0,1,204.83,41a7.88,7.88,0,0,1-.64-3.29,6.72,6.72,0,0,1,1.42-4.57,5.43,5.43,0,0,1,7.8,0A6.86,6.86,0,0,1,214.81,37.69Zm-9.47,0a6.13,6.13,0,0,0,1.08,3.86,4.11,4.11,0,0,0,6.16,0,6.13,6.13,0,0,0,1.08-3.86,6,6,0,0,0-1.09-3.85,3.77,3.77,0,0,0-3.09-1.37,3.68,3.68,0,0,0-3.07,1.36A6.16,6.16,0,0,0,205.34,37.69Z"/><path class="cls-1" d="M220.76,43.71l-4.63-12h1.12l3.11,8.16a23.8,23.8,0,0,1,.92,2.74h.07c.3-1,.61-1.93.93-2.76l3.1-8.14h1.13l-4.64,12Z"/><path class="cls-1" d="M235.81,43.71l-.28-1.9h-.09a5.55,5.55,0,0,1-1.86,1.64,4.94,4.94,0,0,1-2.25.48,4,4,0,0,1-2.76-.9,3.27,3.27,0,0,1-1-2.51,3.1,3.1,0,0,1,1.47-2.73,7.93,7.93,0,0,1,4.23-1l2.29-.07v-.8a4,4,0,0,0-.7-2.58,2.69,2.69,0,0,0-2.24-.87,7.6,7.6,0,0,0-3.46.92l-.41-.94a9.17,9.17,0,0,1,3.91-.93,3.89,3.89,0,0,1,3,1,4.51,4.51,0,0,1,1,3.2v8Zm-4.42-.77a3.82,3.82,0,0,0,4.14-4.15V37.61l-2.09.08a8,8,0,0,0-3.61.79,2.28,2.28,0,0,0-1.08,2.08,2.25,2.25,0,0,0,.69,1.76A2.83,2.83,0,0,0,231.39,42.94Z"/><path class="cls-1" d="M243.67,43a8,8,0,0,0,1.81-.18v.89a6,6,0,0,1-1.83.26,3,3,0,0,1-2.35-.85,3.94,3.94,0,0,1-.75-2.67V32.66h-1.78V32l1.78-.5.55-2.72h.56v2.91h3.53v.95h-3.53v7.6a3.48,3.48,0,0,0,.49,2A1.76,1.76,0,0,0,243.67,43Z"/><path class="cls-1" d="M247.92,28.37c0-.7.24-1.06.7-1.06a.61.61,0,0,1,.54.28,1.32,1.32,0,0,1,.19.78,1.4,1.4,0,0,1-.19.79.61.61,0,0,1-.54.28C248.16,29.44,247.92,29.09,247.92,28.37Zm1.25,15.34h-1.09v-12h1.09Z"/><path class="cls-1" d="M263.12,37.69a6.8,6.8,0,0,1-1.42,4.59,4.92,4.92,0,0,1-3.93,1.65,5.12,5.12,0,0,1-2.79-.76A4.92,4.92,0,0,1,253.14,41a7.88,7.88,0,0,1-.64-3.29,6.72,6.72,0,0,1,1.42-4.57,4.9,4.9,0,0,1,3.91-1.64,4.83,4.83,0,0,1,3.89,1.66A6.86,6.86,0,0,1,263.12,37.69Zm-9.47,0a6.13,6.13,0,0,0,1.08,3.86,4.11,4.11,0,0,0,6.16,0A6.13,6.13,0,0,0,262,37.69a6,6,0,0,0-1.09-3.85,3.77,3.77,0,0,0-3.09-1.37,3.68,3.68,0,0,0-3.07,1.36A6.16,6.16,0,0,0,253.65,37.69Z"/><path class="cls-1" d="M274.82,43.71V35.92a3.79,3.79,0,0,0-.76-2.63,3.08,3.08,0,0,0-2.37-.82,4.08,4.08,0,0,0-3.15,1.09,5.1,5.1,0,0,0-1,3.53v6.62h-1.09v-12h.93l.2,1.64h.07q1.17-1.87,4.16-1.87,4.1,0,4.09,4.38v7.85Z"/><path class="cls-1" d="M179.67,55.66a6.11,6.11,0,0,0-4.79,2,7.66,7.66,0,0,0-1.74,5.32,8,8,0,0,0,1.65,5.37,5.86,5.86,0,0,0,4.7,1.91,12.93,12.93,0,0,0,3.73-.52v1a12.06,12.06,0,0,1-4,.56,6.81,6.81,0,0,1-5.36-2.19,9,9,0,0,1-2-6.14,9.57,9.57,0,0,1,.94-4.35,6.7,6.7,0,0,1,2.68-2.89,7.84,7.84,0,0,1,4.07-1,9.73,9.73,0,0,1,4.23.89l-.45,1A8.33,8.33,0,0,0,179.67,55.66Z"/><path class="cls-1" d="M186.39,55.68c0-.7.24-1.06.7-1.06a.61.61,0,0,1,.54.28,1.4,1.4,0,0,1,.19.78,1.49,1.49,0,0,1-.19.79.61.61,0,0,1-.54.28C186.63,56.75,186.39,56.4,186.39,55.68ZM187.64,71h-1.09V59h1.09Z"/><path class="cls-1" d="M194.83,70.27a8.7,8.7,0,0,0,1.81-.17V71a5.7,5.7,0,0,1-1.83.26,3,3,0,0,1-2.35-.85,3.94,3.94,0,0,1-.75-2.67V60h-1.78v-.64l1.78-.5.55-2.72h.56V59h3.53V60h-3.53v7.6a3.41,3.41,0,0,0,.49,2A1.76,1.76,0,0,0,194.83,70.27Z"/><path class="cls-1" d="M197.23,59h1.13l2.54,6.73c.77,2.08,1.26,3.47,1.47,4.19h.06c.31-1,.81-2.37,1.52-4.25L206.48,59h1.13L202.23,73a10.71,10.71,0,0,1-1.09,2.29,2.92,2.92,0,0,1-1,.9,3.17,3.17,0,0,1-1.43.3,5.16,5.16,0,0,1-1.41-.23v-1a5.55,5.55,0,0,0,1.38.17,1.93,1.93,0,0,0,1-.26,2.51,2.51,0,0,0,.78-.83,10.26,10.26,0,0,0,.8-1.76c.31-.81.5-1.33.59-1.58Z"/><path class="cls-2" d="M215.52,54.87h5a9.66,9.66,0,0,1,5,1A3.41,3.41,0,0,1,227.09,59a4,4,0,0,1-.68,2.38,2.69,2.69,0,0,1-1.81,1.11v.11a3.64,3.64,0,0,1,2.22,1.28,4.21,4.21,0,0,1,.68,2.5,4.14,4.14,0,0,1-1.6,3.45A6.92,6.92,0,0,1,221.57,71h-6Zm3.43,6.4h2a3.63,3.63,0,0,0,2-.43,1.6,1.6,0,0,0,.62-1.43,1.42,1.42,0,0,0-.68-1.33,4.31,4.31,0,0,0-2.14-.4H219ZM219,64V68.2h2.23a3.21,3.21,0,0,0,2.08-.55,2,2,0,0,0,.68-1.65c0-1.34-1-2-2.87-2Z"/><path class="cls-2" d="M230.31,55.48c0-1.09.61-1.64,1.84-1.64s1.83.55,1.83,1.64a1.58,1.58,0,0,1-.46,1.22,1.91,1.91,0,0,1-1.37.44C230.92,57.14,230.31,56.59,230.31,55.48ZM233.82,71h-3.37V58.68h3.37Z"/><path class="cls-2" d="M243,71.24a6.35,6.35,0,0,1-4.66-1.64,6.23,6.23,0,0,1-1.68-4.66,6.83,6.83,0,0,1,1.55-4.8,6.3,6.3,0,0,1,8.37-.21A5.66,5.66,0,0,1,248,64.05v1.64h-8a3.25,3.25,0,0,0,.85,2.24,3,3,0,0,0,2.23.81,9.54,9.54,0,0,0,2.11-.23,11.61,11.61,0,0,0,2.08-.74v2.6a7.56,7.56,0,0,1-1.89.66A12.21,12.21,0,0,1,243,71.24Zm-.48-10.4a2.16,2.16,0,0,0-1.68.68,3.19,3.19,0,0,0-.69,1.93h4.72a2.79,2.79,0,0,0-.65-1.93A2.21,2.21,0,0,0,242.47,60.84Z"/><path class="cls-2" d="M254.09,71h-3.37V53.84h3.37Z"/><path class="cls-2" d="M263.22,71.24a6.38,6.38,0,0,1-4.67-1.64,6.23,6.23,0,0,1-1.67-4.66,6.83,6.83,0,0,1,1.55-4.8,5.52,5.52,0,0,1,4.29-1.7,5.45,5.45,0,0,1,4.07,1.49,5.62,5.62,0,0,1,1.46,4.12v1.64h-8a3.21,3.21,0,0,0,.85,2.24,3,3,0,0,0,2.23.81,9.54,9.54,0,0,0,2.11-.23,11.89,11.89,0,0,0,2.08-.74v2.6a7.56,7.56,0,0,1-1.89.66A12.21,12.21,0,0,1,263.22,71.24Zm-.48-10.4a2.15,2.15,0,0,0-1.68.68,3.12,3.12,0,0,0-.69,1.93h4.72a2.79,2.79,0,0,0-.65-1.93A2.22,2.22,0,0,0,262.74,60.84Z"/><path class="cls-2" d="M277.82,61.2H274.9V71h-3.37V61.2h-1.85V59.58l1.85-.9v-.91a4,4,0,0,1,1-3.08,4.74,4.74,0,0,1,3.32-1,8.59,8.59,0,0,1,3.11.52l-.86,2.47a6.44,6.44,0,0,0-1.88-.32,1.22,1.22,0,0,0-1,.42,1.81,1.81,0,0,0-.32,1.09v.78h2.92Z"/><path class="cls-2" d="M285.34,71.24a6.35,6.35,0,0,1-4.66-1.64A6.23,6.23,0,0,1,279,64.94a6.87,6.87,0,0,1,1.55-4.8,5.53,5.53,0,0,1,4.29-1.7,5.45,5.45,0,0,1,4.08,1.49,5.66,5.66,0,0,1,1.46,4.12v1.64h-8a3.25,3.25,0,0,0,.85,2.24,3,3,0,0,0,2.23.81,9.48,9.48,0,0,0,2.11-.23,11.34,11.34,0,0,0,2.08-.74v2.6a7.56,7.56,0,0,1-1.89.66A12.21,12.21,0,0,1,285.34,71.24Zm-.48-10.4a2.13,2.13,0,0,0-1.67.68,3.13,3.13,0,0,0-.7,1.93h4.73a2.84,2.84,0,0,0-.66-1.93A2.19,2.19,0,0,0,284.86,60.84Z"/><path class="cls-2" d="M296.48,71h-3.37V53.84h3.37Z"/><path class="cls-2" d="M303.93,71.24a4,4,0,0,1-3.42-1.68,7.78,7.78,0,0,1-1.24-4.69,7.8,7.8,0,0,1,1.26-4.73,4.12,4.12,0,0,1,3.49-1.7,4,4,0,0,1,3.55,1.82h.11a13.85,13.85,0,0,1-.25-2.47V53.84h3.38V71h-2.59l-.65-1.6h-.14A3.84,3.84,0,0,1,303.93,71.24Zm1.18-2.68a2.28,2.28,0,0,0,1.89-.75,4.39,4.39,0,0,0,.66-2.55v-.37a5.07,5.07,0,0,0-.61-2.85,2.3,2.3,0,0,0-2-.86,2,2,0,0,0-1.75,1,5.16,5.16,0,0,0-.62,2.78,4.83,4.83,0,0,0,.63,2.73A2.05,2.05,0,0,0,305.11,68.56Z"/><path class="cls-3" d="M35.43,71.12A35.44,35.44,0,1,0,0,35.68,35.44,35.44,0,0,0,35.43,71.12"/><path class="cls-2" d="M152.85,71.06V.19a35.44,35.44,0,0,0,0,70.87"/><rect class="cls-2" x="84.24" y="0.17" width="19.84" height="70.87"/></g></g></svg>