<?xml version="1.0" encoding="UTF-8"?>
<svg width="276px" height="77px" viewBox="0 0 276 77" version="1.1" xmlns="http://www.w3.org/2000/svg" xmlns:xlink="http://www.w3.org/1999/xlink">
    <title>logo</title>
    <g id="Page-1" stroke="none" stroke-width="1" fill="none" fill-rule="evenodd">
        <g id="logo" transform="translate(0, -0.0086)" fill-rule="nonzero">
            <path d="M186.35,8.31859446 C186.473381,10.5116537 185.790495,12.6741277 184.43,14.3985945 C183.035747,15.8255273 181.125014,16.629975 179.13,16.629975 C177.134986,16.629975 175.224253,15.8255273 173.83,14.3985945 C172.468297,12.6631696 171.785709,10.4909765 171.91,8.28859446 C171.784947,6.09818382 172.476123,3.93914984 173.85,2.22859446 C175.191008,0.726532408 177.138806,-0.0893374344 179.15,0.00859446272 C181.161203,-0.0940537373 183.109225,0.727135167 184.44,2.23859446 C185.796921,3.96446738 186.476208,6.12680451 186.35,8.31859446 L186.35,8.31859446 Z M173.14,8.31859446 C173.015086,10.2314239 173.56344,12.1276653 174.69,13.6785945 C175.855925,14.8816234 177.459691,15.560686 179.135,15.560686 C180.810309,15.560686 182.414075,14.8816234 183.58,13.6785945 C184.701397,12.1179664 185.245764,10.2162168 185.12,8.29859446 C185.235492,6.41004749 184.69111,4.54005863 183.58,3.00859446 C182.4786,1.72462259 180.838298,1.0322153 179.15,1.13859446 C177.457242,1.03989399 175.814139,1.73036644 174.7,3.00859446 C173.575008,4.54168776 173.023005,6.42062362 173.14,8.31859446 L173.14,8.31859446 Z" id="Shape" fill="#1D1D1B"></path>
            <path d="M194.92,16.6285945 C193.306865,16.7294765 191.769274,15.9337729 190.92,14.5585945 L190.84,14.5585945 L190.84,15.4785945 C190.84,16.0285945 190.84,16.6285945 190.84,17.2685945 L190.84,21.8485945 L189.74,21.8485945 L189.74,4.40859446 L190.67,4.40859446 L190.88,6.11859446 L191,6.11859446 C191.863936,4.7995016 193.37795,4.05591008 194.95,4.17859446 C196.368898,4.08991379 197.745667,4.67995755 198.66,5.76859446 C199.594711,7.12767754 200.042293,8.76293929 199.93,10.4085945 C200.035451,12.0530294 199.557397,13.6819519 198.58,15.0085945 C197.683424,16.0951433 196.327112,16.6954782 194.92,16.6285945 Z M194.92,15.6285945 C196.040066,15.6808825 197.111244,15.1659658 197.77,14.2585945 C198.506168,13.1225249 198.856816,11.7795426 198.77,10.4285945 C198.77,6.9019278 197.496667,5.13859446 194.95,5.13859446 C193.802255,5.03645385 192.669944,5.45923253 191.87,6.28859446 C191.110649,7.38800517 190.757137,8.71721192 190.87,10.0485945 L190.87,10.4085945 C190.752529,11.8077778 191.081624,13.2081852 191.81,14.4085945 C192.5824,15.2932376 193.729771,15.7573847 194.9,15.6585945 L194.92,15.6285945 Z" id="Shape" fill="#1D1D1B"></path>
            <path d="M208.1,16.6285945 C206.560725,16.7232881 205.058825,16.1298547 204,15.0085945 C202.953389,13.7434891 202.427778,12.1273245 202.53,10.4885945 C202.461228,8.83282417 202.982124,7.2063532 204,5.89859446 C204.927181,4.75584256 206.339661,4.11818783 207.81,4.17859446 C209.091755,4.12038519 210.327155,4.66410936 211.15,5.64859446 C212.018064,6.7955744 212.453629,8.2120439 212.38,9.64859446 L212.38,10.5385945 L203.7,10.5385945 C203.622371,11.8967495 204.033902,13.2377735 204.86,14.3185945 C205.689883,15.2166329 206.879551,15.6939688 208.1,15.6185945 C208.703379,15.6252166 209.30604,15.5749949 209.9,15.4685945 C210.584889,15.3306725 211.254718,15.1263748 211.9,14.8585945 L211.9,15.8585945 C211.303674,16.134636 210.67561,16.3361541 210.03,16.4585945 C209.393518,16.5763712 208.74727,16.6332946 208.1,16.6285945 Z M207.78,5.14859446 C206.731705,5.10657993 205.716989,5.52268647 205,6.28859446 C204.235665,7.22116833 203.806103,8.38309857 203.78,9.58859446 L211.2,9.58859446 C211.268642,8.42773804 210.948438,7.2771135 210.29,6.31859446 C209.694154,5.54266106 208.75739,5.10600218 207.78,5.14859446 L207.78,5.14859446 Z" id="Shape" fill="#1D1D1B"></path>
            <path d="M224,16.4085945 L224,8.61859446 C224.086678,7.68835643 223.82671,6.75888123 223.27,6.00859446 C222.639985,5.40511329 221.778476,5.10577541 220.91,5.18859446 C219.752222,5.08297006 218.604884,5.47998539 217.76,6.27859446 C217.00031,7.29046964 216.643894,8.54861845 216.76,9.80859446 L216.76,16.4085945 L215.66,16.4085945 L215.66,4.40859446 L216.59,4.40859446 L216.8,6.00859446 L216.87,6.00859446 C217.623333,4.78859446 219,4.17859446 221,4.17859446 C223.726667,4.17859446 225.09,5.63859446 225.09,8.55859446 L225.09,16.4085945 L224,16.4085945 Z" id="Path" fill="#1D1D1B"></path>
            <polygon id="Path" fill="#1D1D1B" points="172.77 43.7185945 172.77 27.5685945 173.9 27.5685945 173.9 43.7185945"></polygon>
            <path d="M186.57,43.7185945 L186.57,35.9285945 C186.653192,34.9878573 186.382162,34.0499516 185.81,33.2985945 C185.172083,32.7014516 184.310551,32.4033689 183.44,32.4785945 C182.282702,32.3768839 181.136926,32.7733586 180.29,33.5685945 C179.53031,34.5804696 179.173894,35.8386184 179.29,37.0985945 L179.29,43.7185945 L178.2,43.7185945 L178.2,31.7185945 L179.13,31.7185945 L179.34,33.3585945 L179.4,33.3585945 C180.18,32.1119278 181.57,31.4885945 183.57,31.4885945 C186.29,31.4885945 187.65,32.9485945 187.65,35.8685945 L187.65,43.7185945 L186.57,43.7185945 Z" id="Path" fill="#1D1D1B"></path>
            <path d="M199.91,43.7185945 L199.91,35.9285945 C199.993192,34.9878573 199.722162,34.0499516 199.15,33.2985945 C198.514493,32.7041483 197.657182,32.4062693 196.79,32.4785945 C195.629496,32.3752571 194.480002,32.7717597 193.63,33.5685945 C192.874623,34.5826016 192.518684,35.8390653 192.63,37.0985945 L192.63,43.7185945 L191.54,43.7185945 L191.54,31.7185945 L192.47,31.7185945 L192.68,33.3585945 L192.74,33.3585945 C193.53,32.1085945 194.91,31.4885945 196.91,31.4885945 C199.63,31.4885945 201,32.9485945 201,35.8685945 L201,43.7185945 L199.91,43.7185945 Z" id="Path" fill="#1D1D1B"></path>
            <path d="M214.81,37.6985945 C214.910965,39.3504126 214.406093,40.9823586 213.39,42.2885945 C212.395494,43.4085407 210.945789,44.0156508 209.45,43.9385945 C208.469254,43.9600962 207.503405,43.6960509 206.67,43.1785945 C205.856346,42.6522512 205.216245,41.897349 204.83,41.0085945 C204.383209,39.9705109 204.164939,38.8484669 204.19,37.7185945 C204.086513,36.0726234 204.591919,34.4460694 205.61,33.1485945 C206.632825,32.0927994 208.040008,31.4968083 209.51,31.4968083 C210.979992,31.4968083 212.387175,32.0927994 213.41,33.1485945 C214.404824,34.4495252 214.901412,36.0634371 214.81,37.6985945 L214.81,37.6985945 Z M205.34,37.6985945 C205.257286,39.0699312 205.637628,40.4293026 206.42,41.5585945 C207.200154,42.4415689 208.321745,42.9472529 209.5,42.9472529 C210.678255,42.9472529 211.799846,42.4415689 212.58,41.5585945 C213.362372,40.4293026 213.742714,39.0699312 213.66,37.6985945 C213.747895,36.3283454 213.363155,34.9694034 212.57,33.8485945 C211.813897,32.9299075 210.668479,32.4220687 209.48,32.4785945 C208.297431,32.4114426 207.154829,32.9176114 206.41,33.8385945 C205.633282,34.9701334 205.256697,36.3286559 205.34,37.6985945 L205.34,37.6985945 Z" id="Shape" fill="#1D1D1B"></path>
            <path d="M220.76,43.7185945 L216.13,31.7185945 L217.25,31.7185945 L220.36,39.8785945 C220.721893,40.772446 221.029126,41.6874662 221.28,42.6185945 L221.35,42.6185945 C221.65,41.6185945 221.96,40.6885945 222.28,39.8585945 L225.38,31.7185945 L226.51,31.7185945 L221.87,43.7185945 L220.76,43.7185945 Z" id="Path" fill="#1D1D1B"></path>
            <path d="M235.81,43.7185945 L235.53,41.8185945 L235.44,41.8185945 C234.951624,42.4985463 234.315754,43.059206 233.58,43.4585945 C232.878228,43.7934415 232.107324,43.9579011 231.33,43.9385945 C230.329757,43.9948083 229.344833,43.6736376 228.57,43.0385945 C227.890439,42.3851919 227.525937,41.4702934 227.57,40.5285945 C227.537025,39.4213092 228.097418,38.3805794 229.04,37.7985945 C230.329344,37.0777999 231.794383,36.731455 233.27,36.7985945 L235.56,36.7285945 L235.56,35.9285945 C235.629453,35.0137659 235.38231,34.1028673 234.86,33.3485945 C234.291557,32.7226723 233.461901,32.4004397 232.62,32.4785945 C231.40986,32.505352 230.223614,32.82077 229.16,33.3985945 L228.75,32.4585945 C229.968528,31.8632783 231.303932,31.5456504 232.66,31.5285945 C233.756486,31.4220905 234.846713,31.7854996 235.66,32.5285945 C236.392144,33.4271344 236.750245,34.5730578 236.66,35.7285945 L236.66,43.7285945 L235.81,43.7185945 Z M231.39,42.9485945 C232.517333,43.048016 233.630721,42.6424552 234.429994,41.8412516 C235.229267,41.0400479 235.632141,39.9256845 235.53,38.7985945 L235.53,37.6185945 L233.44,37.6985945 C232.191503,37.6765832 230.955189,37.947134 229.83,38.4885945 C229.113932,38.9296757 228.698826,39.7291376 228.75,40.5685945 C228.710435,41.2281139 228.962747,41.8716913 229.44,42.3285945 C229.989921,42.771239 230.685422,42.9923728 231.39,42.9485945 L231.39,42.9485945 Z" id="Shape" fill="#1D1D1B"></path>
            <path d="M243.67,43.0085945 C244.278214,43.0176014 244.885472,42.9572111 245.48,42.8285945 L245.48,43.7185945 C244.887091,43.8992641 244.269768,43.9869713 243.65,43.9785945 C242.780324,44.0505326 241.922426,43.7402291 241.3,43.1285945 C240.734678,42.3589007 240.468155,41.4100768 240.55,40.4585945 L240.55,32.6685945 L238.77,32.6685945 L238.77,32.0085945 L240.55,31.5085945 L241.1,28.7885945 L241.66,28.7885945 L241.66,31.6985945 L245.19,31.6985945 L245.19,32.6485945 L241.66,32.6485945 L241.66,40.2485945 C241.617841,40.9494265 241.788654,41.6466212 242.15,42.2485945 C242.492693,42.7459623 243.06649,43.0328609 243.67,43.0085945 L243.67,43.0085945 Z" id="Path" fill="#1D1D1B"></path>
            <path d="M247.92,28.3785945 C247.92,27.6785945 248.16,27.3185945 248.62,27.3185945 C248.837015,27.3091232 249.042693,27.4157714 249.16,27.5985945 C249.302779,27.8325622 249.369185,28.1051739 249.35,28.3785945 C249.366156,28.6549202 249.300037,28.9298341 249.16,29.1685945 C249.042693,29.3514176 248.837015,29.4580657 248.62,29.4485945 C248.16,29.4485945 247.92,29.0985945 247.92,28.3785945 Z M249.17,43.7185945 L248.08,43.7185945 L248.08,31.7185945 L249.17,31.7185945 L249.17,43.7185945 Z" id="Shape" fill="#1D1D1B"></path>
            <path d="M263.12,37.6985945 C263.220965,39.3504126 262.716093,40.9823586 261.7,42.2885945 C260.708598,43.4069433 259.262612,44.0140368 257.77,43.9385945 C256.786294,43.9586004 255.817657,43.6947422 254.98,43.1785945 C254.166346,42.6522512 253.526245,41.897349 253.14,41.0085945 C252.693209,39.9705109 252.474939,38.8484669 252.5,37.7185945 C252.396513,36.0726234 252.901919,34.4460694 253.92,33.1485945 C254.907101,32.0371433 256.345376,31.4338769 257.83,31.5085945 C259.312886,31.434629 260.747394,32.0467843 261.72,33.1685945 C262.710251,34.4642007 263.206584,36.0701918 263.12,37.6985945 L263.12,37.6985945 Z M253.65,37.6985945 C253.567286,39.0699312 253.947628,40.4293026 254.73,41.5585945 C255.510154,42.4415689 256.631745,42.9472529 257.81,42.9472529 C258.988255,42.9472529 260.109846,42.4415689 260.89,41.5585945 C261.682979,40.4330906 262.073977,39.0734045 262,37.6985945 C262.087895,36.3283454 261.703155,34.9694034 260.91,33.8485945 C260.153897,32.9299075 259.008479,32.4220687 257.82,32.4785945 C256.637431,32.4114426 255.494829,32.9176114 254.75,33.8385945 C253.962684,34.9663745 253.575452,36.3252054 253.65,37.6985945 Z" id="Shape" fill="#1D1D1B"></path>
            <path d="M274.82,43.7185945 L274.82,35.9285945 C274.903192,34.9878573 274.632162,34.0499516 274.06,33.2985945 C273.422083,32.7014516 272.560551,32.4033689 271.69,32.4785945 C270.532702,32.3768839 269.386926,32.7733586 268.54,33.5685945 C267.78031,34.5804696 267.423894,35.8386184 267.54,37.0985945 L267.54,43.7185945 L266.45,43.7185945 L266.45,31.7185945 L267.38,31.7185945 L267.58,33.3585945 L267.65,33.3585945 C268.43,32.1119278 269.816667,31.4885945 271.81,31.4885945 C274.543333,31.4885945 275.906667,32.9485945 275.900024,35.8685945 L275.900024,43.7185945 L274.82,43.7185945 Z" id="Path" fill="#1D1D1B"></path>
            <path d="M179.67,55.6685945 C177.855435,55.5901872 176.100045,56.3231265 174.88,57.6685945 C173.649663,59.158938 173.02813,61.0592583 173.14,62.9885945 C173.022763,64.9192002 173.608931,66.8269097 174.79,68.3585945 C175.985593,69.6755799 177.714649,70.3782386 179.49,70.2685945 C180.752048,70.278231 182.008708,70.1030398 183.22,69.7485945 L183.22,70.7485945 C181.927628,71.1587945 180.575333,71.3481157 179.22,71.3085945 C177.196507,71.4123123 175.231912,70.609614 173.86,69.1185945 C172.456762,67.389795 171.74419,65.2021977 171.86,62.9785945 C171.827143,61.4748733 172.149184,59.9845795 172.8,58.6285945 C173.383371,57.4183479 174.317115,56.4114372 175.48,55.7385945 C176.720783,55.0421 178.127724,54.6964144 179.55,54.7385945 C181.008896,54.714346 182.454567,55.0185179 183.78,55.6285945 L183.33,56.6285945 C182.199793,56.0320771 180.947488,55.7036038 179.67,55.6685945 Z" id="Path" fill="#1D1D1B"></path>
            <path d="M186.39,55.6885945 C186.39,54.9885945 186.63,54.6285945 187.09,54.6285945 C187.307015,54.6191232 187.512693,54.7257714 187.63,54.9085945 C187.76812,55.1444713 187.83417,55.4156214 187.82,55.6885945 C187.831077,55.9644446 187.765297,56.2379482 187.63,56.4785945 C187.512693,56.6614176 187.307015,56.7680657 187.09,56.7585945 C186.63,56.7585945 186.39,56.4085945 186.39,55.6885945 Z M187.64,71.0085945 L186.55,71.0085945 L186.55,59.0085945 L187.64,59.0085945 L187.64,71.0085945 Z" id="Shape" fill="#1D1D1B"></path>
            <path d="M194.83,70.2785945 C195.437615,70.285293 196.044259,70.2283154 196.64,70.1085945 L196.64,71.0085945 C196.048208,71.1942471 195.430083,71.2820681 194.81,71.2685945 C193.940324,71.3405326 193.082426,71.0302291 192.46,70.4185945 C191.894678,69.6489007 191.628155,68.7000768 191.71,67.7485945 L191.71,60.0085945 L189.93,60.0085945 L189.93,59.3685945 L191.71,58.8685945 L192.26,56.1485945 L192.82,56.1485945 L192.82,59.0085945 L196.35,59.0085945 L196.35,60.0085945 L192.82,60.0085945 L192.82,67.6085945 C192.773336,68.3098262 192.944474,69.0083491 193.31,69.6085945 C193.672777,70.0720192 194.24318,70.323447 194.83,70.2785945 L194.83,70.2785945 Z" id="Path" fill="#1D1D1B"></path>
            <path d="M197.23,59.0085945 L198.36,59.0085945 L200.9,65.7385945 C201.67,67.8185945 202.16,69.2085945 202.37,69.9285945 L202.43,69.9285945 C202.74,68.9285945 203.24,67.5585945 203.95,65.6785945 L206.48,59.0085945 L207.61,59.0085945 L202.23,73.0085945 C201.958649,73.8124049 201.59275,74.5811267 201.14,75.2985945 C200.881264,75.6723418 200.538843,75.9805209 200.14,76.1985945 C199.693197,76.4085825 199.203524,76.5113111 198.71,76.4985945 C198.231609,76.4876772 197.757062,76.4102688 197.3,76.2685945 L197.3,75.2685945 C197.751055,75.3828864 198.214692,75.4400012 198.68,75.4385945 C199.030768,75.4444237 199.376492,75.3545356 199.68,75.1785945 C200.000167,74.9653541 200.267038,74.6813767 200.46,74.3485945 C200.781468,73.7884154 201.049324,73.1991334 201.26,72.5885945 C201.57,71.7785945 201.76,71.2585945 201.85,71.0085945 L197.23,59.0085945 Z" id="Path" fill="#1D1D1B"></path>
            <path d="M35.43,71.1285959 C49.7650513,71.1326393 62.69083,62.5005256 68.1794196,49.2578258 C73.6680092,36.0151261 70.6383821,20.7701104 60.5034001,10.6322678 C50.3684181,0.494425278 35.124258,-2.53950398 21.8800099,2.94534821 C8.63576176,8.4302004 7.10542736e-15,21.3535426 7.10542736e-15,35.6885945 C7.10542736e-15,55.2576614 15.8609338,71.1230727 35.43,71.1285959" id="Path" fill="#FFF265"></path>
            <path d="M152.85,71.0685945 L152.85,0.198594463 C133.511843,0.523467893 118.005294,16.2927083 118.005294,35.6335945 C118.005294,54.9744806 133.511843,70.743721 152.85,71.0685945" id="Path" fill="#00B2BB"></path>
            <rect id="Rectangle" fill="#00B2BB" x="84.24" y="0.178594463" width="19.84" height="70.87"></rect>
        </g>
    </g>
</svg>