<svg version="1" xmlns="http://www.w3.org/2000/svg" width="2560" height="2560" viewBox="0 0 1920.000000 1920.000000"><path d="M432.5 515.8c-.2.2-5 .5-10.6.8-10 .4-20.4 1.1-20.4 1.4 0 .1-1.8.3-4 .5-9.6.8-18 2-29 4.2-4.4.8-9.1 1.7-10.5 1.9-1.4.1-3.6.5-5 .9-1.4.3-3.6.8-5 1.1-1.4.3-4.3 1-6.5 1.6-2.2.5-4.7 1.2-5.5 1.4-1.5.3-18.5 5.1-20.5 5.8-.5.1-2.3.6-4 1.1-1.6.4-3.4 1-4 1.4-.5.3-1.4.6-2 .7-1.3.3-18.3 6.2-21 7.3-1.1.5-4.1 1.8-6.7 3-2.6 1.2-5 2.1-5.3 2.1-.2 0-3.3 1.3-6.9 2.9-16.6 7.7-24.1 11.4-24.4 12.2-.2.5-1 .9-1.7.9-1.1 0-13.4 6.6-20.5 10.9-14.5 9-18.6 11.6-18.8 12.3-.2.4-.8.8-1.4.8-.6 0-2.7 1.3-4.8 3-2.1 1.6-4.1 3-4.5 3-.3 0-1.2.6-1.9 1.2-.8.7-2.4 2-3.6 2.8-2.3 1.5-22.5 17.4-24.7 19.4-.6.6-3.3 2.9-6 5.1-5 4.1-38.3 37.2-41.8 41.6-5.6 6.9-11.1 13.6-12.3 14.8-.8.8-3.2 3.9-5.5 7-2.2 3.1-4.6 6.1-5.1 6.8-2.4 2.8-3.2 3.9-3.9 5.3-.4.8-2.7 4.2-5.2 7.5s-4.8 6.7-5.2 7.5c-.4.8-1.1 1.9-1.5 2.5-2.1 2.4-14.6 23.4-14.2 23.8.3.2-.2 1-1.1 1.7-.8.7-1.5 1.6-1.5 2.1 0 .4-1.3 3.1-3 5.9-1.6 2.8-3 5.7-3 6.5 0 .7-.3 1.5-.7 1.7-1.1.4-5.3 8.7-5.3 10.4 0 .8-.4 1.4-1 1.4-.5 0-1 .6-1 1.3 0 .8-.6 2.7-1.4 4.3-2.9 6-5.8 12.9-6 14-.1.7-.7 1.8-1.3 2.5-.5.8-1.4 2.7-1.8 4.4-1 3.8-.9 3.4-2.4 7-1.9 4.3-4.2 10.8-4.6 12.5-.2.8-1.3 4.2-2.5 7.5-1.1 3.3-2.3 6.7-2.5 7.5-.1.8-1.5 5.8-2.9 11-2.3 8.5-6.1 24.8-7.2 30.7-.2 1.3-.6 3.5-.9 5-1.1 5.7-2.6 14.9-3.1 18.8-1.2 10.3-1.4 12.1-1.8 14C1.5 923 .8 976.4 2.4 996c.5 5.8 1 12.1 1.2 14 .1 1.9.3 3.5.4 3.5.1 0 .3 1.1.5 2.5.4 4.3 1.6 12.4 2.1 14.5.2 1.1.6 3.3.8 5 .2 1.6.6 4.1.9 5.5.7 2.5 1.5 7.1 2.3 12.5.2 1.6.7 3.7 1.1 4.5.3.8.8 2.6 1 3.9.2 1.4 1.1 5 1.9 8 .8 3.1 1.7 6.4 1.9 7.4 1.2 5.6 10.2 33.6 11.5 35.9.6 1 1 2.2 1 2.7s.8 2.6 1.7 4.7c.9 2.2 1.8 4.2 1.9 4.6.1.5.3 1 .4 1.3.1.3.3.8.4 1.2.1.5.9 2.4 1.8 4.3s3.3 7.3 5.3 11.9c4.7 10.9 17.8 36.2 21.6 41.8 1.7 2.4 2.7 4.3 2.4 4.3-.4 0 .1.7.9 1.6.9.8 1.6 2.2 1.6 3 0 .8.4 1.4.8 1.4s2.4 2.7 4.3 6c1.8 3.3 3.7 6 4.2 6 .4 0 .7.5.7 1 0 .6 1.9 3.7 4.1 6.8 6.2 8.5 12.3 16.6 12.9 17.2.3.3 1.7 2.1 3 4 1.4 1.9 3.4 4.4 4.5 5.6 1.1 1.2 3.6 4 5.5 6.4 11.4 14.1 31.2 33.9 52 52 1.4 1.2 4.1 3.4 6 4.9 1.9 1.4 4.9 3.8 6.5 5.3 1.7 1.6 3.3 2.8 3.7 2.8.4 0 1.3.6 2 1.3 4.4 4.4 36.6 25.8 47.8 31.8 2.5 1.3 4.7 2.6 5 2.9 1.1 1.3 36.2 18.1 44.5 21.5 5 1.9 9.9 4 11 4.5 3.9 1.8 34 11.9 37.3 12.5.9.2 1.7.4 1.7.5 0 .1.7.3 1.5.5.8.1 5.8 1.4 11 2.8s11.3 2.8 13.5 3.2c4.5.7 6.9 1.3 7.3 1.5.4.4 7.8 1.7 14.7 2.6 1.1.1 2 .3 2 .4 0 .3 2.7.7 8.5 1.4 3 .3 6.9.9 8.5 1.1 3.2.6 9.4 1.2 21.5 2.2 17.1 1.4 69.3.7 77.6-1.1 1.2-.2 5.4-.7 9.4-1 4-.4 7.5-.8 7.9-1 .3-.2 2.9-.6 5.6-1 5.1-.6 6.2-.8 15-2.6 2.8-.6 6.6-1.3 8.5-1.6 5.4-.8 6.9-1.2 15.5-3.5 4.4-1.2 8.7-2.3 9.5-2.4.8-.1 2.2-.5 3-.8.8-.3 6.9-2.2 13.5-4.2s12.9-4 14-4.4c1.1-.5 6.3-2.5 11.6-4.5 9.5-3.4 19.7-7.7 23.1-9.6 1-.6 2.5-1 3.3-1 .8 0 1.5-.4 1.5-.9 0-.8 4.9-2.5 5.9-2.1.2.1.7-.2 1-.7 1-1.3 13.1-7.4 13.1-6.6 0 .4.4.3.8-.3s3.2-2.4 6.2-4c8.2-4.2 31.4-18.5 31.8-19.5.2-.5.8-.9 1.3-.9 1.1 0 7.2-4.2 7.7-5.3.2-.4.8-.7 1.3-.7 1.2 0 25.9-18.6 28.4-21.5.6-.6 2-1.8 3.3-2.7 6.7-4.6 29.5-26.7 43.2-41.9 12.5-13.9 14.8-16.6 25.5-30.9 2.7-3.6 5.2-6.7 5.5-7 .3-.3 3.2-4.6 6.4-9.5 3.3-5 6.3-9.2 6.8-9.3.4-.2.6-.8.2-1.3-.3-.5-.1-.9.4-.9s1.2-.8 1.6-1.8c.6-2 2.5-5 4.4-7 .6-.7 1.2-2 1.2-2.8 0-.8.5-1.4 1-1.4.6 0 1-.5 1-1.1 0-.5 1.1-2.6 2.5-4.6 1.3-2 2.2-4 1.9-4.5-.3-.4-.1-.8.5-.8.5 0 1.3-1 1.7-2.3.3-1.2 1.5-3.4 2.6-5 1.1-1.5 1.6-2.7 1.2-2.7-.4 0 0-.8.8-1.8 4.9-5.5 28-62.2 30.3-74.5.2-.9.6-2.1.9-2.5 1-1.6 6.8-25 9.1-36.7 3.5-17.7 5.1-27.5 6.2-37.5.2-2.5.6-5.9.8-7.5 2.5-19.8 2.5-76.6 0-89.5-.2-1-.7-4.5-1-7.7-1.3-11.5-2.5-20.4-2.9-22.3-.1-.8-.5-2.6-.9-4-.5-2.2-1.6-8-3.1-16-.8-4-1.3-5.9-4.1-16.5-1.4-5.5-2.8-10.7-3-11.5-.2-.8-.4-1.5-.5-1.5-.1 0-.3-.8-.5-1.9-.7-3.6-8-25.2-10.8-31.6-.6-1.4-1.1-2.8-1.3-3.3-.1-.4-.3-.9-.4-1.2-.1-.3-.3-.8-.5-1.3-.6-2.2-4.1-10.4-6-14.2-.7-1.4-1.3-2.7-1.2-3 .1-.5-15.4-32-17.3-35-.5-.8-3.7-6.2-7.1-12-7.6-12.9-15.1-24.4-16.1-24.8-.5-.2-.8-.8-.8-1.3 0-.6-.9-1.9-2-3.1-1.1-1.2-2-2.8-2-3.5 0-.8-.4-1.1-1-.8-.5.3-1 0-1-.7s-1.4-2.8-3-4.7c-1.7-1.8-3-3.7-3-4.1 0-.4-1.3-2.1-3-3.8-1.6-1.8-3-3.4-3-3.7 0-.3-.8-1.3-1.7-2.3-1-1-3.1-3.4-4.6-5.3-7.1-8.7-10.2-12.1-25.3-27.2-8.9-8.9-17.7-17.6-19.5-19.3-5.3-4.7-25-20.8-28.9-23.4-1.9-1.3-3.7-2.7-4-3-.3-.4-3.4-2.6-7-5s-6.9-4.8-7.5-5.2c-.5-.5-4-2.7-7.6-5.1-3.6-2.3-7.4-4.8-8.5-5.5-1-.6-2.6-1.5-3.4-1.9-.8-.3-2.6-1.4-4-2.3-5.2-3.5-29-16.1-29-15.4 0 .3-1.5-.5-3.2-1.8-1.8-1.3-3.4-2.2-3.6-2-.1.2-2.6-.8-5.5-2.1-16.3-7.7-38.1-16-39.1-15-.3.4-.6.2-.6-.4 0-.6-1.2-1.4-2.7-1.7-1.6-.4-6.3-1.8-10.5-3.1-4.2-1.4-8.5-2.7-9.5-2.8-1-.2-2.5-.7-3.3-1-2.1-.8-19-5-21.5-5.3-2-.3-4.7-.8-10-2.1-1.6-.3-3.7-.7-4.5-.8-.8-.1-4.4-.8-7.8-1.4-6.6-1.3-10.3-1.8-18.7-2.7-6.6-.7-9.3-1.1-10.4-1.8-.5-.4-1.2-.2-1.6.4-.4.6-1.1.8-1.6.5-1.3-.8-8.2-1.6-16.1-1.8-3.8-.1-6.8-.6-6.8-1.1 0-.5-.6-.3-1.3.3-.8.6-1.6.8-2 .5-.6-.6-28.6-1.2-29.2-.6zM1058.8 515.7c-.2.5-.4 200.6-.3 444.8l.1 444 124.5.3 124.6.2-.1-37.7c-.1-20.9.3-38.4.7-39.1.5-.6.6-1.2.1-1.2-1.1 0-1.1-61.1 0-62.8.4-.7.4-1.2-.1-1.2-1 0-.9-93.2.1-94.8.4-.7.4-1.2-.1-1.2-1 0-.9-93.2.1-94.8.4-.7.4-1.2-.1-1.2-1 0-.9-93.2.1-94.8.4-.7.4-1.2-.1-1.2-1 0-.9-93.2.1-94.8.4-.7.4-1.2-.1-1.2-1 0-.9-93.2.1-94.8.4-.7.4-1.2-.1-1.2-1 0-.9-93.2.1-94.8.4-.7.4-1.2-.1-1.2-1 0-.9-93.2.1-94.8.4-.7.4-1.2-.1-1.2-.4 0-.8-17.1-.7-38l.1-38h-124.3c-68.4 0-124.4.3-124.6.7zM1890.7 515.6c-.2.2-13.6 1.3-22.2 1.9-2.2.1-4 .3-4 .5 0 .1-1.8.3-4 .5-6.6.7-15.8 2-21.5 3.1-1.4.2-3.8.7-5.5 1-1.6.3-4.1.7-5.5 1-1.4.3-3.5.7-4.7.9-1.1.2-3 .6-4.2 1-1.1.3-3.3.8-4.8 1.1-1.6.3-4.6 1-6.8 1.6-2.2.6-4.4 1.1-5 1.3-3.6.8-8.2 2.1-17 4.7-5.5 1.7-10.4 3.1-11 3.3-.5.1-1.7.5-2.5.8-.8.4-5.3 2-10 3.7-4.7 1.7-9.4 3.4-10.5 3.9-7.1 3.2-16.1 6.6-16.7 6.4-.5-.2-.8.2-.8.7 0 .6-.6 1-1.2 1-1.7.1-31.7 15.2-40.3 20.3-1.1.7-4.7 2.8-8 4.7-3.3 1.8-6.6 4-7.3 4.7-.7.7-2 1.3-2.8 1.3-.8 0-1.4.4-1.4 1 0 .5-1.6 1.6-3.5 2.4-1.9.8-3.5 2-3.5 2.6 0 .6-.4.8-1 .5-.5-.3-1-.2-1 .2 0 .5-1.6 1.7-3.5 2.7-1.9 1.1-3.5 2.3-3.5 2.8 0 .4-.5.8-1.1.8-.6 0-1.7.6-2.4 1.2-1.7 1.5-1.7 1.6-12.5 9.8-4.7 3.5-8.7 6.7-9 7-.3.3-2.1 1.8-4 3.4-6.8 5.5-18.2 16-28.3 26.1-10.7 10.6-13.3 13.5-23.2 25-3.3 3.8-6.4 7.5-7 8.1-3.4 3.9-7.3 9-7.5 9.9-.2.5-1.1 1.6-2.1 2.3-1.1.7-1.9 1.8-1.9 2.3 0 .6-.6 1.6-1.2 2.3-2.4 2.4-10.2 13.6-11.1 15.8-.3 1-1.1 1.8-1.7 1.8-.5 0-1 .5-1 1.2 0 .6-1.1 2.6-2.5 4.4-1.4 1.8-2.5 3.7-2.5 4.3 0 .6-.4 1.1-1 1.1-.5 0-1 .7-1 1.5s-.5 1.5-1.1 1.5c-.5 0-.7.4-.4 1 .3.5.3 1-.2 1-.4 0-2.1 2.6-3.8 5.7-1.6 3.2-3.5 6.4-4.2 7-.6.7-1.5 2.3-1.9 3.6-.4 1.2-1 2.4-1.3 2.7-1 .7-11.1 21.3-11 22.4 0 .5-.3 1.2-.8 1.5-1.3 1-3 4.5-3.8 7.9-.3 1.8-1.1 3.2-1.6 3.2s-.9.6-.9 1.4c0 .7-1.2 4-2.6 7.2-2.4 5.5-7.9 20-8.9 23.4-.2.8-1.3 4.1-2.4 7.2-1.2 3.2-2.3 6.8-2.5 8-.3 1.3-.5 2.3-.6 2.3-.1 0-.3.7-.5 1.5s-1.1 4-2 7c-.9 3-2.1 7.3-2.6 9.5s-1.1 4.4-1.2 5c-.3.8-2.5 10.8-3.1 14-.2.5-.8 3.5-1.4 6.5-.6 3-1.4 7.1-1.7 9-.3 1.9-.8 4.8-1.1 6.5-.3 1.6-.7 4.6-.9 6.5-.2 1.9-.6 5.5-1 8-1.1 9.3-1.7 14.7-2.1 19.5-.6 7.3-1.2 58.9-.7 59.8.3.4.6 4.6.8 9.3.3 4.7.7 10.4 1.1 12.7.3 2.3.8 5.3.9 6.7.3 2.6 1.4 10.3 2.1 15.5.3 1.6.6 4.3.8 6 .2 1.6.9 5.1 1.5 7.8.6 2.6 1.4 6.4 1.7 8.5.3 2 .8 4.6 1.2 5.7.3 1.1.7 2.3.8 2.7.1.5.3 1 .4 1.3.1.3.3 1.3.4 2.2.1 1 .5 2.4.9 3 .5.7.6 1.3.3 1.3-.2 0 0 1.5.5 3.2.6 1.8 1.2 4 1.4 4.8 1 3.9 4.6 16.7 5.1 18 .3.8.5 1.6.5 1.8-.1.1.6 1.9 1.5 4 .8 2 1.7 4.4 1.9 5.2 2.9 13.4 34.5 81 38.7 82.8.4.2.8.9.8 1.6 0 .7.9 2.3 2 3.6 1.1 1.3 2 2.9 2 3.7 0 .7.5 1.3 1 1.3.6 0 1 .6 1 1.3 0 .8.9 2.2 2 3.2s2 2.2 2 2.7c0 1.1 13.9 20.8 20.3 28.8 3.4 4.3 15.4 18.8 17.2 20.8 5.7 6.5 34.8 35.5 40.4 40.2 3.6 3 8.1 6.9 10 8.5 3.6 3.1 11.6 9.3 16.6 12.9 1.4 1.1 3.6 2.8 4.7 3.8 1.2 1 2.5 1.8 2.9 1.8.4 0 1.4.6 2.1 1.4 3.3 3.3 35.6 23.6 37.5 23.6.7 0 1.3.4 1.3 1 0 .5.7 1 1.5 1s1.5.5 1.5 1.2c0 .6.3.9.6.5.3-.3 2.3.4 4.3 1.7 2 1.2 6.6 3.6 10.2 5.4 16.3 7.7 26 12.2 26.5 12.2.3 0 3 1.1 6 2.5s6.1 2.5 6.9 2.5c.7 0 1.7.4 2 1 .3.5 1.3 1 2.1 1s3.1.7 5.2 1.6c2 1 4.2 1.8 4.7 1.9.6.2 3.7 1.2 7 2.3 12.3 4.1 37.8 11.2 42.5 11.7 1.4.2 2.5.4 2.5.5 0 .3 18.5 3.8 23.4 4.5 1.8.2 4.6.7 6.3 1 1.7.4 5.2.9 7.7 1 2.5.2 4.6.4 4.6.5 0 .4 15.6 1.9 26.5 2.5 6.7.4 21.9.7 27.8.6l4.2-.1V515.1l-14.6.2c-8 .1-14.6.3-14.7.3z"/></svg>